<svg width="372" height="365" viewBox="0 0 372 365" fill="none" xmlns="http://www.w3.org/2000/svg">
<g clip-path="url(#clip0_213_684)">
<path d="M185.79 15.2403H252.79C257.92 15.2403 258.37 15.6903 258.38 20.7603C258.38 25.6203 258.31 30.4902 258.38 35.3502C258.44 38.1402 257.28 39.7801 254.46 39.5301C251.64 39.2801 251.79 41.0703 251.63 43.0103C251.41 45.8003 253.3 45.2003 254.81 45.2003C263.66 45.2003 272.52 45.2003 281.37 45.2003C286.04 45.2003 286.69 45.8902 286.71 50.6602C286.71 56.6602 287.08 62.6601 285.95 68.5701C285.35 71.7001 286.62 73.2803 288.8 75.0703C311.04 93.3203 327.72 115.72 337.8 142.69C355.58 190.3 351.91 236.49 327.64 281.09C326.81 282.61 324.84 284.16 328.11 285.48C329.42 286.01 329.26 287.82 329.26 289.21C329.26 305.42 329.2 321.63 329.26 337.84C329.26 341.42 327.77 342.66 324.26 342.65C306.06 342.56 287.85 342.65 269.65 342.58C267.555 342.572 265.492 343.092 263.65 344.09C211.65 371.017 159.65 370.957 107.65 343.91C105.89 342.993 103.925 342.538 101.94 342.59C83.9867 342.59 66.0334 342.59 48.08 342.59C42.86 342.59 42.33 342.05 42.32 336.8C42.32 318.34 42.32 299.884 42.32 281.43C42.3319 279.337 41.8197 277.275 40.83 275.43C5.58004 207.43 23.19 123.33 82.83 75.0602C85.1 73.2202 86.1 71.5303 85.55 68.5103C84.44 62.3503 84.93 56.0802 84.8 49.8502C84.72 46.4602 86.2 45.1603 89.51 45.1903C98.61 45.2803 107.71 45.1903 116.82 45.1903C118.43 45.1903 120.09 45.5502 119.91 42.8802C119.77 40.8202 119.81 39.2503 116.91 39.5003C114.01 39.7503 113.02 38.0103 113.08 35.2603C113.18 30.1403 113.25 25.0302 113.08 19.9202C112.95 16.2502 114.58 15.1702 118.02 15.1802C140.65 15.2802 163.22 15.2403 185.79 15.2403ZM136.99 125.32C137.15 125.43 137.39 125.67 137.46 125.63C137.87 125.37 137.58 125.15 137.36 124.94C137.01 123.94 136.73 122.8 136.28 121.79C129.737 106.862 125.22 91.126 122.85 75.0002C121.85 68.2502 120.85 61.4902 120.49 54.6702C120.36 52.3802 119.7 50.8903 116.68 50.9903C108.97 51.2603 101.24 51.1401 93.52 51.0501C91.45 51.0501 90.62 51.6501 90.7 53.8001C90.89 58.3901 90.79 62.9701 91.34 67.5701C93.67 86.8501 102.64 102.37 117.52 114.57C123.244 119.393 129.859 123.046 136.99 125.32ZM234.53 125.32C239.212 124.007 243.636 121.903 247.61 119.1C271.02 103.66 281.61 81.6101 280.85 53.8301C280.85 51.7001 280.11 51.0401 278.03 51.0701C270.81 51.1601 263.58 51.0701 256.36 51.0701C251.24 51.0701 251.23 51.0702 250.89 56.1302C249.723 73.5005 246.363 90.6534 240.89 107.18C238.89 113.18 236.42 119.02 234.16 124.94L233.94 125.52L234.53 125.32ZM284.19 79.0502C275.58 106.36 258.19 124.62 230.68 132.86C229.489 133.257 228.504 134.109 227.94 135.23C223.793 141.902 218.858 148.05 213.24 153.54C210.653 156.09 208.661 159.18 207.406 162.589C206.151 165.998 205.664 169.641 205.98 173.26C206.12 175.53 206.89 176.65 209.38 176.53C212.74 176.36 216.11 176.53 219.48 176.53C222.11 176.53 223.33 177.75 223.27 180.44C223.19 184.44 223.43 188.44 223.19 192.44C223.03 195.17 224.05 195.8 226.58 195.68C230.68 195.48 234.8 195.68 238.92 195.62C241.55 195.62 242.79 196.76 242.78 199.44C242.74 209.787 242.74 220.12 242.78 230.44C242.78 233.05 241.69 234.65 239.03 234.34C235.84 233.97 235.42 235.45 235.45 238.17C235.56 252.38 235.6 266.6 235.45 280.81C235.45 283.98 236.33 284.71 239.45 284.69C264.783 284.557 290.093 284.557 315.38 284.69C318.14 284.69 319.54 283.69 320.89 281.44C333.95 259.38 341.59 235.57 342.75 210C344.95 161.69 328.29 120.68 293.66 87.0002C290.808 84.0014 287.632 81.3284 284.19 79.0302V79.0502ZM87.42 78.8102C85.98 79.9602 84.87 80.7602 83.86 81.6602C39.72 121.314 22.13 170.467 31.09 229.12C32.9461 240.433 36.2498 251.46 40.92 261.93C41.26 262.7 41.23 264.99 42.92 263.78C44.61 262.57 46.2 262.78 47.92 262.78C75.92 262.78 104 262.7 132.05 262.86C135.47 262.86 136.21 261.86 136.11 258.66C135.88 251.66 135.94 244.66 136.11 237.73C136.16 235.24 135.63 234.02 132.87 234.32C130.11 234.62 128.73 233.32 128.75 230.41C128.803 220.064 128.803 209.73 128.75 199.41C128.75 196.74 129.95 195.53 132.6 195.57C135.72 195.57 138.83 195.57 141.95 195.57C148.29 195.57 148.29 195.57 148.29 189.41V181.93C148.29 176.84 148.64 176.52 153.89 176.5C156.51 176.5 159.14 176.33 161.74 176.5C164.5 176.71 165.5 175.62 165.62 172.93C165.853 169.188 165.257 165.441 163.874 161.956C162.491 158.471 160.356 155.334 157.62 152.77C152.304 147.68 147.666 141.926 143.82 135.65C143.393 134.904 142.818 134.253 142.13 133.737C141.442 133.221 140.656 132.851 139.82 132.65C133.586 130.892 127.623 128.284 122.1 124.9C104.63 114.14 93.23 98.8202 87.42 78.7902V78.8102ZM185.72 39.6102C166.89 39.6102 148.06 39.6101 129.23 39.5401C126.28 39.5401 125.48 40.2901 125.59 43.3001C126.155 61.376 128.86 79.3213 133.65 96.7602C139.26 116.76 147.4 135.39 162.88 150.14C169.39 156.35 172.03 164.6 171.3 173.66C171.13 175.84 171.67 176.53 173.82 176.51C181.82 176.43 189.82 176.43 197.82 176.51C200.12 176.51 200.38 175.58 200.24 173.57C199.858 168.95 200.537 164.305 202.225 159.987C203.913 155.67 206.566 151.796 209.98 148.66C218.84 140.13 225.25 130 230.08 118.8C240.29 95.1502 244.71 70.2602 245.84 44.6802C246.08 39.2002 246.92 39.6102 241.13 39.6002C222.65 39.5735 204.18 39.5702 185.72 39.5902V39.6102ZM141.72 285.28C141.72 301.28 141.77 317.18 141.72 333.13C141.72 335.82 142.06 337 145.27 336.98C172.303 336.833 199.337 336.833 226.37 336.98C229.16 336.98 229.91 336.3 229.9 333.48C229.8 301.593 229.8 269.697 229.9 237.79C229.9 234.9 229.06 234.33 226.34 234.34C199.3 234.44 172.263 234.44 145.23 234.34C142.45 234.34 141.68 235.01 141.7 237.84C141.82 253.65 141.74 269.44 141.74 285.26L141.72 285.28ZM91.81 336.89C105.4 336.89 118.98 336.81 132.57 336.96C135.41 336.96 136.09 336.17 136.08 333.4C135.96 312.96 135.96 292.52 136.08 272.08C136.08 268.96 134.96 268.43 132.19 268.44C105.39 268.527 78.5933 268.527 51.8 268.44C49.03 268.44 47.99 268.97 48.01 272.06C48.1567 292.5 48.1567 312.94 48.01 333.38C48.01 336.51 49.07 336.98 51.81 336.95C65.16 336.81 78.5 336.87 91.83 336.87L91.81 336.89ZM279.31 336.89C292.76 336.89 306.22 336.83 319.68 336.95C322.4 336.95 323.54 336.56 323.49 333.4C323.29 320.19 323.34 306.98 323.49 293.77C323.49 291.25 323 290.39 320.27 290.4C293.097 290.507 265.93 290.507 238.77 290.4C236.13 290.4 235.44 291.19 235.46 293.76C235.58 306.974 235.58 320.184 235.46 333.39C235.46 336.15 236.11 336.99 238.96 336.95C252.41 336.79 265.87 336.87 279.31 336.87V336.89ZM185.74 228.55C201.74 228.55 217.65 228.48 233.61 228.62C236.43 228.62 237.21 227.85 237.13 225.05C236.93 218.05 237 211.05 237.13 204.11C237.13 201.99 236.46 201.34 234.36 201.35C201.947 201.403 169.537 201.403 137.13 201.35C135 201.35 134.35 202.03 134.38 204.13C134.48 211.13 134.56 218.13 134.38 225.07C134.3 227.9 135.14 228.64 137.92 228.61C153.85 228.47 169.8 228.53 185.76 228.53L185.74 228.55ZM185.8 21.0902H127.88C118.95 21.0902 119.15 21.0902 118.88 29.9302C118.77 33.4102 119.88 33.9302 123.06 33.9302C163.06 33.8302 203.06 33.8068 243.06 33.8602C252.61 33.8602 252.47 33.8603 252.58 24.4703C252.58 21.5403 251.65 21.0301 248.98 21.0501C227.93 21.1201 206.88 21.0701 185.82 21.0701L185.8 21.0902ZM252.34 342.89H119.18C147.98 362.88 224.96 362.87 252.36 342.87L252.34 342.89ZM185.75 195.56H207.75C217.57 195.56 217.45 195.56 217.51 185.62C217.51 182.74 216.6 182.11 213.88 182.13C197.19 182.25 180.5 182.19 163.81 182.19C153.74 182.19 153.81 182.19 153.81 192.39C153.81 195.15 154.81 195.64 157.26 195.61C166.84 195.46 176.31 195.54 185.77 195.54L185.75 195.56Z" fill="#314AE2"/>
<path d="M0.0100691 201.31C-0.118322 169.141 8.20247 137.503 24.1401 109.56C25.1401 107.8 26.1401 105.69 28.6501 106.99C31.3201 108.38 30.2201 110.5 29.1301 112.43C14.075 138.852 6.01703 168.681 5.72003 199.09C5.56267 209.438 6.35937 219.778 8.10003 229.98C8.25003 230.83 8.36005 231.7 8.49005 232.56C8.83005 234.7 9.35006 237.14 6.31006 237.56C3.27006 237.98 3.15004 235.37 2.79004 233.31C0.889258 222.75 -0.0412564 212.039 0.0100691 201.31Z" fill="#314AE2"/>
<path d="M371.55 204.13C371.459 211.782 370.878 219.421 369.81 227C369.52 229.17 368.9 231.13 366.22 230.68C363.78 230.27 363.74 228.26 364.01 226.28C368.983 192.037 363.838 157.087 349.21 125.73C348.31 123.73 347.65 121.73 350.21 120.73C352.77 119.73 353.72 121.63 354.61 123.55C365.84 148.08 371.61 173.86 371.55 204.13Z" fill="#314AE2"/>
<path d="M76.16 361.75C70.06 361.75 63.95 361.75 57.84 361.75C55.76 361.75 53.95 361.34 54.05 358.75C54.15 356.41 55.93 356.13 57.82 356.13C70.16 356.13 82.4933 356.13 94.82 356.13C96.82 356.13 98.43 356.65 98.44 358.91C98.45 361.17 96.83 361.73 94.84 361.72C88.63 361.73 82.4 361.75 76.16 361.75Z" fill="#314AE2"/>
<path d="M295.5 361.75H277.5C275.5 361.75 273.15 361.9 273.05 359.07C272.95 356.24 275.16 356.17 277.27 356.17H313.17C315.26 356.17 317.5 356.17 317.43 359.03C317.36 361.89 315.07 361.75 313.02 361.75H295.5Z" fill="#314AE2"/>
<path d="M364.6 251.82C363.49 255.21 362.3 259.25 360.85 263.19C359.14 267.84 357.23 272.41 355.35 276.99C354.68 278.63 353.44 279.8 351.57 279.08C349.7 278.36 349.19 276.73 350.05 274.8C353.585 266.749 356.608 258.483 359.1 250.05C359.169 249.682 359.311 249.331 359.518 249.019C359.725 248.706 359.993 248.439 360.305 248.232C360.618 248.025 360.969 247.882 361.337 247.813C361.705 247.744 362.084 247.75 362.45 247.83C363.99 248.05 364.77 249.29 364.6 251.82Z" fill="#314AE2"/>
<path d="M233.66 0.0103593H247.87C249.93 0.0103593 251.77 0.390311 251.68 2.96031C251.59 5.28031 249.82 5.63022 247.93 5.62022C238.457 5.62022 228.983 5.62022 219.51 5.62022C217.51 5.62022 215.85 4.98018 215.83 2.83018C215.81 0.680183 217.45 -0.0196602 219.44 -0.00966023C224.18 0.0303398 228.92 0.0103593 233.66 0.0103593Z" fill="#314AE2"/>
<path d="M66.0201 65.39C65.96 65.963 65.7792 66.5168 65.4896 67.015C65.2 67.5131 64.8083 67.9441 64.3401 68.2799C59.4988 72.7343 54.8958 77.4409 50.55 82.38C49.19 83.95 47.55 84.96 45.78 83.38C44.01 81.8 44.92 80.09 46.28 78.54C50.8011 73.4257 55.5842 68.5492 60.61 63.93C61.61 62.98 62.78 62.26 64.29 62.93C64.7883 63.1245 65.2182 63.4617 65.5259 63.8992C65.8336 64.3368 66.0055 64.8552 66.0201 65.39Z" fill="#314AE2"/>
<path d="M200.31 0.0201884C202.17 0.0201884 204.03 0.0201884 205.89 0.0201884C207.75 0.0201884 209.05 0.830032 209.03 2.86003C209.049 3.23737 208.985 3.61415 208.843 3.96428C208.701 4.31441 208.484 4.62943 208.208 4.88738C207.932 5.14532 207.603 5.34005 207.245 5.45793C206.886 5.57582 206.505 5.61404 206.13 5.56999C202.29 5.61999 198.44 5.61999 194.6 5.56999C192.9 5.56999 191.71 4.72008 191.66 2.91008C191.6 0.910081 192.85 0.0401787 194.73 0.0101787C196.61 -0.0198213 198.46 0.0201884 200.31 0.0201884Z" fill="#314AE2"/>
<path d="M185.72 39.5797C204.173 39.5797 222.627 39.5797 241.08 39.5797C246.87 39.5797 246.08 39.1798 245.79 44.6598C244.66 70.2398 240.24 95.1298 230.03 118.78C225.2 129.98 218.79 140.11 209.93 148.64C206.516 151.775 203.863 155.65 202.175 159.967C200.487 164.284 199.808 168.93 200.19 173.55C200.33 175.55 200.07 176.55 197.77 176.49C189.77 176.39 181.77 176.39 173.77 176.49C171.62 176.49 171.08 175.82 171.25 173.64C171.98 164.58 169.34 156.33 162.83 150.12C147.35 135.37 139.21 116.74 133.6 96.7398C128.81 79.3009 126.105 61.3556 125.54 43.2797C125.43 40.2797 126.23 39.4999 129.18 39.5199C148.06 39.6499 166.89 39.5897 185.72 39.5797ZM185.09 56.8798C181.78 56.8534 178.498 57.4826 175.432 58.7313C172.367 59.98 169.579 61.8235 167.23 64.1552C164.881 66.4868 163.016 69.2605 161.744 72.3164C160.473 75.3723 159.819 78.6499 159.82 81.9598C159.9 88.5738 162.557 94.8956 167.225 99.5811C171.894 104.267 178.206 106.946 184.82 107.05C191.506 107.037 197.915 104.374 202.642 99.6449C207.369 94.9159 210.029 88.5063 210.04 81.8198C210.024 75.2085 207.39 68.8726 202.714 64.1986C198.038 59.5246 191.701 56.893 185.09 56.8798Z" fill="#FDFDFE"/>
<path d="M141.74 285.26C141.74 269.44 141.82 253.61 141.67 237.79C141.67 234.96 142.42 234.28 145.2 234.29C172.24 234.397 199.277 234.397 226.31 234.29C229.03 234.29 229.88 234.85 229.87 237.74C229.763 269.64 229.763 301.537 229.87 333.43C229.87 336.25 229.13 336.94 226.34 336.93C199.313 336.823 172.28 336.823 145.24 336.93C142.03 336.93 141.67 335.77 141.69 333.08C141.79 317.16 141.74 301.21 141.74 285.26Z" fill="#FDFDFE"/>
<path d="M91.8301 336.87C78.5001 336.87 65.1601 336.81 51.8301 336.93C49.0901 336.93 48.0101 336.49 48.0301 333.36C48.1967 312.92 48.1967 292.48 48.0301 272.04C48.0301 268.95 49.0301 268.41 51.8201 268.42C78.6201 268.507 105.417 268.507 132.21 268.42C134.98 268.42 136.12 268.94 136.1 272.06C135.96 292.5 135.96 312.94 136.1 333.38C136.1 336.15 135.43 336.98 132.59 336.94C119 336.79 105.42 336.87 91.8301 336.87Z" fill="#FDFDFE"/>
<path d="M279.31 336.87C265.85 336.87 252.39 336.79 238.93 336.94C236.08 336.94 235.4 336.14 235.43 333.38C235.563 320.166 235.563 306.956 235.43 293.75C235.43 291.18 236.1 290.38 238.74 290.39C265.907 290.476 293.073 290.476 320.24 290.39C322.97 290.39 323.49 291.24 323.46 293.76C323.34 306.97 323.29 320.18 323.46 333.39C323.46 336.55 322.37 336.97 319.65 336.94C306.24 336.81 292.78 336.87 279.31 336.87Z" fill="#FDFDFE"/>
<path d="M185.76 228.53C169.76 228.53 153.85 228.47 137.89 228.59C135.11 228.59 134.27 227.88 134.35 225.05C134.56 218.05 134.48 211.05 134.35 204.11C134.35 202.01 134.97 201.32 137.1 201.33C169.507 201.384 201.917 201.384 234.33 201.33C236.43 201.33 237.13 201.97 237.1 204.09C236.99 211.09 236.92 218.09 237.1 225.03C237.18 227.83 236.4 228.62 233.58 228.6C217.67 228.46 201.72 228.53 185.76 228.53Z" fill="#FDFDFE"/>
<path d="M234.19 124.95C236.45 119.03 238.95 113.2 240.92 107.19C246.393 90.6634 249.753 73.5105 250.92 56.1401C251.26 51.1401 251.27 51.0801 256.39 51.0801C263.61 51.0801 270.84 51.1401 278.06 51.0801C280.14 51.0801 280.83 51.7101 280.88 53.8401C281.59 81.6201 271.05 103.67 247.64 119.11C243.666 121.913 239.242 124.017 234.56 125.33L234.19 124.95Z" fill="#8E9EFE"/>
<path d="M136.99 125.32C129.859 123.045 123.244 119.393 117.52 114.57C102.64 102.37 93.6701 86.8499 91.3401 67.5699C90.7901 62.9699 90.8901 58.3899 90.7001 53.7999C90.6201 51.6499 91.4501 51.0199 93.5201 51.0499C101.24 51.1399 108.97 51.2601 116.68 50.9901C119.68 50.8901 120.36 52.38 120.49 54.67C120.88 61.49 121.8 68.25 122.85 75C125.229 91.1272 129.756 106.864 136.31 121.79C136.76 122.79 137.04 123.89 137.39 124.94L136.99 125.32Z" fill="#8E9EFE"/>
<path d="M185.82 21.0698C206.88 21.0698 227.93 21.07 248.98 21.02C251.65 21.02 252.62 21.5099 252.58 24.4399C252.47 33.8299 252.58 33.8298 243.06 33.8298C203.06 33.8298 163.06 33.8532 123.06 33.8999C119.93 33.8999 118.77 33.3899 118.88 29.8999C119.14 21.0699 118.94 21.0598 127.88 21.0598L185.82 21.0698Z" fill="#FDFDFE"/>
<path d="M185.77 195.54C176.31 195.54 166.84 195.46 157.38 195.54C154.9 195.54 153.93 195.08 153.93 192.32C153.93 182.12 153.81 182.12 163.93 182.12C180.62 182.12 197.31 182.18 214 182.06C216.72 182.06 217.64 182.67 217.63 185.55C217.57 195.49 217.69 195.49 207.87 195.49L185.77 195.54Z" fill="#FDFDFE"/>
<path d="M137.36 124.94C137.58 125.15 137.87 125.37 137.46 125.63C137.39 125.63 137.15 125.43 136.99 125.32L137.36 124.94Z" fill="#8E9EFE"/>
<path d="M234.53 125.3L233.97 125.53L234.19 124.95L234.53 125.3Z" fill="#8E9EFE"/>
<path d="M318.22 232.65C317.95 234.89 316.7 235.71 314.68 235.86C312.66 236.01 309.68 234.78 308.36 236.55C307.36 237.96 307.99 240.55 307.93 242.7C307.93 244.59 307.06 245.92 305.1 245.88C303.14 245.84 302.41 244.52 302.31 242.62C302.19 240.43 303.31 237.56 301.67 236.26C300.33 235.21 297.67 235.88 295.52 235.83C293.68 235.83 292.25 235 292.14 233.1C292.02 230.96 293.53 230.1 295.51 229.97C297.69 229.76 300.51 230.97 301.86 229.31C302.91 227.95 302.28 225.31 302.33 223.19C302.38 221.3 303.14 219.99 305.15 220C307.16 220.01 307.81 221.36 307.95 223.22C308.12 225.4 306.95 228.27 308.64 229.56C310.04 230.56 312.7 229.91 314.81 229.98C315.604 229.941 316.386 230.19 317.012 230.68C317.638 231.17 318.067 231.87 318.22 232.65Z" fill="#314AE2"/>
<path d="M313.59 158.95C313.19 161.03 311.88 162.03 309.87 161.77C306.6 161.35 305.02 162.35 305.58 165.92C305.88 167.92 305.08 169.53 302.88 169.58C300.68 169.63 299.78 167.99 299.99 166.04C300.36 162.74 299.32 161.23 295.8 161.76C293.8 162.06 292.21 161.13 292.14 159C292.07 156.87 293.67 155.85 295.63 156.05C298.9 156.39 300.48 155.45 300 151.86C299.75 149.97 300.55 148.29 302.84 148.32C305.13 148.35 305.84 149.99 305.58 151.92C305.15 155.13 306.18 156.53 309.58 156.04C310.038 155.923 310.517 155.908 310.981 155.997C311.446 156.086 311.885 156.276 312.268 156.554C312.651 156.832 312.968 157.19 313.196 157.605C313.425 158.019 313.559 158.478 313.59 158.95Z" fill="#314AE2"/>
<path d="M65.87 222.59C63.47 222.44 62.87 221.09 62.63 219.32C62.35 216.78 63.76 213.56 61.89 211.84C60.22 210.31 57.13 211.47 54.67 211.36C52.76 211.27 51.46 210.42 51.48 208.5C51.5 206.58 52.91 205.8 54.76 205.65C57.21 205.46 60.26 206.65 61.96 205.09C63.66 203.53 62.4 200.37 62.62 197.93C62.79 195.93 63.51 194.4 65.7 194.51C67.89 194.62 68.35 196.27 68.41 198.23C68.47 200.57 67.41 203.5 68.92 205.08C70.43 206.66 73.42 205.49 75.75 205.64C77.75 205.77 79.64 206.16 79.56 208.64C79.48 210.92 77.76 211.22 75.85 211.35C73.43 211.52 70.22 210.15 68.79 212.08C67.65 213.64 68.38 216.63 68.39 218.98C68.4 221.04 67.65 222.33 65.87 222.59Z" fill="#314AE2"/>
<path d="M185.09 56.8798C191.71 56.8798 198.06 59.5054 202.746 64.1809C207.433 68.8563 210.074 75.1999 210.09 81.8199C210.079 88.5063 207.419 94.916 202.692 99.645C197.965 104.374 191.556 107.037 184.87 107.05C178.256 106.946 171.944 104.267 167.275 99.5811C162.607 94.8956 159.95 88.5739 159.87 81.9599C159.869 78.6542 160.521 75.3807 161.79 72.3281C163.058 69.2755 164.918 66.5041 167.262 64.1731C169.606 61.8421 172.388 59.9975 175.448 58.7458C178.507 57.4942 181.784 56.8601 185.09 56.8798ZM185.16 101.2C190.26 101.112 195.125 99.0374 198.72 95.4183C202.315 91.7992 204.356 86.9207 204.41 81.8199C204.41 71.8199 195.36 62.2597 185.41 62.5297C172.61 62.8797 165.93 71.9699 165.68 81.7699C165.38 92.4199 174.5 101.28 185.16 101.2Z" fill="#314AE2"/>
<path d="M185.16 101.2C174.5 101.28 165.38 92.4201 165.66 81.7701C165.91 71.9701 172.59 62.88 185.39 62.53C195.39 62.26 204.39 71.7902 204.39 81.8202C204.336 86.9176 202.298 91.7932 198.707 95.4117C195.116 99.0303 190.257 101.107 185.16 101.2Z" fill="#8E9EFE"/>
</g>
<defs>
<clipPath id="clip0_213_684">
<rect width="371.54" height="364.28" fill="white"/>
</clipPath>
</defs>
</svg>
