<svg width="339" height="372" viewBox="0 0 339 372" fill="none" xmlns="http://www.w3.org/2000/svg">
<g clip-path="url(#clip0_212_647)">
<path d="M37.86 126.2C42.2245 119.36 47.0631 112.834 52.3401 106.67C58.8669 99.1184 66.1443 92.2498 74.06 86.1699C74.8335 85.6896 75.4492 84.9933 75.8313 84.167C76.2134 83.3406 76.3451 82.4204 76.2101 81.52C74.2101 57.65 87.93 36.5798 110.05 29.3498C132.17 22.1198 155.34 30.8699 167.96 51.2199C169.3 53.3799 170.79 53.8899 173.08 53.9699C241.73 56.2899 300.75 105.34 315.74 172.48C334.09 254.73 282.22 336.92 199.79 354.48C110.9 373.48 32.6799 314.37 17.7899 233.92C14.3968 215.992 14.363 197.59 17.69 179.65C18.4 175.82 16.76 172.54 16.1 169.06C12.5905 151.434 14.9692 133.142 22.87 117C24.98 112.59 26.8099 112.37 29.8199 116.09C32.4099 119.31 34.92 122.53 37.86 126.2ZM146.6 307.03H145.85C145.85 320.49 145.85 333.95 145.85 347.41C145.85 349.53 146.05 350.78 148.66 351.09C175.47 354.28 201.3 350.81 226.11 340.01C228.05 339.16 228.98 338.5 228.4 336.01C226.74 328.86 225.5 321.61 224.15 314.39C222.32 304.6 226.56 296.59 235.62 292.52C238.83 291.153 242.263 290.384 245.75 290.25C251.46 289.89 257.23 290.25 262.87 288.98C270.36 287.32 273.37 283.8 273.93 276.15C274.73 265.21 275.5 254.27 276.47 243.35C277.06 236.59 279.04 234.57 285.69 233.08C293.18 231.39 295.04 227.36 291.45 220.57C281.89 202.57 272.25 184.57 265.13 165.35C262.63 158.567 259.187 152.171 254.9 146.35C250.38 140.25 244.99 135.23 237.83 132.26C235.14 131.14 233.25 131.34 230.92 133.42C195.527 165.087 160.05 196.653 124.49 228.12C121.13 231.12 121.12 233.29 123.01 236.82C128.18 246.45 135.57 254.12 143.85 261.01C144.783 261.697 145.531 262.605 146.026 263.652C146.522 264.699 146.75 265.853 146.69 267.01C146.54 280.35 146.6 293.72 146.6 307.03ZM234.17 335.89C234.74 335.716 235.298 335.506 235.84 335.26C282.38 308.84 309.16 269.06 313.14 215.7C316.7 167.87 299.26 127.47 263.35 95.6098C238.49 73.6098 209.08 61.8 175.83 59.8C173.1 59.63 172.28 60.0199 173.27 62.9699C175.004 68.3185 175.683 73.9527 175.27 79.56C174.49 92.46 169.2 103.27 160.27 112.48C155.253 117.568 151.785 123.977 150.27 130.96C149.77 133.29 148.54 135.73 152.08 136.96C153.08 137.32 153.15 138.81 153.15 139.96C153.15 145.57 153.34 151.2 153.05 156.79C152.27 171.37 141.15 182.64 127.05 183.36C112.68 184.09 100.55 174.07 98.39 159.36C97.39 152.69 98.16 145.92 98.04 139.19C97.962 138.623 98.0749 138.045 98.3609 137.549C98.647 137.053 99.0899 136.667 99.62 136.45C102.22 135.78 101.54 134.12 101.22 132.45C99.9287 124.89 96.3473 117.909 90.9601 112.45C88.4152 109.879 86.1029 107.088 84.05 104.11C81.25 99.9898 79.4201 95.39 77.5801 90.52C64.0779 101.009 52.479 113.741 43.29 128.16C41.87 130.37 42.1 131.62 43.68 133.58C67.56 163.313 91.3634 193.11 115.09 222.97C117.37 225.86 118.47 225.89 121.17 223.47C157.17 191.21 193.267 159.017 229.46 126.89C230.228 126.094 231.206 125.532 232.281 125.27C233.355 125.008 234.482 125.056 235.53 125.41C240.839 126.839 245.78 129.39 250.02 132.89C259.02 140.29 265.13 149.83 269.24 160.52C276.91 180.44 286.62 199.35 296.63 218.13C301.8 227.84 297.86 236.39 286.98 238.56C283.21 239.31 282.15 241.09 281.98 244.56C281.33 255.63 280.48 266.69 279.61 277.75C279.28 281.92 278.12 285.83 275.01 288.9C271.29 292.58 266.57 293.96 261.61 294.9C255.32 296.12 248.9 295.17 242.61 296.21C233.5 297.72 228.43 303.73 229.68 312.21C230.85 320.21 232.64 327.97 234.17 335.89ZM22.7201 189.18C22.4585 189.566 22.2372 189.978 22.0599 190.41C21.8997 191.142 21.7896 191.883 21.7301 192.63C20.4843 206.42 21.1574 220.315 23.7301 233.92C34.4901 291.11 79.98 337.51 136.45 348.92C139.59 349.55 140.1 348.92 140.12 345.92C140.247 320.587 140.49 295.287 140.85 270.02C140.943 268.747 140.717 267.47 140.194 266.306C139.67 265.141 138.864 264.125 137.85 263.35C129.23 256.03 121.64 247.77 117.1 237.26C115.79 234.26 114.35 234 111.53 234.44C79.97 239.38 53.9501 229.33 33.2001 205.22C29.0501 200.44 25.9301 194.93 22.7201 189.18ZM128.54 114.12C128.54 120.48 128.6 126.84 128.54 133.2C128.54 135.2 128.96 136.2 131.2 136.06C134.56 135.9 137.94 135.94 141.3 136.06C143.03 136.12 143.7 135.47 143.91 133.77C145.29 122.94 150.8 114.36 157.98 106.35C169.55 93.4198 173.1 78.2799 166.78 61.8999C160 44.3199 146.84 33.8999 127.78 32.8999C109.42 31.8999 95.26 40.09 86.78 56.32C77.94 73.17 79.67 89.94 91.78 104.51C99.27 113.51 106.12 122.35 107.46 134.36C107.63 135.88 108.59 136.06 109.83 136.05C113.2 136.05 116.57 135.89 119.93 136.05C122.4 136.2 122.77 135.11 122.75 132.98C122.67 120.633 122.67 108.3 122.75 95.98C122.777 95.1234 122.611 94.2718 122.265 93.4878C121.918 92.7038 121.401 92.0074 120.75 91.4499C116.81 87.6199 113 83.6801 109.08 79.8301C107.59 78.3601 106.61 76.69 108.24 74.99C109.87 73.29 111.6 74.1899 113.08 75.6899C116.23 78.8799 119.56 81.91 122.55 85.26C124.71 87.67 126.21 88.1699 128.55 85.3899C131.44 81.9799 134.85 79.01 137.99 75.8C139.44 74.33 141.12 73.2298 142.83 74.8698C144.74 76.6798 143.57 78.43 142 79.98C138.27 83.65 134.68 87.48 130.85 91.04C130.019 91.7655 129.371 92.6773 128.959 93.7009C128.547 94.7245 128.383 95.8308 128.48 96.9299C128.64 102.64 128.54 108.38 128.54 114.12ZM26.9701 121.83C22.8051 130.879 20.5256 140.682 20.2701 150.64C19.9142 161.851 22.0135 173.003 26.4212 183.317C30.829 193.631 37.4385 202.857 45.7867 210.348C54.1349 217.838 64.02 223.413 74.7495 226.682C85.4789 229.951 96.7933 230.834 107.9 229.27C109.1 229.11 110.83 229.56 111.33 228.34C111.91 226.92 110.22 226.04 109.41 225.03C93.03 204.457 76.6267 183.91 60.2001 163.39C49.2401 149.72 38.2701 135.96 26.9701 121.83ZM125.86 141.66C119.5 141.66 113.14 141.72 106.79 141.66C104.79 141.66 103.79 142.14 103.9 144.36C104.03 148.72 103.78 153.09 104 157.44C104.49 167.2 112.46 175.86 122.19 177.44C126.91 178.096 131.716 177.209 135.891 174.911C140.067 172.614 143.388 169.028 145.36 164.69C148.36 157.75 147.03 150.47 147.28 143.31C147.34 141.38 145.73 141.71 144.55 141.7C138.32 141.65 132.09 141.66 125.86 141.66Z" fill="#3049E2"/>
<path d="M332.19 203.31C329.31 143.71 304.32 96.7503 253.05 64.8103C252.31 64.3503 251.51 63.9802 250.82 63.4502C249.47 62.4502 248.89 61.1203 249.82 59.5603C250.75 58.0003 252.21 57.9303 253.74 58.5603C254.301 58.8337 254.846 59.1409 255.37 59.4802C299.01 86.0902 325.43 124.64 335.09 174.75C337.293 186.013 338.299 197.476 338.09 208.95C338.115 209.954 338.048 210.958 337.89 211.95C337.829 212.647 337.5 213.293 336.972 213.752C336.444 214.21 335.759 214.447 335.06 214.41C334.681 214.423 334.304 214.357 333.953 214.216C333.601 214.075 333.283 213.863 333.018 213.591C332.754 213.32 332.549 212.997 332.416 212.642C332.284 212.287 332.227 211.908 332.25 211.53C332.13 208.8 332.19 206.05 332.19 203.31Z" fill="#3049E2"/>
<path d="M19.41 282.33C21.18 282.49 21.85 284.02 22.63 285.44C30.256 299.335 39.8521 312.053 51.12 323.2C63.3487 335.317 77.403 345.44 92.77 353.2C93.77 353.71 94.77 354.2 95.77 354.72C97.35 355.61 98.2999 356.86 97.3499 358.72C96.3999 360.58 94.76 360.6 93.17 359.81C89.61 358.03 86.0599 356.22 82.6099 354.23C55.2344 338.693 32.7268 315.839 17.6099 288.23C15.7199 284.89 16.46 282.25 19.41 282.33Z" fill="#3049E2"/>
<path d="M209.26 371.43C207.32 371.51 206.03 370.86 205.79 369.08C205.55 367.3 206.62 366.34 208.25 365.85C212.77 364.48 217.33 363.2 221.8 361.68C240.949 355.137 258.669 344.988 274 331.78C274.741 331.113 275.523 330.492 276.34 329.92C276.621 329.716 276.94 329.571 277.278 329.494C277.617 329.416 277.967 329.409 278.309 329.472C278.65 329.534 278.975 329.666 279.264 329.858C279.553 330.05 279.8 330.299 279.99 330.59C280.421 331.057 280.66 331.669 280.66 332.305C280.66 332.94 280.421 333.553 279.99 334.02C279.064 335.03 278.061 335.966 276.99 336.82C257.9 352.976 235.433 364.652 211.24 370.99C210.51 371.18 209.77 371.31 209.26 371.43Z" fill="#3049E2"/>
<path d="M0.00012207 240.14C0.110122 238.63 0.749956 237.48 2.32996 237.2C4.32996 236.86 5.32994 238.03 5.80994 239.78C6.75994 243.5 7.49994 247.29 8.55994 250.98C9.79994 255.26 11.2301 259.5 12.7101 263.71C13.3901 265.71 13.6401 267.54 11.4401 268.45C9.24006 269.36 8.07998 267.82 7.34998 265.88C4.38136 257.85 1.98872 249.62 0.190063 241.25C0.110063 240.89 0.0601221 240.52 0.00012207 240.14Z" fill="#3049E2"/>
<path d="M61.8401 36.8501C65.3501 38.9301 69.5901 40.4902 72.8401 43.6902C73.213 44.1336 73.3948 44.7067 73.3461 45.2839C73.2974 45.8612 73.022 46.3957 72.5801 46.7703C72.211 47.2845 71.6656 47.6449 71.0479 47.7832C70.4302 47.9215 69.7832 47.828 69.23 47.5203C66.08 45.7603 62.93 43.9903 59.87 42.0903C59.3245 41.7692 58.9192 41.255 58.734 40.6497C58.5489 40.0443 58.5974 39.3917 58.87 38.8203C59.26 37.6303 60.2101 37.1401 61.8401 36.8501Z" fill="#3049E2"/>
<path d="M88.41 9.88992C88.973 9.84607 89.5363 9.97117 90.0279 10.249C90.5195 10.5269 90.9172 10.945 91.17 11.45C92.81 14.23 94.4233 17.0268 96.01 19.8401C96.92 21.4501 96.89 23.0401 95.18 24.0401C93.47 25.0401 92.0599 24.33 91.0999 22.72C89.4599 19.94 87.74 17.2001 86.28 14.3301C85.1 12.0701 86.21 10.0199 88.41 9.88992Z" fill="#3049E2"/>
<path d="M192.58 39.6401C192.592 40.2041 192.451 40.761 192.17 41.2507C191.89 41.7404 191.482 42.1445 190.99 42.4201C188.2 44.0501 185.4 45.6602 182.6 47.2802C180.94 48.2802 179.37 48.0101 178.4 46.3701C177.43 44.7301 178.19 43.2303 179.77 42.2903C182.54 40.6403 185.31 38.9702 188.19 37.4902C190.41 36.3802 192.47 37.5201 192.58 39.6401Z" fill="#3049E2"/>
<path d="M128.53 7.93987C128.53 9.55987 128.62 11.18 128.53 12.78C128.4 14.59 127.53 15.9198 125.53 15.8698C125.152 15.8779 124.776 15.8068 124.426 15.6608C124.077 15.5148 123.762 15.2972 123.502 15.0221C123.242 14.7471 123.043 14.4206 122.917 14.0637C122.791 13.7068 122.741 13.3273 122.77 12.9499C122.67 9.59988 122.67 6.23982 122.77 2.88982C122.743 2.51277 122.796 2.13439 122.925 1.77898C123.053 1.42358 123.255 1.09902 123.517 0.826592C123.779 0.554167 124.096 0.339869 124.446 0.197442C124.796 0.0550148 125.172 -0.0122191 125.55 -6.80209e-05C127.55 -6.80209e-05 128.42 1.27979 128.55 3.09979C128.6 4.71979 128.53 6.32987 128.53 7.93987Z" fill="#3049E2"/>
<path d="M157.8 24.4602C157.279 24.5132 156.753 24.4206 156.281 24.1924C155.809 23.9642 155.41 23.6094 155.128 23.1677C154.846 22.726 154.692 22.2149 154.684 21.6909C154.675 21.167 154.813 20.6508 155.08 20.2002C156.63 17.1002 158.45 14.1302 160.28 11.2002C160.63 10.5957 161.203 10.1525 161.876 9.96557C162.549 9.77863 163.268 9.86287 163.88 10.2002C164.178 10.3094 164.451 10.4764 164.684 10.6914C164.917 10.9064 165.106 11.1654 165.239 11.4534C165.371 11.7414 165.446 12.0527 165.458 12.3696C165.471 12.6865 165.42 13.0029 165.31 13.3003C163.743 17.072 161.689 20.622 159.2 23.8601C158.88 24.2301 158.12 24.3202 157.8 24.4602Z" fill="#3049E2"/>
<path d="M56.67 74.0903C58.4 74.0903 60.14 74.0903 61.87 74.0903C62.2466 74.0677 62.6237 74.126 62.9758 74.2614C63.3279 74.3969 63.6469 74.6063 63.9112 74.8755C64.1756 75.1446 64.3792 75.467 64.5084 75.8215C64.6376 76.176 64.6893 76.554 64.66 76.9301C64.6781 77.2765 64.6243 77.623 64.5018 77.9475C64.3794 78.272 64.191 78.5676 63.9486 78.8156C63.7062 79.0637 63.415 79.2588 63.0934 79.3886C62.7718 79.5185 62.4268 79.5804 62.0801 79.5703C58.5001 79.6403 54.9101 79.6503 51.3201 79.5703C50.9742 79.5799 50.63 79.519 50.3085 79.3913C49.9869 79.2637 49.6947 79.072 49.4496 78.8279C49.2045 78.5837 49.0117 78.292 48.8828 77.9709C48.7539 77.6499 48.6918 77.306 48.7001 76.9602C48.6696 76.585 48.7197 76.2077 48.847 75.8535C48.9744 75.4993 49.1759 75.1764 49.4382 74.9065C49.7006 74.6366 50.0176 74.4259 50.368 74.2885C50.7185 74.1512 51.0942 74.0903 51.4701 74.1101C53.2001 74.0201 54.94 74.1003 56.67 74.0903Z" fill="#3049E2"/>
<path d="M146.6 307.03C146.6 293.69 146.54 280.35 146.66 267.03C146.72 265.873 146.492 264.719 145.996 263.672C145.501 262.625 144.753 261.717 143.82 261.03C135.54 254.14 128.15 246.47 122.98 236.84C121.09 233.31 121.1 231.1 124.46 228.14C160.06 196.72 195.537 165.153 230.89 133.44C233.22 131.36 235.11 131.16 237.8 132.28C244.96 135.28 250.35 140.28 254.87 146.37C259.156 152.191 262.6 158.587 265.1 165.37C272.22 184.57 281.86 202.55 291.42 220.59C295.01 227.38 293.15 231.41 285.66 233.1C279.01 234.59 277.03 236.61 276.44 243.37C275.44 254.29 274.7 265.23 273.9 276.17C273.34 283.82 270.33 287.34 262.84 289C257.2 290.25 251.43 289.91 245.72 290.27C242.233 290.404 238.8 291.173 235.59 292.54C226.53 296.61 222.29 304.62 224.12 314.41C225.47 321.63 226.71 328.88 228.37 336.03C228.95 338.54 228.02 339.2 226.08 340.03C201.27 350.83 175.44 354.3 148.63 351.11C146.02 350.8 145.81 349.55 145.82 347.43C145.89 333.97 145.82 320.51 145.82 307.05L146.6 307.03Z" fill="#FDFDFE"/>
<path d="M128.54 114.12C128.54 108.38 128.64 102.64 128.54 96.9102C128.443 95.8111 128.607 94.7048 129.019 93.6812C129.431 92.6576 130.079 91.7458 130.91 91.0203C134.74 87.4603 138.33 83.6302 142.06 79.9602C143.63 78.4102 144.8 76.6601 142.89 74.8501C141.18 73.2101 139.5 74.3103 138.05 75.7803C134.91 78.9903 131.5 81.9601 128.61 85.3701C126.25 88.1501 124.75 87.6502 122.61 85.2402C119.61 81.8902 116.29 78.8602 113.14 75.6702C111.66 74.1702 109.95 73.2502 108.3 74.9702C106.65 76.6902 107.65 78.3403 109.14 79.8103C113.06 83.6603 116.87 87.6002 120.81 91.4302C121.461 91.9876 121.979 92.684 122.325 93.468C122.671 94.252 122.837 95.1036 122.81 95.9602C122.723 108.3 122.723 120.634 122.81 132.96C122.81 135.09 122.46 136.18 119.99 136.03C116.63 135.83 113.26 135.96 109.89 136.03C108.65 136.03 107.69 135.86 107.52 134.34C106.18 122.34 99.3301 113.5 91.8401 104.49C79.7301 89.9202 78.0001 73.1503 86.8401 56.3003C95.3501 40.0703 109.51 31.8701 127.84 32.8801C146.84 33.9301 160.02 44.3101 166.84 61.8801C173.16 78.2601 169.61 93.4003 158.04 106.33C150.86 114.33 145.35 122.92 143.97 133.75C143.76 135.45 143.09 136.1 141.36 136.04C138 135.93 134.62 135.89 131.26 136.04C129.02 136.15 128.57 135.17 128.6 133.18C128.6 126.84 128.54 120.48 128.54 114.12Z" fill="#FDFDFE"/>
<path d="M26.97 121.83C38.27 135.96 49.24 149.67 60.2 163.39C76.62 183.93 93.0233 204.477 109.41 225.03C110.22 226.03 111.91 226.92 111.33 228.34C110.83 229.56 109.1 229.11 107.9 229.27C96.7933 230.834 85.4789 229.951 74.7495 226.682C64.02 223.414 54.1349 217.839 45.7867 210.348C37.4385 202.857 30.829 193.631 26.4212 183.318C22.0134 173.004 19.9141 161.851 20.2701 150.64C20.5255 140.682 22.8051 130.879 26.97 121.83Z" fill="#FDFDFE"/>
<path d="M125.86 141.66C132.09 141.66 138.32 141.66 144.55 141.66C145.73 141.66 147.34 141.34 147.28 143.27C147.03 150.43 148.41 157.71 145.36 164.65C143.388 168.988 140.067 172.573 135.892 174.871C131.716 177.169 126.91 178.056 122.19 177.4C112.46 175.82 104.49 167.16 104 157.4C103.78 153.05 104 148.68 103.9 144.32C103.83 142.1 104.79 141.59 106.79 141.62C113.14 141.72 119.5 141.66 125.86 141.66Z" fill="#8D9DFE"/>
<path d="M73.2201 108.63C73.246 109.133 73.1326 109.634 72.8927 110.076C72.6528 110.519 72.2955 110.887 71.86 111.14C68.8733 112.92 65.8733 114.663 62.86 116.37C62.5441 116.579 62.1866 116.717 61.8123 116.775C61.4379 116.832 61.0555 116.808 60.6914 116.703C60.3274 116.598 59.9903 116.416 59.7035 116.169C59.4167 115.921 59.1869 115.615 59.03 115.27C58.831 114.983 58.6944 114.658 58.6288 114.315C58.5632 113.972 58.5703 113.619 58.6494 113.279C58.7286 112.939 58.878 112.619 59.0883 112.34C59.2985 112.061 59.5648 111.83 59.87 111.66C63.0115 109.649 66.256 107.803 69.5901 106.13C71.2601 105.29 73.1601 106.81 73.2201 108.63Z" fill="#3049E2"/>
<path d="M179.25 111.05C178.705 110.726 178.295 110.215 178.096 109.612C177.898 109.009 177.924 108.355 178.17 107.77C178.57 106.59 179.56 106.08 181.17 105.83C184.75 107.83 188.95 109.42 192.17 112.6C192.53 113.05 192.707 113.619 192.666 114.193C192.626 114.768 192.37 115.306 191.95 115.7" fill="#3049E2"/>
<path d="M194.54 79.62C192.81 79.62 191.07 79.68 189.34 79.62C188.964 79.6423 188.587 79.5841 188.236 79.4494C187.884 79.3146 187.565 79.1064 187.3 78.8385C187.035 78.5707 186.83 78.2496 186.699 77.8964C186.568 77.5432 186.514 77.166 186.54 76.7902C186.526 76.4432 186.584 76.097 186.709 75.7731C186.834 75.4492 187.025 75.1546 187.268 74.9071C187.512 74.6597 187.804 74.4648 188.126 74.3346C188.448 74.2044 188.793 74.1416 189.14 74.1501C192.73 74.0801 196.32 74.0701 199.91 74.1501C200.256 74.1433 200.6 74.2063 200.921 74.3356C201.242 74.4649 201.533 74.6576 201.778 74.9023C202.022 75.1469 202.215 75.4385 202.344 75.7594C202.474 76.0804 202.537 76.4242 202.53 76.7702C202.558 77.1459 202.505 77.5232 202.375 77.8769C202.245 78.2306 202.042 78.5527 201.778 78.8214C201.514 79.0902 201.195 79.2994 200.844 79.4355C200.492 79.5715 200.116 79.6309 199.74 79.61C198.01 79.72 196.27 79.62 194.54 79.62Z" fill="#3049E2"/>
<path d="M124.95 322.49C124.95 326.09 124.95 329.69 124.95 333.29C124.95 335.29 124.38 336.85 122.15 336.91C119.92 336.97 119.15 335.3 119.21 333.39C119.27 326.07 119.42 318.74 119.5 311.39C119.5 309.49 120.34 308.13 122.26 308.11C124.46 308.11 125.12 309.67 125.11 311.66C125.11 315.26 125.11 318.86 125.11 322.46L124.95 322.49Z" fill="#3049E2"/>
<path d="M119.69 290.36C119.69 288.49 119.63 286.62 119.69 284.76C119.665 284.356 119.724 283.951 119.865 283.571C120.006 283.191 120.224 282.845 120.507 282.555C120.79 282.265 121.13 282.037 121.506 281.886C121.882 281.736 122.285 281.665 122.69 281.68C123.07 281.684 123.444 281.767 123.79 281.923C124.136 282.079 124.445 282.305 124.699 282.587C124.953 282.869 125.145 283.201 125.264 283.561C125.383 283.921 125.426 284.302 125.39 284.68C125.45 288.41 125.39 292.14 125.29 295.87C125.22 297.67 124.29 299.05 122.29 298.93C120.29 298.81 119.57 297.45 119.59 295.57C119.61 293.69 119.59 292.09 119.59 290.35L119.69 290.36Z" fill="#3049E2"/>
</g>
<defs>
<clipPath id="clip0_212_647">
<rect width="338.1" height="371.43" fill="white"/>
</clipPath>
</defs>
</svg>
