<svg width="372" height="367" viewBox="0 0 372 367" fill="none" xmlns="http://www.w3.org/2000/svg">
<g clip-path="url(#clip0_213_668)">
<path d="M342.9 179.03C342.986 184.026 342.716 189.022 342.09 193.98C341.956 194.889 342.051 195.817 342.367 196.68C342.683 197.543 343.21 198.313 343.9 198.92C349.8 204.66 355.61 210.49 361.39 216.34C375.18 230.34 375.18 249.44 361.39 263.34C330.47 294.32 299.52 325.27 268.54 356.19C254.54 370.19 235.42 370.13 221.35 356.19C216.35 351.19 211.17 346.26 206.35 341.06C205.414 339.939 204.196 339.087 202.822 338.592C201.448 338.096 199.966 337.975 198.53 338.24C172.528 341.45 146.139 337.728 122.04 327.45C71.34 305.82 38.7 268.15 25.91 214.45C16.09 173.28 22.65 134.04 43.91 97.36C44.4474 96.6372 44.7375 95.7606 44.7375 94.86C44.7375 93.9594 44.4474 93.0827 43.91 92.36C38.6675 83.9942 35.4679 74.5118 34.5701 64.68C32.7301 42.17 49.0601 26.5801 71.5701 29.4801C80.8714 30.6418 89.801 33.8448 97.7201 38.86C99.8101 40.17 101.25 40.13 103.38 38.92C129.786 23.6902 160.054 16.4767 190.49 18.16C225.624 19.9725 259.197 33.2485 286.069 55.9557C312.941 78.6629 331.632 109.55 339.28 143.89C340.18 147.89 340.95 151.95 341.49 156.01C342.548 163.636 343.019 171.332 342.9 179.03ZM78.9 117.82C86.31 121.63 93.4501 123.82 101.18 124.28C103.93 124.43 104.62 123.82 104.44 120.87C104.03 113.94 107.02 108.43 113.27 105.24C119.52 102.05 125.71 102.24 131.33 106.32C133.251 107.724 134.855 109.516 136.04 111.58C137.225 113.643 137.963 115.932 138.207 118.299C138.451 120.666 138.196 123.058 137.457 125.32C136.719 127.582 135.514 129.663 133.92 131.43C127.33 138.78 116.15 138.94 109.02 131.72C108.02 130.72 107.19 129.9 105.57 130.01C95.4601 130.69 86.0601 128.1 77.2001 123.44C75.2801 122.44 74.6101 123.12 73.8101 124.68C71.756 128.704 70.6965 133.162 70.7201 137.68C70.7201 153.64 70.7201 169.6 70.7201 185.56C70.652 189.308 71.3524 193.031 72.7782 196.498C74.204 199.965 76.3248 203.104 79.01 205.72C128.05 254.72 177.08 303.72 226.1 352.72C237.1 363.72 252.84 363.65 263.86 352.72C295.193 321.48 326.49 290.183 357.75 258.83C368.82 247.71 368.75 231.91 357.62 220.83C308.713 171.87 259.787 122.933 210.84 74.02C208.243 71.3218 205.11 69.1952 201.644 67.7764C198.178 66.3575 194.454 65.6776 190.71 65.78C174.877 65.8934 159.043 65.8934 143.21 65.78C139.403 65.6758 135.616 66.3723 132.095 67.8245C128.574 69.2766 125.397 71.452 122.77 74.2099C113.38 83.6899 103.92 93.09 94.4801 102.51C89.4301 107.4 84.38 112.38 78.89 117.82H78.9ZM197.9 331.34C196.696 330.761 195.562 330.046 194.52 329.21C165.853 300.603 137.187 271.963 108.52 243.29C97.52 232.29 86.5201 221.2 75.4501 210.29C68.8301 203.75 65.1401 195.99 65.1101 186.66C65.0501 169.947 65.0501 153.24 65.1101 136.54C65.199 133.924 65.5338 131.323 66.1101 128.77C66.7501 125.36 70.61 122.17 69.24 119.35C67.87 116.53 63.7801 114.88 60.9601 112.63C56.5101 109.08 52.96 104.63 49.03 100.43C22.03 143.66 17.86 207.78 50.78 260.36C86.88 318.04 150.23 338.57 197.85 331.34H197.9ZM336.24 190.56C336.93 190.11 336.84 189.44 336.87 188.85C337.685 175.77 336.896 162.639 334.52 149.75C317.45 61.03 228.76 5.49994 141.84 29.0699C130.176 32.2257 118.93 36.7611 108.34 42.5799C107.03 43.2999 104.97 43.7399 107.49 45.7699C113.718 50.7828 119.118 56.7461 123.49 63.4401C124.38 64.8101 125.08 64.8899 126.43 64.0799C131.95 60.7899 138 59.78 144.36 59.81C159.08 59.89 173.8 60.04 188.51 59.81C199.66 59.61 208.69 63.48 216.51 71.4C255.277 110.413 294.153 149.313 333.14 188.1C334.08 188.99 334.77 190.28 336.19 190.56H336.24ZM119.97 68.56C119.63 67.99 119.4 67.56 119.12 67.13C114.396 60.0883 108.595 53.8321 101.93 48.59C100.39 47.37 99.34 47.8401 97.99 48.7201C80.4318 60.1921 65.3459 75.0604 53.62 92.4501C52.62 93.9901 52.42 95.1201 53.62 96.6901C58.766 103.268 64.9065 109.004 71.8201 113.69C73.3301 114.69 74.3 114.69 75.62 113.33C89.9 98.9166 104.21 84.5367 118.55 70.1901C119.05 69.6501 119.48 69.06 119.92 68.54L119.97 68.56ZM48.6901 89.49C60.9432 71.3512 76.6778 55.8274 94.9801 43.8199C84.7201 37.7499 74.44 34.1599 62.92 35.0799C57.529 35.4031 52.4031 37.5292 48.366 41.1166C44.3288 44.7039 41.6148 49.5443 40.66 54.86C38.27 67.33 42.41 78.32 48.64 89.47L48.6901 89.49Z" fill="#3049E2"/>
<path d="M362.1 169.55C362.24 171.55 361.95 173.55 359.51 173.72C356.8 173.9 356.51 171.87 356.33 169.72C352.52 112.3 326.63 67.0203 280.88 32.7203C278.95 31.2703 275.33 30.0101 277.67 26.8301C280.01 23.6501 282.37 26.7702 284.27 28.1702C325.27 58.4802 350.86 98.5001 359.93 148.84C361.104 155.689 361.829 162.607 362.1 169.55Z" fill="#3049E2"/>
<path d="M0.0100064 173.89C-0.00168529 166.912 0.362262 159.939 1.10009 153C1.10009 152.63 1.16999 152.26 1.23999 151.89C1.58999 149.89 1.89008 147.67 4.71008 148.05C7.30008 148.39 7.18999 150.46 6.98999 152.38C6.04858 160.552 5.62116 168.775 5.71008 177C6.111 197.575 9.88086 217.945 16.87 237.3C17.08 237.88 17.33 238.46 17.49 239.06C17.95 240.82 17.69 242.42 15.76 243C13.83 243.58 12.76 242.53 12.05 240.77C9.48443 234.029 7.33697 227.136 5.61999 220.13C1.81197 205.014 -0.0729158 189.478 0.0100064 173.89Z" fill="#3049E2"/>
<path d="M139.13 357.05C136.28 356.28 132.77 355.44 129.33 354.38C108.195 348 88.4816 337.623 71.2599 323.81C70.6589 323.371 70.0815 322.9 69.5299 322.4C68.3399 321.21 67.8799 319.83 69.0499 318.4C69.2618 318.081 69.5399 317.812 69.8652 317.611C70.1906 317.409 70.5556 317.28 70.9353 317.233C71.315 317.185 71.7005 317.22 72.0654 317.336C72.4304 317.451 72.7662 317.643 73.0499 317.9C73.8699 318.47 74.6499 319.09 75.4199 319.71C93.9562 334.477 115.437 345.108 138.42 350.89C139.273 351.071 140.112 351.315 140.93 351.62C141.6 351.806 142.172 352.244 142.527 352.842C142.881 353.441 142.99 354.153 142.83 354.83C142.49 356.34 141.39 357.14 139.13 357.05Z" fill="#3049E2"/>
<path d="M225.86 0.029835C235.372 2.56959 244.639 5.95311 253.55 10.1399C253.908 10.2676 254.232 10.4745 254.498 10.7452C254.765 11.0158 254.967 11.3433 255.089 11.7029C255.211 12.0626 255.25 12.4453 255.204 12.8223C255.157 13.1993 255.026 13.5608 254.82 13.8799C254.677 14.228 254.462 14.5418 254.188 14.8006C253.915 15.0593 253.59 15.2571 253.235 15.3809C252.879 15.5047 252.502 15.5518 252.127 15.5188C251.752 15.4859 251.388 15.3739 251.06 15.19C242.455 11.3574 233.585 8.14906 224.52 5.58989C224.147 5.51643 223.794 5.36373 223.484 5.14214C223.175 4.92055 222.917 4.63531 222.727 4.30547C222.538 3.97563 222.421 3.60902 222.385 3.23027C222.35 2.85153 222.395 2.46942 222.52 2.10991C222.696 1.39635 223.143 0.779667 223.767 0.391163C224.391 0.00265935 225.142 -0.127048 225.86 0.029835Z" fill="#3049E2"/>
<path d="M177.91 355.93C180.91 355.93 183.91 356.02 186.91 355.93C188.91 355.85 190.56 356.33 190.75 358.48C190.94 360.63 189.44 361.48 187.44 361.63C180.736 362.028 174.012 361.941 167.32 361.37C166.942 361.389 166.565 361.331 166.21 361.2C165.855 361.069 165.531 360.868 165.256 360.608C164.981 360.348 164.762 360.035 164.612 359.689C164.461 359.342 164.382 358.968 164.38 358.59C164.352 358.179 164.416 357.766 164.568 357.383C164.72 357 164.955 356.655 165.257 356.375C165.559 356.094 165.92 355.884 166.313 355.76C166.706 355.637 167.122 355.602 167.53 355.66C171.01 355.74 174.53 356.01 177.96 356.21L177.91 355.93Z" fill="#3049E2"/>
<path d="M15.29 116.23C13.6 122.05 11.97 127.89 10.18 133.68C10.0812 134.014 9.91374 134.323 9.68832 134.589C9.4629 134.854 9.18444 135.07 8.87094 135.221C8.55744 135.373 8.21578 135.457 7.86776 135.469C7.51974 135.481 7.17314 135.42 6.85006 135.29C6.51044 135.219 6.18834 135.081 5.90292 134.884C5.6175 134.686 5.37446 134.434 5.18808 134.142C5.0017 133.849 4.87578 133.522 4.81772 133.18C4.75965 132.838 4.77069 132.488 4.85006 132.15C6.15275 126.224 7.86691 120.397 9.98007 114.71C10.0883 114.38 10.261 114.076 10.4882 113.814C10.7155 113.552 10.9928 113.338 11.3038 113.184C11.6148 113.031 11.9532 112.94 12.2994 112.919C12.6456 112.898 12.9926 112.946 13.32 113.06C13.9882 113.242 14.5627 113.67 14.9282 114.258C15.2937 114.846 15.4229 115.55 15.29 116.23Z" fill="#3049E2"/>
<path d="M78.89 117.82C84.38 112.38 89.43 107.4 94.46 102.39C103.9 92.9701 113.36 83.57 122.75 74.09C125.377 71.3321 128.554 69.1567 132.075 67.7045C135.596 66.2523 139.383 65.5558 143.19 65.6601C159.017 65.7934 174.85 65.7934 190.69 65.6601C194.434 65.5577 198.158 66.2376 201.624 67.6564C205.091 69.0753 208.222 71.2018 210.82 73.9001C259.74 122.84 308.667 171.777 357.6 220.71C368.71 231.83 368.8 247.63 357.73 258.71C326.49 290.043 295.193 321.34 263.84 352.6C252.84 363.6 237.04 363.6 226.08 352.6C177.013 303.633 127.983 254.633 78.9899 205.6C76.3047 202.984 74.1839 199.845 72.7581 196.378C71.3324 192.911 70.6319 189.188 70.7 185.44C70.7 169.48 70.7 153.52 70.7 137.56C70.6764 133.042 71.736 128.584 73.79 124.56C74.59 123 75.26 122.31 77.18 123.32C86.04 127.98 95.44 130.57 105.55 129.89C107.17 129.78 108 130.59 109 131.6C116.13 138.82 127.31 138.66 133.9 131.31C135.494 129.543 136.699 127.462 137.437 125.2C138.176 122.938 138.431 120.546 138.187 118.179C137.943 115.812 137.205 113.523 136.02 111.46C134.835 109.396 133.231 107.604 131.31 106.2C125.69 102.12 119.31 102 113.25 105.12C107.19 108.24 104.01 113.82 104.42 120.75C104.6 123.75 103.91 124.31 101.16 124.16C93.44 123.87 86.3 121.63 78.89 117.82ZM345.55 240.3C345.55 237.16 343.86 235.61 342.26 234.01L201.78 93.5501C198.17 89.9401 197.48 89.9401 193.92 93.5001L98.68 188.73C94.98 192.44 94.9701 192.92 98.6101 196.56L137.5 235.45C171.447 269.403 205.397 303.35 239.35 337.29C243.35 341.29 246.18 341.62 249.6 338.21C280.853 307.03 312.08 275.823 343.28 244.59C344.541 243.49 345.35 241.962 345.55 240.3Z" fill="#FDFDFE"/>
<path d="M345.55 240.3C345.349 241.961 344.541 243.489 343.28 244.59C312.047 275.803 280.82 307.01 249.6 338.21C246.18 341.62 243.34 341.28 239.35 337.29C205.39 303.35 171.44 269.403 137.5 235.45L98.61 196.56C94.97 192.92 94.9799 192.44 98.6799 188.73L193.92 93.4997C197.48 89.9397 198.17 89.9397 201.78 93.5497L342.26 234.01C343.84 235.61 345.48 237.14 345.55 240.3ZM339.43 239.57C338.73 238.83 337.98 238 337.19 237.21C291.617 191.603 246.063 145.976 200.53 100.33C198.32 98.1097 197.28 98.1297 195.08 100.33C165.273 130.33 135.38 160.22 105.4 190C103.08 192.3 103.46 193.37 105.55 195.46C151.123 240.886 196.623 286.386 242.05 331.96C244.29 334.2 245.38 334.47 247.78 332.05C271.66 307.956 295.623 283.956 319.67 260.05C325.67 254.05 331.67 248.05 337.67 242.05C338.32 241.36 339.21 240.81 339.41 239.57H339.43Z" fill="#3049E2"/>
<path d="M195.76 216.22C195.291 216.259 194.819 216.173 194.395 215.97C193.97 215.767 193.607 215.454 193.343 215.064C193.079 214.674 192.924 214.22 192.894 213.75C192.863 213.28 192.959 212.811 193.17 212.39C193.725 211.425 194.435 210.557 195.27 209.82C208.37 196.687 221.483 183.567 234.61 170.46C235.244 169.681 235.996 169.006 236.84 168.46C237.383 168.135 238.024 168.015 238.647 168.121C239.271 168.228 239.836 168.554 240.24 169.04C240.699 169.477 240.976 170.071 241.015 170.704C241.054 171.336 240.852 171.96 240.45 172.45C239.836 173.227 239.168 173.958 238.45 174.64C225.43 187.68 212.4 200.71 199.36 213.73C198.31 214.79 197.45 216.14 195.76 216.22Z" fill="#3049E2"/>
<path d="M155.99 215.58C155.491 215.636 154.987 215.55 154.534 215.332C154.082 215.114 153.7 214.773 153.433 214.348C153.166 213.923 153.024 213.431 153.023 212.929C153.023 212.427 153.164 211.935 153.43 211.51C153.756 210.981 154.157 210.503 154.62 210.09C167.74 196.95 180.87 183.813 194.01 170.68C194.9 169.79 195.83 168.93 197.25 169.23C199.63 169.74 200.18 172.41 198.18 174.53C195.18 177.7 192.04 180.73 188.96 183.81L159.33 213.41C158.38 214.36 157.55 215.57 155.99 215.58Z" fill="#3049E2"/>
<path d="M200.64 130.52C200.459 131.652 199.869 132.677 198.98 133.4L161.48 170.89C160.05 172.32 158.48 173.47 156.68 171.7C154.88 169.93 155.95 168.35 157.4 166.9C169.907 154.413 182.403 141.91 194.89 129.39C196.01 128.27 197.16 127.39 198.82 127.98C199.342 128.173 199.795 128.519 200.119 128.971C200.443 129.424 200.625 129.963 200.64 130.52Z" fill="#3049E2"/>
<path d="M136.11 195.37C135.57 195.468 135.012 195.403 134.509 195.184C134.005 194.965 133.577 194.602 133.28 194.14C132.928 193.692 132.749 193.132 132.777 192.562C132.804 191.993 133.036 191.452 133.43 191.04C137.237 187.12 141.093 183.25 145 179.43C145.237 179.176 145.523 178.974 145.841 178.836C146.16 178.697 146.503 178.626 146.85 178.626C147.197 178.626 147.54 178.697 147.859 178.836C148.177 178.974 148.463 179.176 148.7 179.43C149.008 179.659 149.262 179.954 149.441 180.293C149.621 180.633 149.722 181.008 149.737 181.392C149.753 181.776 149.682 182.158 149.53 182.51C149.378 182.863 149.149 183.178 148.86 183.43C145.14 187.28 141.32 191.01 137.5 194.75C137.081 195.045 136.609 195.256 136.11 195.37Z" fill="#3049E2"/>
<path d="M207.43 164.14C206.896 164.175 206.363 164.051 205.899 163.784C205.434 163.517 205.059 163.119 204.82 162.64C204.548 162.145 204.446 161.574 204.531 161.015C204.616 160.457 204.883 159.942 205.29 159.55C208.86 155.93 212.43 152.31 216.08 148.77C216.317 148.519 216.602 148.318 216.918 148.178C217.234 148.038 217.575 147.963 217.92 147.957C218.266 147.95 218.609 148.012 218.93 148.14C219.251 148.268 219.543 148.458 219.79 148.7C220.79 149.57 221.37 150.87 220.42 152C216.812 156.242 212.873 160.192 208.64 163.81C208.31 164.05 207.71 164.02 207.43 164.14Z" fill="#3049E2"/>
<path d="M187.67 224.14C187.58 225.215 187.074 226.213 186.26 226.92C183.72 229.44 181.183 231.973 178.65 234.52C177.27 235.91 175.65 236.52 174.1 235.06C172.55 233.6 173.17 231.95 174.56 230.56C177.28 227.894 179.993 225.187 182.7 222.44C183.109 221.967 183.659 221.637 184.268 221.498C184.878 221.36 185.517 221.42 186.09 221.67C186.574 221.872 186.984 222.216 187.267 222.658C187.549 223.099 187.69 223.616 187.67 224.14Z" fill="#3049E2"/>
</g>
<defs>
<clipPath id="clip0_213_668">
<rect width="371.73" height="366.62" fill="white"/>
</clipPath>
</defs>
</svg>
