<svg width="823" height="232" viewBox="0 0 823 232" fill="none" xmlns="http://www.w3.org/2000/svg">
<rect width="232" height="232" rx="20" fill="url(#paint0_linear_109_157)"/>
<rect x="141" y="89" width="22" height="95" rx="2" fill="white"/>
<path d="M131.067 61.9228C113.654 64.5594 96.5164 81.431 92.9789 99.3399C92.073 103.921 91.6272 108.581 91.6478 113.251C91.6912 135.669 91.6044 158.095 91.7346 180.513C91.7346 183.395 90.9245 184.115 88.161 183.986C82.7571 183.77 77.3097 183.849 71.9203 183.986C69.8802 184.029 69.0266 183.712 69.0266 181.313C69.1351 156.38 68.8023 131.433 69.2075 106.501C69.7066 75.4806 95.3155 45.7284 126.01 39.7204C126.814 39.526 127.607 39.2854 128.383 39H132C132 46.4776 132 53.9553 132 61.433L131.067 61.9228Z" fill="white"/>
<path d="M127.942 122.394C127.942 125.407 127.801 128.435 127.986 131.441C128.119 133.563 127.314 134.041 125.289 133.997C120.006 133.867 114.715 133.91 109.432 133.997C107.843 133.997 106.964 133.838 107.001 131.919C107.112 125.646 107.075 119.373 107.001 113.086C107.001 111.522 107.548 110.986 109.137 111C114.671 111.065 120.22 111.094 125.74 111C127.616 111 128.008 111.725 127.956 113.369C127.86 116.36 127.942 119.381 127.942 122.394Z" fill="white"/>
<path d="M575.94 165.42C563.73 178.06 550.2 181.26 535.29 175.66C519.93 169.9 512.52 157.57 510.56 141.66C509.01 129.03 510.76 117.07 518.4 106.53C531.58 88.36 557.16 86.18 573.5 101.72C573.97 102.16 574.5 102.57 575.73 103.65V93.1801H597.35V176.79C590.99 176.79 584.72 176.9 578.47 176.66C577.59 176.66 576.22 174.95 576.06 173.89C575.69 171.54 575.94 169.06 575.94 165.42ZM575.94 134.42C576.162 131.043 575.639 127.658 574.407 124.506C573.174 121.354 571.264 118.511 568.81 116.18C565.667 113.161 561.684 111.163 557.385 110.449C553.085 109.735 548.67 110.339 544.72 112.18C536.25 116.06 531.29 125.26 531.72 136.18C532.17 146.4 537.92 155.03 546.35 158.12C561.62 163.6 575.72 152.68 575.93 134.37L575.94 134.42Z" fill="#0A0A0A"/>
<path d="M736.47 134.96C736.37 109.44 754.18 91.4901 779.66 91.4401C804.42 91.3801 822.72 109.44 822.83 134.13C822.95 159.67 804.76 178.03 779.29 178.13C753.82 178.23 736.56 160.72 736.47 134.96ZM800.77 134.78C800.77 133.45 800.86 132.11 800.77 130.78C799.92 120.6 793.67 112.94 784.31 110.54C780.25 109.543 775.985 109.785 772.064 111.234C768.143 112.683 764.746 115.273 762.31 118.67C756.38 127.36 756.03 143.17 762.67 151.18C765.61 154.73 770.4 157.95 774.83 158.82C790.05 161.79 800.83 151.42 800.77 134.79V134.78Z" fill="#0A0A0A"/>
<path d="M414.65 93.05H435.83V98.51C435.83 112.01 435.67 125.51 435.83 139C436.06 154.17 445.26 161.92 459.29 159.15C466.76 157.67 472.06 152.44 472.56 144.36C473.27 133.07 473.11 121.73 473.26 110.36C473.34 104.73 473.26 99.1001 473.26 93.1301H494.26V176.52H473.4V168.82C467 171.65 461.04 175.62 454.55 176.9C433.07 181.12 416.16 168.24 414.91 146.48C413.99 130.37 414.68 114.17 414.65 98.01V93.05Z" fill="#0A0A0A"/>
<path d="M344.94 176.61H323.68V110.53L314 109.97V93.1L323.3 92.6C323.3 81.88 324.01 71.27 333.9 64.6C341.19 59.69 349.53 58.6 358.42 59.13V75.5C354.36 77.41 349.73 78.34 347.17 81.16C344.96 83.6 345.12 88.16 344.05 92.53H359.62V110.2H344.94V176.61Z" fill="#0A0A0A"/>
<path d="M394.33 176.61H373.79V64.99H394.33V176.61Z" fill="#0A0A0A"/>
<path d="M618.54 93.1301H639.54V98.0501C639.54 122.56 639.45 147.05 639.63 171.58C639.63 175.67 638.63 177.29 634.35 176.93C630.19 176.695 626.02 176.695 621.86 176.93C619.22 177.02 617.86 176.35 617.91 173.35C618.01 147.17 617.99 121 618.03 94.8201C618.128 94.2375 618.299 93.6697 618.54 93.1301Z" fill="#0A0A0A"/>
<path d="M720.52 176.59H700.1V93.1799H720.52V176.59Z" fill="#0A0A0A"/>
<path d="M669.61 152.99C676.94 152.99 682.54 158.22 682.67 165.21C682.8 172.2 676.8 178 669.47 177.93C661.82 177.85 656.47 172.55 656.59 165.07C656.66 157.94 662 152.99 669.61 152.99Z" fill="#4B206B"/>
<path d="M639.942 65.3938C639.942 68.407 639.801 71.4346 639.986 74.4405C640.119 76.5628 639.314 77.0408 637.289 76.9974C632.006 76.867 626.715 76.9104 621.432 76.9974C619.843 76.9974 618.964 76.838 619.001 74.9186C619.112 68.646 619.075 62.3734 619.001 56.0863C619.001 54.5218 619.548 53.9858 621.137 54.0003C626.671 54.0655 632.22 54.0944 637.74 54.0003C639.616 54.0003 640.008 54.7246 639.956 56.3688C639.86 59.3602 639.942 62.3806 639.942 65.3938Z" fill="#0A0A0A"/>
<path d="M719.942 65.3938C719.942 68.407 719.801 71.4346 719.986 74.4405C720.119 76.5628 719.314 77.0408 717.289 76.9974C712.006 76.867 706.715 76.9104 701.432 76.9974C699.843 76.9974 698.964 76.838 699.001 74.9186C699.112 68.646 699.075 62.3734 699.001 56.0863C699.001 54.5218 699.548 53.9858 701.137 54.0003C706.671 54.0655 712.22 54.0944 717.74 54.0003C719.616 54.0003 720.008 54.7246 719.956 56.3688C719.86 59.3602 719.942 62.3806 719.942 65.3938Z" fill="#0A0A0A"/>
<defs>
<linearGradient id="paint0_linear_109_157" x1="53.7254" y1="51.858" x2="229.948" y2="222.388" gradientUnits="userSpaceOnUse">
<stop stop-color="#27248C"/>
<stop offset="1" stop-color="#4F1F66"/>
</linearGradient>
</defs>
</svg>
