<svg width="509" height="125" viewBox="0 0 509 125" fill="none" xmlns="http://www.w3.org/2000/svg">
<path d="M261.94 111.42C249.73 124.06 236.2 127.26 221.29 121.66C205.93 115.9 198.52 103.57 196.56 87.66C195.01 75.03 196.76 63.07 204.4 52.53C217.58 34.36 243.16 32.18 259.5 47.72C259.97 48.16 260.5 48.57 261.73 49.65V39.1801H283.35V122.79C276.99 122.79 270.72 122.9 264.47 122.66C263.59 122.66 262.22 120.95 262.06 119.89C261.69 117.54 261.94 115.06 261.94 111.42ZM261.94 80.4201C262.162 77.0429 261.639 73.6581 260.407 70.5059C259.174 67.3537 257.264 64.5112 254.81 62.1801C251.667 59.1608 247.684 57.1629 243.385 56.449C239.085 55.7351 234.67 56.3386 230.72 58.1801C222.25 62.0601 217.29 71.2601 217.72 82.1801C218.17 92.4001 223.92 101.03 232.35 104.12C247.62 109.6 261.72 98.6801 261.93 80.3701L261.94 80.4201Z" fill="#0A0A0A"/>
<path d="M422.47 80.96C422.37 55.44 440.18 37.4901 465.66 37.4401C490.42 37.3801 508.72 55.4401 508.83 80.1301C508.95 105.67 490.76 124.03 465.29 124.13C439.82 124.23 422.56 106.72 422.47 80.96ZM486.77 80.7801C486.77 79.4501 486.86 78.1101 486.77 76.7801C485.92 66.6001 479.67 58.9401 470.31 56.5401C466.25 55.5433 461.985 55.785 458.064 57.234C454.143 58.683 450.746 61.2729 448.31 64.6701C442.38 73.3601 442.03 89.1701 448.67 97.1801C451.61 100.73 456.4 103.95 460.83 104.82C476.05 107.79 486.83 97.4201 486.77 80.7901V80.7801Z" fill="#0A0A0A"/>
<path d="M100.65 39.05H121.83V44.51C121.83 58.01 121.67 71.5101 121.83 85.0001C122.06 100.17 131.26 107.92 145.29 105.15C152.76 103.67 158.06 98.44 158.56 90.36C159.27 79.07 159.11 67.73 159.26 56.36C159.34 50.73 159.26 45.1001 159.26 39.1301H180.26V122.52H159.4V114.82C153 117.65 147.04 121.62 140.55 122.9C119.07 127.12 102.16 114.24 100.91 92.48C99.99 76.37 100.68 60.17 100.65 44.01V39.05Z" fill="#0A0A0A"/>
<path d="M30.9399 122.61H9.68005V56.53L0 55.97V39.1L9.30005 38.6C9.30005 27.88 10.01 17.27 19.9 10.6C27.19 5.69001 35.53 4.60004 44.42 5.13004V21.5C40.36 23.41 35.73 24.34 33.17 27.16C30.96 29.6 31.12 34.16 30.05 38.53H45.62V56.2H30.9399V122.61Z" fill="#0A0A0A"/>
<path d="M80.33 122.61H59.79V10.99H80.33V122.61Z" fill="#0A0A0A"/>
<path d="M304.54 39.1301H325.54V44.0501C325.54 68.5601 325.45 93.0501 325.63 117.58C325.63 121.67 324.63 123.29 320.35 122.93C316.19 122.695 312.02 122.695 307.86 122.93C305.22 123.02 303.86 122.35 303.91 119.35C304.01 93.1701 303.99 67.0001 304.03 40.8201C304.128 40.2375 304.299 39.6697 304.54 39.1301Z" fill="#0A0A0A"/>
<path d="M406.52 122.59H386.1V39.1799H406.52V122.59Z" fill="#0A0A0A"/>
<path d="M355.61 98.99C362.94 98.99 368.54 104.22 368.67 111.21C368.8 118.2 362.8 124 355.47 123.93C347.82 123.85 342.47 118.55 342.59 111.07C342.66 103.94 348 98.99 355.61 98.99Z" fill="#4B206B"/>
<path d="M325.942 11.3938C325.942 14.407 325.801 17.4346 325.986 20.4405C326.119 22.5628 325.314 23.0408 323.289 22.9974C318.006 22.867 312.715 22.9104 307.432 22.9974C305.843 22.9974 304.964 22.838 305.001 20.9186C305.112 14.646 305.075 8.3734 305.001 2.08632C305.001 0.521797 305.548 -0.0142015 307.137 0.000284833C312.671 0.0654734 318.22 0.0944461 323.74 0.000284833C325.616 0.000284833 326.008 0.724616 325.956 2.36882C325.86 5.36025 325.942 8.38064 325.942 11.3938Z" fill="#0A0A0A"/>
<path d="M405.942 11.3938C405.942 14.407 405.801 17.4346 405.986 20.4405C406.119 22.5628 405.314 23.0408 403.289 22.9974C398.006 22.867 392.715 22.9104 387.432 22.9974C385.843 22.9974 384.964 22.838 385.001 20.9186C385.112 14.646 385.075 8.3734 385.001 2.08632C385.001 0.521797 385.548 -0.0142015 387.137 0.000284833C392.671 0.0654734 398.22 0.0944461 403.74 0.000284833C405.616 0.000284833 406.008 0.724616 405.956 2.36882C405.86 5.36025 405.942 8.38064 405.942 11.3938Z" fill="#0A0A0A"/>
</svg>
