<svg width="232" height="232" viewBox="0 0 232 232" fill="none" xmlns="http://www.w3.org/2000/svg">
<rect width="232" height="232" rx="20" fill="url(#paint0_linear_144_31)"/>
<rect x="141" y="89" width="22" height="95" rx="2" fill="white"/>
<path d="M131.067 61.9228C113.654 64.5594 96.5164 81.431 92.9789 99.3399C92.0731 103.921 91.6272 108.581 91.6478 113.251C91.6912 135.669 91.6044 158.095 91.7346 180.513C91.7346 183.395 90.9245 184.115 88.161 183.986C82.7571 183.77 77.3097 183.849 71.9203 183.986C69.8802 184.029 69.0266 183.712 69.0266 181.313C69.1351 156.38 68.8023 131.433 69.2075 106.501C69.7066 75.4806 95.3155 45.7284 126.01 39.7204C126.814 39.526 127.607 39.2854 128.383 39H132C132 46.4776 132 53.9553 132 61.433L131.067 61.9228Z" fill="white"/>
<path d="M127.942 122.394C127.942 125.407 127.801 128.435 127.986 131.441C128.119 133.563 127.314 134.041 125.289 133.997C120.006 133.867 114.715 133.91 109.432 133.997C107.843 133.997 106.964 133.838 107.001 131.919C107.112 125.646 107.075 119.373 107.001 113.086C107.001 111.522 107.548 110.986 109.137 111C114.671 111.065 120.22 111.094 125.74 111C127.616 111 128.008 111.725 127.956 113.369C127.86 116.36 127.942 119.381 127.942 122.394Z" fill="white"/>
<defs>
<linearGradient id="paint0_linear_144_31" x1="53.7254" y1="51.858" x2="229.948" y2="222.388" gradientUnits="userSpaceOnUse">
<stop stop-color="#27248C"/>
<stop offset="1" stop-color="#4F1F66"/>
</linearGradient>
</defs>
</svg>
