<svg width="277" height="277" viewBox="0 0 277 277" fill="none" xmlns="http://www.w3.org/2000/svg">
<rect width="277" height="277" rx="16" fill="#D9D9D9"/>
<path fill-rule="evenodd" clip-rule="evenodd" d="M166.413 46.9995C161.876 46.9503 157.909 42.6397 158.002 37.8591C158.095 33.0415 161.909 28.9953 166.35 29C171.251 29.0057 175.057 33.0026 174.999 38.0808C174.945 42.9666 171.014 47.0498 166.413 46.9995Z" fill="#272727"/>
<path fill-rule="evenodd" clip-rule="evenodd" d="M109.117 46.9987C104.328 47.084 100.09 42.944 100.001 38.0921C99.9123 33.2052 103.898 29.1248 108.878 29.0025C113.728 28.8841 117.882 32.9142 117.998 37.8504C118.11 42.6208 113.945 46.9115 109.117 46.9987Z" fill="#272727"/>
<path fill-rule="evenodd" clip-rule="evenodd" d="M67.4815 49.0001C71.3736 48.9742 74.8956 52.4471 74.9979 56.4111C75.0983 60.2683 71.5698 63.8898 67.607 63.9974C63.6117 64.1061 60.1036 60.739 60.0022 56.6988C59.8999 52.5928 63.3616 49.028 67.4815 49.0001Z" fill="#272727"/>
<path fill-rule="evenodd" clip-rule="evenodd" d="M207.533 49.0001C211.599 49.0186 215.067 52.6061 214.999 56.7209C214.935 60.5896 211.572 63.9226 207.655 63.9988C203.619 64.0768 199.944 60.4271 200.001 56.3978C200.055 52.5012 203.638 48.9815 207.533 49.0001Z" fill="#272727"/>
<path fill-rule="evenodd" clip-rule="evenodd" d="M85.2862 71.5066C79.539 71.2051 74.2499 72.0084 70.5227 76.2339C68.0004 79.0931 66.3282 82.742 64.5703 86.185C63.7139 87.8628 63.0894 89.5571 60.8808 88.8111C58.8314 88.1188 58.79 86.3226 59.215 84.4799C61.9478 72.6315 74.1708 64.7125 86.4333 66.7227C87.2915 66.8639 88.502 66.0933 89.2618 65.4266C93.2181 61.9526 96.696 57.7963 101.054 54.9472C112.531 47.4444 123.616 48.7788 135.358 56.8991C136.025 57.36 136.626 57.9147 137.324 58.4785C141.523 54.6338 146.677 52.7593 151.926 51.0842C158.525 48.9792 164.801 50.1269 170.864 53.0553C176.83 55.9354 181.857 59.9769 185.726 65.3246C186.73 66.7118 187.652 67.0433 189.368 66.6918C200.707 64.3745 214.277 73.7236 215.98 85.1057C216.152 86.2533 215.174 88.2563 214.174 88.7418C212.321 89.6408 211.471 88.0313 210.658 86.3863C208.983 82.9998 207.409 79.4074 204.986 76.5773C201.181 72.1332 195.791 71.1313 190.436 71.4974C190.614 75.0152 191.087 78.2533 190.83 81.4322C190.662 83.4953 189.687 85.6358 188.548 87.4101C188.086 88.1297 186.222 87.9667 184.997 88.2053C184.776 87.0786 184.015 85.6831 184.426 84.8698C186.582 80.606 185.967 76.4798 183.892 72.5823C180.176 65.6024 174.58 60.4041 167.21 57.3691C157.754 53.4743 149.241 56.0976 141.393 61.764C140.334 62.5292 139.656 63.8654 138.927 65.0158C138.014 66.4577 137.244 66.7009 136.013 65.2608C125.166 52.5753 109.46 52.2656 97.2958 64.5777C93.2871 68.6355 89.5875 73.024 89.5948 79.1614C89.5967 80.9039 90.0363 82.7329 90.6858 84.3624C91.3379 86.0001 91.7555 87.6798 89.8892 88.2199C88.8203 88.5287 86.7138 87.7135 86.1003 86.7589C83.671 82.9779 83.5413 78.7215 84.5393 74.4158C84.738 73.5533 84.9781 72.6998 85.2862 71.5066Z" fill="#272727"/>
<path fill-rule="evenodd" clip-rule="evenodd" d="M85.7714 156.131C81.6459 149.828 82.5011 143.477 85.8977 137.342C88.6308 132.404 93.3036 130.748 98.7459 130.978C99.3661 131.005 100.239 131.113 100.534 131.518C101.217 132.454 102.047 133.628 101.966 134.638C101.92 135.208 100.138 136.145 99.2251 136.054C95.2655 135.658 91.9601 136.564 90.2452 140.361C88.288 144.696 87.2476 149.392 90.7124 153.361C98.4206 162.191 115.26 166.574 126.759 156.294C132.416 151.237 135.003 144.793 133.163 137.208C131.65 130.972 125.605 128.291 119.747 130.9C116.148 132.502 114.258 138.289 116.505 141.486C117.138 142.387 118.693 142.596 119.711 143.291C120.586 143.888 121.297 144.724 122.082 145.454C121.307 146.247 120.67 147.449 119.735 147.758C116.487 148.833 113.038 147.181 111.468 143.969C108.973 138.863 109.862 133.993 112.886 129.012C111.519 128.651 110.262 128.283 108.987 127.992C104.478 126.958 100.598 124.836 97.3259 121.548C95.3171 119.529 93.2253 117.588 91.0985 115.692C87.6365 112.606 83.5847 110.766 78.9497 110.306C76.6791 110.081 74.5256 110.265 73.0402 112.384C71.9971 113.873 70.5799 114.482 69.0456 113.251C67.4662 111.983 67.6348 110.277 68.7728 108.824C71.2415 105.671 74.7238 104.178 78.5276 104.877C82.4412 105.595 86.1962 107.191 90.0019 108.458C90.752 108.707 91.4183 109.209 92.1103 109.588C92.7498 106.93 93.1718 104.391 93.9791 101.982C95.7262 96.7688 99.0951 92.9065 104.204 90.6809C105.866 89.9569 107.745 89.311 108.817 91.336C109.982 93.5385 108.394 94.8367 106.562 95.5341C98.7662 98.503 94.3983 111.805 102.73 119.067C110.293 125.659 126.333 124.777 132.879 117.189C135.097 114.618 135.392 111.523 134.655 108.361C134.506 107.723 133.524 106.978 132.808 106.818C124.057 104.866 117.989 98.3852 116.492 89.5668C115.958 86.4258 115.4 83.1257 113.97 80.3518C112.843 78.1649 110.533 76.4252 108.421 74.9605C107.019 73.988 105.368 73.1848 106.405 71.5242C107.002 70.5674 109.415 69.6713 110.252 70.1285C113.158 71.7174 115.732 73.9098 118.724 76.0857C119.264 75.6643 120.297 74.6274 121.53 73.9586C123.127 73.0919 124.872 73.1471 125.877 74.8878C126.792 76.4721 125.875 77.6405 124.473 78.533C122.424 79.8375 121.785 81.7908 121.637 84.1635C121.378 88.3846 122.524 92.2284 124.669 95.7052C127.118 99.6751 130.802 101.668 135.589 102.19C149.844 103.741 155.582 93.7649 154.676 82.8828C154.552 81.385 153.234 79.7777 152.066 78.6305C150.853 77.4409 149.591 76.4693 150.757 74.7489C151.881 73.0892 153.58 73.1241 155.162 74.057C156.25 74.6992 157.173 75.6192 158.338 76.5494C158.872 75.8943 159.32 75.0847 159.992 74.5649C162.074 72.9604 164.103 71.1682 166.447 70.0853C167.303 69.6906 169.569 70.7385 170.16 71.7367C171.08 73.2916 169.622 74.2723 168.1 74.8952C162.674 77.117 161.08 81.9214 160.455 87.0616C159.712 93.1595 157.517 98.3687 152.824 102.461C150.116 104.823 147.105 106.371 143.493 106.857C142.658 106.97 141.407 107.862 141.266 108.577C140.649 111.695 140.809 114.631 143.475 117.107C150.646 123.77 161.304 125.565 170.146 121.344C175.232 118.917 178.287 114.99 178.235 109.25C178.183 103.582 176.012 98.8802 170.824 95.9794C169.015 94.9673 166.559 94.3528 167.607 91.4602C168.283 89.5953 170.505 89.622 173.669 91.3259C179.269 94.3426 182.155 99.274 183.518 105.261C183.822 106.596 183.939 107.971 184.185 109.619C184.877 109.281 185.456 108.929 186.081 108.706C189.776 107.396 193.402 105.752 197.206 104.928C200.961 104.116 204.529 105.311 207.256 108.227C208.648 109.716 209.238 111.562 207.577 113.116C205.864 114.719 204.671 113.315 203.16 112.176C201.7 111.078 199.545 110.331 197.727 110.39C193.507 110.528 189.668 112.152 186.411 114.919C184.591 116.466 182.711 117.979 181.103 119.731C176.713 124.517 171.436 127.573 164.981 128.552C164.551 128.617 164.148 128.863 163.633 129.064C166.583 133.689 167.5 138.48 165.266 143.546C163.668 147.169 159.825 149.004 156.44 147.661C155.614 147.333 154.761 146.195 154.63 145.322C154.544 144.752 155.665 143.503 156.368 143.402C158.752 143.056 160.389 142.126 160.684 139.587C161.024 136.657 160.821 133.82 158.31 131.801C154.175 128.476 147.589 129.956 144.522 134.273C139.824 140.887 143.743 150.086 148.373 154.944C159.867 167.001 178.009 162.55 185.966 153.144C189.252 149.258 188.2 144.595 186.269 140.348C184.541 136.547 181.25 135.687 177.284 136.036C176.337 136.12 175.263 134.782 174.248 134.099C175.247 133.073 176.086 131.446 177.276 131.128C181.924 129.887 188.16 132.953 190.679 137.338C194.195 143.454 194.247 149.105 190.678 156.529C191.95 157.284 193.197 158.194 194.575 158.812C203.56 162.844 212.804 163.704 222.272 160.744C228.851 158.686 233.586 154.744 235.102 147.678C236.062 143.211 234.689 139.449 231.36 136.509C227.424 133.033 220.958 134.504 219.843 139.153C219.527 140.47 220.122 142.371 220.969 143.504C221.955 144.826 222.991 146.153 221.62 147.242C220.687 147.985 218.509 148.212 217.504 147.622C214.405 145.806 213.76 142.635 214.078 139.382C211.242 138.652 208.335 138.22 205.71 137.116C203.952 136.378 202.297 134.909 201.134 133.364C199.68 131.433 200.699 128.503 202.727 128.217C203.594 128.094 205.024 128.633 205.463 129.331C208.011 133.384 211.952 134.858 216.309 133.112C219.608 131.789 223.039 130.706 226.144 129.024C227.473 128.303 228.484 126.457 229.021 124.909C231.286 118.383 228.857 110.816 223.516 106.216C222.696 105.51 221.996 103.721 222.325 102.834C222.953 101.141 224.767 100.959 226.3 101.815C227.474 102.471 228.627 103.351 229.465 104.391C235.69 112.126 236.964 120.51 232.526 129.562C232.412 129.793 232.359 130.054 232.259 130.357C238.252 134.196 241.672 139.598 240.889 146.732C239.939 155.382 235.074 161.48 226.969 164.759C213.311 170.284 200.342 168.574 188.034 160.745C187.73 160.552 187.408 160.388 187.031 160.173C178.768 165.806 169.869 169.18 159.74 167.053C149.694 164.943 142.432 159.097 137.982 149.827C131.467 166.691 109.197 174.394 89.4371 160.168C83.6115 164.454 76.8533 166.753 69.6888 167.679C61.635 168.718 53.9075 167.221 46.7365 163.387C42.1226 160.919 38.7334 157.237 37.0093 152.214C36.2242 149.927 34.9517 147.576 35.0014 145.278C35.1249 139.685 38.1169 135.316 42.2949 131.743C42.9105 131.216 43.6366 130.819 44.2927 130.374C39.619 121.231 40.5782 112.72 46.7254 104.775C47.6506 103.579 48.9103 102.328 50.2722 101.878C51.3863 101.511 53.3408 101.871 54.1047 102.679C55.275 103.916 54.383 105.27 53.0238 106.329C46.9899 111.025 44.783 120.779 48.4532 126.952C49.0937 128.029 50.5441 128.736 51.7567 129.341C53.7112 130.317 55.8712 130.898 57.7777 131.948C61.3116 133.892 64.8657 134.598 68.5222 132.564C69.4501 132.048 69.9763 130.851 70.7835 130.066C71.5575 129.314 72.5113 128.094 73.2899 128.163C74.1967 128.243 75.683 129.484 75.7015 130.25C75.7383 131.737 75.3292 133.602 74.3819 134.674C72.0496 137.314 68.794 138.443 65.297 138.759C64.4004 138.84 63.4909 138.772 62.9804 138.772C62.3658 141.195 62.1667 143.454 61.1946 145.311C60.5191 146.601 58.901 147.653 57.4699 148.188C56.7401 148.461 55.1284 147.602 54.605 146.803C54.2217 146.219 54.6299 144.467 55.2593 143.988C57.27 142.457 57.4285 140.658 56.5752 138.62C55.674 136.466 54.1618 134.992 51.6231 134.854C44.9617 134.49 39.9304 140.378 41.2813 147.16C42.3226 152.386 44.9949 156.619 49.9414 158.925C61.5208 164.32 72.9435 163.522 84.1358 157.644C84.5385 157.433 84.8997 157.137 85.2582 156.853C85.3964 156.746 85.4729 156.561 85.7714 156.131ZM131.142 125.324C133.582 128.008 135.908 130.568 137.868 132.724C140.326 130.326 142.916 127.796 145.41 125.361C142.998 123.543 140.368 121.561 137.914 119.709C135.59 121.635 133.225 123.598 131.142 125.324Z" fill="#272727"/>
<path fill-rule="evenodd" clip-rule="evenodd" d="M39 176.115C43.5706 178.251 48.0628 181.085 52.9748 182.485C62.0025 185.055 70.6196 182.283 79.0089 178.943C84.7457 176.659 90.5212 174.401 96.8983 175.144C103.439 175.906 109.734 177.576 115.541 180.733C121.111 183.762 126.601 186.875 133.194 187.344C140.7 187.877 147.837 187.052 154.569 183.392C158.582 181.211 162.761 179.256 167.033 177.625C176.605 173.972 186.052 174.427 195.452 178.676C201.057 181.211 206.948 183.049 213.236 183.327C219.793 183.619 225.858 182.326 231.253 178.493C232.733 177.442 234.243 176.432 236 175.573C235.004 179.062 234.981 182.864 230.96 184.959C222.309 189.466 213.327 189.745 204.131 187.317C200.409 186.334 196.656 185.207 193.194 183.577C182.66 178.621 172.607 180.375 162.657 185.132C161.084 185.884 159.579 186.774 158.035 187.585C144.315 194.799 130.614 194.813 116.876 187.579C113.636 185.872 110.345 184.194 106.922 182.9C98.3689 179.666 89.94 179.831 81.4631 183.696C75.0186 186.635 68.1876 188.964 60.9738 188.677C56.3524 188.493 51.6351 187.694 47.2131 186.359C41.479 184.629 39.6643 181.742 39 176.115Z" fill="#272727"/>
<path fill-rule="evenodd" clip-rule="evenodd" d="M56 211.065C65.0704 212.568 72.373 209.514 79.4864 205.418C89.0333 199.919 98.6164 201.763 107.975 205.971C111.84 207.709 115.344 210.239 119.136 212.164C131.74 218.566 144.364 218.534 156.919 211.958C163.042 208.752 168.682 204.66 175.658 203.097C183.336 201.377 190.481 201.89 197.308 206.02C203.943 210.034 211.019 212.456 219 211.178C216.72 216.505 214.618 217.909 209.241 216.498C204.724 215.313 200.046 213.915 196.107 211.508C186.314 205.524 176.997 207.153 167.704 212.172C161.27 215.646 155.033 219.441 147.72 220.928C137.908 222.924 128.38 222.22 119.242 218.082C115.205 216.254 111.403 213.913 107.462 211.87C100.897 208.467 94.0423 206.459 86.6341 208.392C84.5278 208.942 82.5234 210.041 80.5988 211.114C75.5454 213.934 70.3093 216.073 64.5114 216.872C61.6755 217.262 59.699 216.653 58.313 214.095C57.8106 213.162 57.0235 212.385 56 211.065Z" fill="#272727"/>
<path fill-rule="evenodd" clip-rule="evenodd" d="M85 236.63C94.2841 232.276 103.543 230.05 113.216 234.213C116.248 235.519 119.109 237.325 121.873 239.176C132.142 246.051 142.956 246.118 153.219 239.16C158.407 235.642 163.749 232.594 170.166 232.129C176.317 231.683 183.869 233.357 190 236.724C187.32 238.656 185.077 240.483 181.286 239.134C172.905 236.15 164.928 237.514 157.681 242.86C151.948 247.091 145.616 249.709 138.49 249.979C131.529 250.242 125.232 248.047 119.454 244.211C114.724 241.07 110.025 237.739 104.091 237.783C100.895 237.807 97.4996 237.861 94.5634 238.942C90.7495 240.348 88.0306 239.189 85 236.63Z" fill="#272727"/>
</svg>
