<svg width="644" height="241" viewBox="0 0 644 241" fill="none" xmlns="http://www.w3.org/2000/svg">
<path fill-rule="evenodd" clip-rule="evenodd" d="M61.009 87.1111C62.784 82.6501 63.883 78.0471 66.325 74.3261C68.292 71.3301 71.751 69.2141 74.804 67.0711C76.546 65.8491 78.934 65.3561 80.136 68.0291C81.257 70.5231 79.357 71.7021 77.506 72.5941C71.407 75.5321 68.848 80.6771 68.6 87.0981C68.394 92.4531 70.958 96.5271 75.41 99.3341C83.913 104.696 97.191 103.756 104.565 96.9751C106.311 95.3691 107.521 92.6931 108.007 90.3111C108.837 86.2491 107.908 85.6071 103.976 84.4221C95.348 81.8231 90.351 75.7561 88.297 67.1401C87.604 64.2311 87.304 61.2171 86.469 58.3551C85.365 54.5691 83.174 51.5001 79.291 50.0541C77.424 49.3591 76.046 48.0321 77.124 46.2921C77.793 45.2101 80.231 44.1411 81.242 44.5671C83.732 45.6181 85.897 47.4811 88.104 49.1361C88.867 49.7071 89.366 50.6301 89.888 51.2721C91.619 50.2371 93.121 48.8711 94.845 48.4801C95.95 48.2291 97.739 49.1181 98.533 50.0691C98.996 50.6251 98.5 52.8911 97.759 53.3961C92.118 57.2441 93.391 62.6771 95.024 67.4751C99.098 79.4471 106.813 81.4871 118.797 78.3311C125.673 76.5201 128.252 69.9171 129.052 63.0781C129.498 59.2651 129.214 55.7161 125.379 53.3451C124.662 52.9021 124.185 50.5851 124.652 50.0441C125.46 49.1091 127.218 48.2791 128.351 48.5111C129.99 48.8471 131.428 50.1691 132.989 51.0921C134.928 49.3611 136.897 47.2541 139.221 45.6691C140.496 44.8001 142.389 44.4831 143.971 44.5651C144.801 44.6081 146.078 45.9751 146.2 46.8741C146.317 47.7381 145.418 49.3251 144.599 49.6401C137.968 52.1861 136.153 57.7931 135.436 63.9461C134.616 70.9901 131.696 76.8291 125.988 80.9681C123.638 82.6721 120.744 83.8481 117.921 84.5991C115.987 85.1141 115.136 85.9321 115.009 87.6931C114.755 91.2251 115.464 94.4101 118.299 96.8991C125.924 103.594 139.205 104.722 147.791 99.3391C156.755 93.7181 156.694 79.5621 147.678 73.7131C147.26 73.4421 146.829 73.1841 146.389 72.9491C142.918 71.0921 141.81 69.4541 143.102 67.6851C145.073 64.9881 147.382 66.4601 149.501 67.5501C156.764 71.2831 159.863 77.7461 161.054 85.4231C161.131 85.9141 161.163 86.4121 161.227 86.9061C161.239 87.0011 161.305 87.0891 161.209 86.8761C165.64 85.3911 169.959 83.6221 174.443 82.5351C178.612 81.5241 182.687 82.5141 185.802 85.6521C186.803 86.6601 187.365 88.3681 187.536 89.8261C187.623 90.5711 186.56 91.8721 185.735 92.1881C184.919 92.5011 183.262 92.2441 182.813 91.6261C179.796 87.4791 175.685 88.1001 171.963 89.5161C168.313 90.9051 164.587 92.8351 161.739 95.4481C155.141 101.501 149.013 108.045 140.156 108.501C140.793 112.881 141.958 116.865 141.806 120.797C141.58 126.673 137.247 130.278 132.291 129.701C130.434 129.485 128.668 128.74 128.884 126.739C128.987 125.79 130.641 124.558 131.798 124.265C134.585 123.559 135.398 121.684 135.626 119.229C135.967 115.549 134.302 112.288 131.305 111.069C127.678 109.595 123.927 109.416 120.76 111.92C117.021 114.878 115.792 119.126 116.39 123.753C117.999 136.19 128.206 145.044 140.816 144.757C148.976 144.572 156.314 141.973 162.155 135.97C165.49 132.543 165.989 127.156 163.529 121.673C161.79 117.799 159.188 116.646 153.654 116.704C152.529 116.716 150.672 115.555 150.402 114.586C149.811 112.468 151.552 111.411 153.447 110.932C158.258 109.714 165.279 112.599 167.99 117.27C171.628 123.538 172.982 130.124 169.274 136.916C168.527 138.284 168.727 139.088 170.042 139.828C181.659 146.368 197.31 147.271 208.726 140.298C215.33 136.264 218.177 128.214 215.706 121.922C213.857 117.211 210.808 115.262 205.793 115.367C203.021 115.425 201.299 116.876 200.245 119.209C199.239 121.436 199.583 123.321 201.596 125.095C202.319 125.733 202.578 127.927 202.036 128.694C201.444 129.529 199.529 130.087 198.45 129.797C195.117 128.903 194.107 125.96 193.469 122.937C193.268 121.985 193.28 120.988 193.262 120.785C189.157 119.212 185.39 118.042 181.888 116.33C179.656 115.239 178.161 113.017 179.026 110.35C179.386 109.243 180.704 108.157 181.842 107.707C182.456 107.465 183.96 108.359 184.46 109.131C187.216 113.39 191.206 114.981 195.745 113.239C199.451 111.817 203.138 110.329 206.747 108.681C207.636 108.275 208.365 107.229 208.867 106.312C212.386 99.8891 210.377 89.8961 204.571 84.9091C202.958 83.5221 200.881 82.3621 202.648 79.8331C203.926 78.0051 206.57 78.2801 209.02 80.3421C216.002 86.2191 218.773 98.8591 214.943 107.382C214.538 108.283 214.097 109.167 213.922 109.533C216.374 112.461 219.051 114.839 220.71 117.79C226.114 127.402 221.946 140.066 211.369 146.025C199.791 152.548 187.603 153.019 175.211 148.504C172.319 147.45 169.379 146.244 166.87 144.514C164.813 143.096 163.49 143.35 161.617 144.575C154.389 149.302 146.454 151.931 137.781 150.895C126.205 149.512 117.275 144.005 112.284 133.042C112.126 132.695 111.881 132.388 111.664 132.042C110.084 134.585 108.866 137.282 107.005 139.419C98.03 149.726 86.736 153.315 73.538 149.806C69.364 148.697 65.412 146.565 61.553 144.533C59.595 143.503 58.383 143.258 56.276 144.5C42.544 152.594 28.24 153.874 13.592 147.073C6.28702 143.682 1.93003 137.722 0.383025 129.915C-1.07197 122.57 1.70103 116.597 7.29603 111.831C7.97103 111.256 8.74203 110.794 9.51603 110.248C4.45803 100.204 5.56903 90.8471 12.433 82.1951C13.507 80.8411 15.038 79.4911 16.621 79.0191C17.783 78.6731 19.763 79.4111 20.62 80.3541C21.092 80.8741 20.408 83.3091 19.539 84.0391C13.45 89.1531 11.712 95.6641 13.102 103.161C13.682 106.286 14.996 108.915 18.909 109.404C20.886 109.652 22.788 110.912 24.605 111.925C28.222 113.943 31.914 114.738 35.722 112.709C36.765 112.153 37.769 111.096 38.258 110.026C39.019 108.359 39.905 107.169 41.825 107.744C43.83 108.345 44.977 110.143 44.259 111.924C43.493 113.822 42.086 115.955 40.365 116.866C37.281 118.499 33.752 119.295 29.931 120.604C29.759 121.571 29.865 123.545 29.037 124.982C27.961 126.849 26.325 128.551 24.55 129.774C23.899 130.223 21.654 129.448 21.078 128.596C20.557 127.823 20.869 125.695 21.601 125.024C23.455 123.326 23.916 121.584 22.955 119.415C21.925 117.09 20.333 115.487 17.55 115.365C10.697 115.063 5.36403 121.194 6.61503 128.157C7.72803 134.351 10.927 139.091 16.83 141.668C28.902 146.938 40.746 146.035 52.395 140.239C54.311 139.286 54.607 138.328 53.537 136.283C47.831 125.388 55.35 111.339 67.113 110.791C68.538 110.724 70.218 110.999 71.362 111.75C72.19 112.293 72.885 114.064 72.605 114.966C72.344 115.807 70.709 116.755 69.692 116.74C63.572 116.653 61.117 117.857 59.317 122.287C57.008 127.971 57.843 133.149 61.634 136.666C73.191 147.388 90.932 147.575 100.843 136.844C105.771 131.508 108.065 125.082 106.181 117.786C104.498 111.265 98.296 108.379 92.053 110.919C88.111 112.524 85.944 118.988 88.439 122.357C89.155 123.324 90.84 123.523 91.965 124.253C92.881 124.847 94.417 125.932 94.283 126.405C93.958 127.552 93.021 128.962 91.974 129.388C88.78 130.687 84.715 128.985 82.955 125.867C80.287 121.139 80.533 116.307 82.658 111.462C83.011 110.659 83.426 109.883 83.898 108.917C81.71 108.342 79.685 107.846 77.68 107.273C71.742 105.578 67.597 101.331 63.43 97.1471C58.942 92.6421 53.904 89.2511 47.35 88.6741C44.829 88.4521 42.607 88.7771 40.977 91.0371C39.825 92.6341 37.954 93.3121 36.663 91.7461C35.825 90.7301 35.451 88.3921 36.053 87.2981C38.055 83.6671 41.762 81.8961 45.651 82.3911C50.116 82.9611 54.446 84.6451 58.809 85.9321C59.741 86.2131 60.554 86.8611 61.009 87.1111ZM118.746 104.871C116.426 102.945 113.938 100.881 111.55 98.8991C109.051 101.007 106.651 103.032 104.452 104.887C106.937 107.602 109.36 110.248 111.579 112.672C113.891 110.155 116.275 107.56 118.746 104.871Z" fill="url(#paint0_linear_2_3308)"/>
<path fill-rule="evenodd" clip-rule="evenodd" d="M533.133 98.6231C533.973 98.9901 534.423 99.0481 534.483 99.2341C536.067 104.071 540.383 105.427 544.457 107.026C553.353 110.517 562.518 111.378 571.793 109.024C574.82 108.255 577.866 106.898 580.43 105.126C584.072 102.609 583.547 97.2581 579.448 95.6601C575.982 94.3091 572.154 93.6981 568.427 93.2481C560.305 92.2681 552.079 92.0031 544.014 90.7091C532.096 88.7991 525.82 81.1461 526.345 69.9341C526.661 63.1821 529.918 57.9291 535.446 54.1871C544.688 47.9301 555.181 46.4141 565.873 47.8071C573.723 48.8291 581.361 51.4241 589.125 53.1841C591.293 53.6751 593.563 53.8261 595.795 53.8891C597.627 53.9411 598.681 54.3681 597.634 56.3111C594.98 61.2361 592.263 66.1261 589.507 70.9951C588.444 72.8731 587.705 72.4771 586.621 70.7371C585.401 68.7781 583.953 66.5791 582.033 65.5031C571.927 59.8361 561.12 58.4691 549.894 61.4651C544.889 62.8011 542.667 65.1461 542.706 68.3381C542.748 71.8021 544.856 74.1781 550.264 75.0481C557.442 76.2041 564.752 76.5001 571.972 77.4301C576.51 78.0151 581.114 78.6751 585.459 80.0311C592.996 82.3831 597.97 87.4071 598.936 95.5911C599.881 103.597 597.214 110.107 590.583 114.895C583.929 119.701 576.273 121.354 568.319 121.975C555.918 122.942 543.758 122.215 532.284 116.668C531.166 116.127 529.615 116.283 528.295 116.412C526.543 116.583 525.242 116.241 526.078 114.267C528.286 109.048 530.721 103.928 533.133 98.6231Z" fill="url(#paint1_linear_2_3308)"/>
<path fill-rule="evenodd" clip-rule="evenodd" d="M460.786 48.5731C469.972 48.5731 479.189 48.1271 488.332 48.7551C493.165 49.0871 498.033 50.8901 502.585 52.7591C506.831 54.5031 509.26 58.3041 510.495 62.7661C511.832 67.5971 511.817 72.4421 510.628 77.2781C508.889 84.3491 503.882 88.2611 497.265 90.0881C493.264 91.1921 489.039 91.8491 484.892 91.9851C476.009 92.2781 467.109 92.2061 458.22 92.0581C455.5 92.0131 454.799 92.9701 454.855 95.5111C454.991 101.802 454.917 108.098 454.886 114.393C454.874 116.641 455.025 118.63 457.963 118.939C458.454 118.991 459.215 119.999 459.18 120.519C459.146 121.024 458.251 121.874 457.726 121.881C450.135 121.974 442.542 121.978 434.951 121.893C434.437 121.887 433.543 121.009 433.53 120.518C433.515 119.988 434.314 118.984 434.786 118.967C438.261 118.84 438.651 116.738 438.641 113.877C438.57 94.4951 438.577 75.1121 438.649 55.7301C438.659 53.2431 437.96 51.7561 435.369 51.2601C434.643 51.1221 434.066 50.2101 433.422 49.6531C434.251 49.1681 435.075 48.2741 435.91 48.2631C444.201 48.1591 452.494 48.2001 460.786 48.2001C460.786 48.3241 460.786 48.4491 460.786 48.5731ZM471.697 78.8471C475.692 78.8471 479.69 78.9411 483.681 78.8081C485.753 78.7401 487.879 78.5011 489.865 77.9321C493.59 76.8631 495.122 74.4161 495.113 70.2271C495.103 65.9861 493.619 63.6931 489.857 62.5391C488.158 62.0191 486.351 61.6011 484.589 61.5811C475.602 61.4771 466.611 61.5671 457.624 61.4711C455.489 61.4481 454.827 62.2701 454.877 64.2891C454.973 68.1821 454.989 72.0811 454.875 75.9731C454.809 78.2381 455.786 78.9231 457.915 78.8791C462.508 78.7831 467.103 78.8491 471.697 78.8471Z" fill="url(#paint2_linear_2_3308)"/>
<path fill-rule="evenodd" clip-rule="evenodd" d="M373.545 103.936C368.748 103.936 363.95 104.02 359.157 103.894C357.273 103.845 356.225 104.517 355.469 106.19C354.073 109.28 352.456 112.271 351.068 115.365C350.451 116.742 349.993 118.241 352.149 119.028C352.606 119.195 352.967 120.33 352.899 120.968C352.857 121.348 351.894 121.904 351.34 121.911C345.745 121.984 340.149 121.985 334.554 121.918C334.008 121.912 333.075 121.37 333.016 120.976C332.919 120.315 333.239 119.474 333.64 118.882C335.288 116.454 337.416 114.279 338.679 111.677C347.484 93.5311 356.113 75.3001 364.809 57.1011C365.858 54.9061 366.813 52.8311 363.725 51.3511C363.273 51.1351 363.028 49.9431 363.144 49.2821C363.218 48.8561 364.122 48.2801 364.659 48.2741C371.452 48.2051 378.247 48.2061 385.041 48.2681C385.599 48.2731 386.527 48.7821 386.621 49.2041C386.767 49.8621 386.567 51.0941 386.132 51.3081C382.628 53.0291 384.148 55.4241 385.256 57.6131C391.844 70.6201 398.5 83.5921 405.133 96.5761C407.859 101.911 410.436 107.331 413.381 112.542C414.65 114.787 416.735 116.56 418.344 118.628C418.828 119.249 419.229 120.172 419.152 120.901C419.107 121.314 418.016 121.914 417.392 121.92C410.398 121.992 403.403 121.992 396.409 121.92C395.768 121.914 394.765 121.398 394.596 120.895C394.414 120.353 394.819 119.204 395.312 118.918C397.194 117.833 396.68 116.456 396 115.061C394.426 111.831 392.897 108.568 391.094 105.468C390.63 104.672 389.226 104.033 388.233 104.003C383.34 103.855 378.441 103.936 373.545 103.936ZM384.996 92.8141C381.236 84.4771 377.644 76.5151 373.795 67.9811C369.436 76.6451 365.435 84.5971 361.3 92.8141C369.423 92.8141 376.949 92.8141 384.996 92.8141Z" fill="url(#paint3_linear_2_3308)"/>
<path fill-rule="evenodd" clip-rule="evenodd" d="M307.186 72.4151C306.639 71.2321 306.203 70.6381 306.09 69.9881C305.582 67.0301 303.417 65.6161 300.993 64.5481C290.814 60.0601 280.359 58.2101 269.524 61.9281C258.586 65.6811 252.485 74.2481 252.715 85.1811C252.943 95.9971 259.507 104.628 270.431 107.788C282.495 111.278 293.989 109.144 304.845 103.221C307.046 102.021 309.513 100.613 308.904 97.2511C308.845 96.9271 309.563 96.2091 310.01 96.1191C310.435 96.0341 311.182 96.4001 311.436 96.7951C314.14 100.996 316.823 105.213 319.35 109.521C319.601 109.949 318.988 111.446 318.437 111.693C314.095 113.64 309.656 115.371 305.273 117.23C290.549 123.476 275.574 124.192 260.554 118.686C245.183 113.05 236.653 100.49 236.91 84.7161C237.168 68.8471 246.139 56.4831 261.475 50.9381C275.588 45.8351 289.748 46.7341 303.897 50.7701C306.485 51.5081 309.007 52.4821 311.55 53.3751C313.017 53.8911 314.425 54.9481 315.938 53.3291C316.159 53.0911 317.412 53.3431 317.658 53.7171C317.993 54.2261 318.119 55.2561 317.817 55.7411C314.558 60.9841 311.196 66.1641 307.186 72.4151Z" fill="url(#paint4_linear_2_3308)"/>
<path fill-rule="evenodd" clip-rule="evenodd" d="M110.851 31.2861C115.91 28.8881 120.477 26.5021 125.217 24.5281C132.387 21.5431 139.495 22.3981 146.439 25.5491C153.413 28.7141 159.218 33.3491 163.753 39.5071C164.849 40.9951 165.849 41.3671 167.741 41.0161C180.328 38.6791 194.56 48.6591 196.887 61.2991C197.274 63.4021 196.775 65.2431 194.521 65.7981C192.315 66.3411 191.324 64.8321 190.721 62.9121C188.348 55.3641 184.258 49.3491 176.058 47.3421C173.703 46.7651 171.221 46.7031 169.053 46.4371C169.219 50.4811 169.696 54.0361 169.389 57.5221C169.189 59.7901 168.163 62.1701 166.878 64.0751C166.308 64.9191 164.181 64.7111 162.76 64.9811C162.531 63.6421 161.697 62.0111 162.178 61.0151C164.243 56.7391 163.935 52.4571 161.898 48.5881C156.565 38.4611 148.654 30.9991 136.946 29.5211C127.697 28.3531 119.243 30.8611 113.651 39.2331C112.194 41.4131 111.033 41.4161 109.698 39.2221C103.744 29.4381 86.758 25.9341 75.882 32.9821C70.24 36.6381 65.367 40.9771 62.104 46.8851C59.599 51.4221 58.523 56.1091 61.068 61.1671C61.539 62.1021 61.016 64.2401 60.194 64.9721C58.628 66.3671 56.914 65.3161 55.879 63.8121C53.087 59.7591 53.12 55.1711 53.735 50.5421C53.889 49.3871 54.312 48.2671 54.72 46.7151C48.77 46.3581 43.282 47.2021 39.404 51.4741C36.538 54.6301 34.657 58.7321 32.616 62.5611C31.635 64.4021 31.051 66.5821 28.453 65.7391C25.948 64.9261 25.883 62.8031 26.458 60.5341C29.734 47.6011 42.961 38.8831 55.912 40.9881C56.94 41.1551 58.38 40.3001 59.274 39.5171C63.534 35.7881 67.247 31.2641 71.934 28.2251C84.075 20.3571 94.892 20.9331 108.361 29.4341C109.453 30.1211 110.438 30.9761 110.851 31.2861Z" fill="url(#paint5_linear_2_3308)"/>
<path fill-rule="evenodd" clip-rule="evenodd" d="M5.07502 158.563C6.01702 159.237 6.99602 159.867 7.89602 160.592C17.001 167.928 27.288 168.957 38.195 166.078C41.945 165.088 45.694 163.861 49.198 162.219C62.393 156.036 75.01 158.204 87.534 164.254C92.717 166.757 97.874 169.65 103.378 171.075C112.783 173.513 121.945 172.004 130.544 167.114C134.601 164.807 138.915 162.877 143.273 161.192C153.549 157.22 163.686 157.712 173.849 162.138C178.75 164.274 183.989 165.895 189.237 166.915C198.11 168.64 206.538 167.148 213.938 161.513C215.264 160.503 216.662 159.589 218.311 158.843C217.432 162.826 217.36 167.011 213.072 169.404C204.189 174.358 194.813 174.907 185.199 172.602C180.658 171.514 176.092 170.123 171.884 168.134C160.457 162.731 149.56 164.485 138.757 169.749C137.052 170.579 135.405 171.531 133.74 172.44C118.978 180.496 104.28 180.378 89.418 172.515C84.51 169.918 79.294 167.793 74.03 166.011C66.469 163.451 59.113 164.856 51.883 167.958C44.712 171.034 37.344 173.528 29.397 173.82C22.757 174.063 16.567 172.707 10.602 169.742C5.90202 167.408 5.80102 162.98 4.47302 159.053C4.67302 158.892 4.87402 158.728 5.07502 158.563Z" fill="url(#paint6_linear_2_3308)"/>
<path fill-rule="evenodd" clip-rule="evenodd" d="M631.537 121.981C628.439 121.981 625.339 122.061 622.247 121.926C621.448 121.891 620.68 121.181 619.897 120.781C620.419 120.096 620.806 119.061 621.493 118.792C623.469 118.02 623.426 116.491 623.426 114.856C623.422 98.7701 623.428 82.6831 623.43 66.5961C623.431 62.7991 623.385 59.0021 623.443 55.2061C623.472 53.3301 623.06 51.9141 621.04 51.2441C620.52 51.0721 619.887 50.0611 619.977 49.5561C620.069 49.0371 620.98 48.2941 621.54 48.2861C628.232 48.1981 634.928 48.1961 641.62 48.2861C642.18 48.2941 643.093 49.0631 643.181 49.5901C643.266 50.0981 642.605 51.1161 642.081 51.2721C640.125 51.8551 639.799 53.1951 639.801 54.9531C639.829 75.1361 639.829 95.3201 639.821 115.503C639.821 117.134 640.097 118.397 641.996 118.907C642.553 119.056 642.85 120.168 643.265 120.838C642.654 121.214 642.052 121.895 641.429 121.916C638.135 122.025 634.836 121.967 631.539 121.967C631.537 121.971 631.537 121.976 631.537 121.981Z" fill="url(#paint7_linear_2_3308)"/>
<path fill-rule="evenodd" clip-rule="evenodd" d="M24.115 197.87C33.678 199.487 41.699 195.709 49.718 191.313C59.767 185.804 69.882 187.994 79.684 192.343C83.318 193.955 86.642 196.256 90.14 198.183C104.301 205.983 118.547 206.147 132.705 198.303C139.957 194.286 146.948 189.866 155.404 188.588C161.651 187.644 167.56 188.274 173.181 191.112C185.738 197.455 185.725 197.479 198.923 198.207C197.878 202.511 194.747 204.758 190.593 204.351C184.713 203.776 179.2 201.965 174.282 198.81C163.759 192.059 153.524 193.964 143.405 199.483C136.471 203.264 129.673 207.233 121.799 208.866C111.923 210.913 102.292 210.146 93.033 206.255C88.539 204.366 84.446 201.526 79.951 199.641C75.212 197.653 70.303 195.865 65.298 194.769C60.056 193.623 55.049 195.173 50.419 197.981C44.909 201.322 39.016 203.586 32.529 204.431C29.529 204.821 27.525 204.255 26.045 201.62C25.439 200.54 24.536 199.626 23.769 198.636C23.885 198.381 24 198.125 24.115 197.87Z" fill="url(#paint8_linear_2_3308)"/>
<path fill-rule="evenodd" clip-rule="evenodd" d="M308.195 170.046C306.211 170.046 304.757 170.046 302.979 170.046C302.979 165.584 302.979 161.212 302.979 156.84C302.978 151.401 302.768 151.243 296.773 152.448C296.773 158.135 296.773 163.896 296.773 169.549C292.552 170.945 291.813 170.677 289.814 167.212C287.721 163.586 285.633 159.957 282.983 156.391C282.983 160.876 282.983 165.363 282.983 169.74C278.32 170.798 277.985 170.561 277.976 166.492C277.964 161.294 277.901 156.093 278.028 150.898C278.055 149.805 278.639 147.933 279.261 147.8C280.962 147.437 282.998 146.883 284.23 149.194C286.203 152.896 288.372 156.494 290.468 160.129C290.699 160.528 291.003 160.885 291.745 161.923C291.745 157.504 291.812 153.855 291.718 150.21C291.669 148.314 292.287 147.542 294.284 147.555C304.879 147.628 315.476 147.574 326.072 147.613C329.064 147.623 331.584 148.604 332.808 151.634C334.01 154.61 333.165 157.087 331.389 158.719C332.141 162.671 332.82 166.242 333.5 169.822C328.091 170.868 327.86 170.702 327.681 165.823C327.549 162.246 326.943 161.639 323.441 161.601C322.353 161.589 321.264 161.599 319.805 161.599C319.805 164.499 319.805 167.15 319.805 170.025C317.998 170.025 316.564 170.025 314.705 170.025C314.705 164.11 314.705 158.276 314.705 152.229C312.36 152.229 310.434 152.229 308.194 152.229C308.195 158.127 308.195 163.889 308.195 170.046ZM323.252 157.277C323.943 157.277 324.637 157.297 325.329 157.273C327.02 157.216 328.555 156.502 328.094 154.692C327.822 153.625 326.397 152.552 325.246 152.092C324.136 151.649 322.665 151.785 321.442 152.063C320.761 152.218 319.862 153.112 319.75 153.788C319.217 156.998 319.652 157.363 323.252 157.277Z" fill="url(#paint9_linear_2_3308)"/>
<path fill-rule="evenodd" clip-rule="evenodd" d="M168.18 226.273C165.263 228.503 162.721 230.327 158.518 228.899C149.56 225.855 140.963 227.134 133.224 232.821C128.141 236.554 122.496 239.013 116.32 240.105C108.032 241.569 100.523 239.099 93.401 235.078C92.446 234.539 91.521 233.932 90.642 233.276C82.083 226.897 72.786 225.896 62.829 229.338C59.36 230.538 57.496 227.646 54.372 226.232C66.354 220.56 77.713 218.546 89.302 225.121C91.47 226.351 93.552 227.736 95.661 229.07C106.27 235.779 116.928 235.849 127.464 229.04C133.386 225.213 139.346 221.729 146.589 221.057C152.653 220.494 163.255 222.881 168.18 226.273Z" fill="url(#paint10_linear_2_3308)"/>
<path fill-rule="evenodd" clip-rule="evenodd" d="M276.178 203.892C276.178 200.51 276.255 196.913 276.148 193.321C276.086 191.233 277.115 190.832 278.913 190.826C280.785 190.819 281.295 191.643 281.275 193.381C281.209 199.176 281.223 204.974 281.269 210.77C281.284 212.558 281.131 213.809 278.765 213.797C276.526 213.786 275.964 212.796 276.153 210.866C276.181 210.575 276.107 210.273 276.045 209.573C272.301 214.679 267.461 215.13 262.199 213.307C259.32 212.309 257.672 210.175 257.663 206.776C259.846 206.268 261.74 205.576 263.161 208.339C264.155 210.273 268.473 210.527 270.228 209.122C271.758 207.896 271.535 206.202 269.523 205.456C267.38 204.662 264.992 204.48 262.925 203.551C260.976 202.674 259.307 201.174 257.821 200.156C257.175 201.117 256.402 203.233 254.889 204.246C253.374 205.26 251.135 205.404 249.189 205.519C245.294 205.749 245.342 205.635 245.239 209.536C245.203 210.869 245.184 212.481 244.453 213.413C243.998 213.992 242.148 213.772 241.073 213.436C240.588 213.284 240.225 211.977 240.216 211.19C240.145 205.294 240.222 199.396 240.147 193.501C240.123 191.591 240.783 190.755 242.749 190.842C245.043 190.943 247.347 190.81 249.644 190.878C253.269 190.988 256.358 192.035 257.4 195.425C259.118 193.954 260.679 191.805 262.744 191.071C264.932 190.293 267.684 190.446 270.036 190.935C273.629 191.683 275.24 194.257 274.95 197.732C273.017 198.174 271.262 198.733 269.859 196.306C269.324 195.381 267.458 194.711 266.277 194.817C265.035 194.929 263.889 196.107 262.7 196.82C263.647 197.677 264.461 198.853 265.572 199.321C267.391 200.086 269.486 200.191 271.311 200.946C272.983 201.639 274.453 202.822 276.178 203.892ZM244.866 195.27C245.374 197.614 245.201 200.212 246.322 201.024C247.41 201.811 249.947 201.054 251.595 200.368C252.205 200.115 252.65 197.85 252.212 196.99C250.798 194.212 248.074 195.489 244.866 195.27Z" fill="url(#paint11_linear_2_3308)"/>
<path fill-rule="evenodd" clip-rule="evenodd" d="M361.063 198.471C364.338 191.678 368.073 189.533 374.379 190.664C378.53 191.408 381.095 194.049 381.427 198.046C379.263 198.38 377.452 198.714 375.705 196.401C373.188 193.071 367.624 194.608 366.56 198.896C366.025 201.05 366.056 203.501 366.473 205.696C366.999 208.455 369.19 209.87 371.982 209.817C374.456 209.769 376.295 208.625 376.914 205.616C375.75 205.532 374.702 205.686 373.874 205.328C373.167 205.022 372.21 204.079 372.269 203.51C372.35 202.713 373.196 201.445 373.846 201.357C375.907 201.079 378.052 201.082 380.115 201.356C380.794 201.446 381.755 202.658 381.829 203.428C382.057 205.805 382.027 208.225 381.869 210.615C381.8 211.645 381.275 213.419 380.771 213.487C379.727 213.63 378.558 212.857 376.964 212.292C370.416 216.284 364.873 214.516 361.37 207.212C359.377 209.184 357.591 212.048 355.039 213.162C352.539 214.255 349.126 214.16 346.354 213.528C341.48 212.417 339.136 207.211 339.666 200.268C340.073 194.942 343.417 191.194 348.479 190.388C354.328 189.457 358.312 191.954 361.063 198.471ZM356.252 202.371C355.951 200.918 355.848 199.387 355.307 198.029C354.189 195.225 351.427 194.008 348.689 195C345.583 196.127 344.74 198.682 344.683 201.686C344.601 205.975 345.794 208.47 348.429 209.452C352.719 211.051 356.019 208.004 356.252 202.371Z" fill="url(#paint12_linear_2_3308)"/>
<path fill-rule="evenodd" clip-rule="evenodd" d="M302.479 196.7C305.756 191.323 309.979 189.467 315.959 191.097C320.525 192.342 323.178 196.552 323.19 202.571C323.202 208.509 320.499 212.865 316.02 214.128C309.951 215.838 305.744 213.905 302.266 208.169C300.332 210.001 298.602 212.491 296.224 213.634C294.198 214.607 291.427 214.038 288.984 214.123C288.702 214.134 288.406 213.981 288.129 213.873C282.587 211.705 280.13 203.9 282.832 197.057C284.891 191.844 290.815 189.28 296.289 191.728C298.577 192.75 300.344 194.935 302.479 196.7ZM301.496 200.11C299.484 199.145 297.928 198.401 296.375 197.65C294.868 196.922 293.297 195.504 291.879 195.645C290.439 195.789 288.207 197.294 287.985 198.508C287.456 201.401 287.318 204.643 288.121 207.427C288.991 210.443 293.505 211.35 295.185 208.939C296.867 206.526 298.746 205.587 301.496 205.953C301.496 203.605 301.496 201.639 301.496 200.11ZM318.335 202.773C318.032 201.303 317.91 199.993 317.483 198.79C316.679 196.528 315.054 195.135 312.571 195.062C309.956 194.986 307.806 196.316 307.354 198.714C306.858 201.343 306.789 204.349 307.621 206.824C308.123 208.317 310.689 209.969 312.342 209.983C313.992 209.999 315.949 208.319 317.221 206.891C318.09 205.916 318.016 204.099 318.335 202.773Z" fill="url(#paint13_linear_2_3308)"/>
<path fill-rule="evenodd" clip-rule="evenodd" d="M438.646 170.223C438.646 163.922 438.646 158.161 438.646 152.56C438.188 152.31 438.024 152.149 437.848 152.135C432.11 151.653 432.111 151.655 432.112 157.439C432.113 161.526 432.112 165.615 432.112 169.62C427.44 171.071 426.833 170.633 426.846 166.114C426.857 162.416 426.749 158.714 426.897 155.022C426.99 152.703 426.257 151.73 423.837 151.948C422.73 152.049 421.349 151.87 420.519 151.249C420.032 150.884 420.156 149.32 420.454 148.45C420.611 147.992 421.733 147.627 422.421 147.624C432.713 147.574 443.005 147.616 453.296 147.567C455.019 147.559 455.883 148.334 455.451 149.865C455.215 150.704 454.151 151.815 453.363 151.901C450.893 152.17 448.376 152.06 445.879 151.996C444.369 151.958 443.728 152.478 443.727 154.069C443.726 155.66 444.398 156.193 445.88 156.169C448.078 156.133 450.277 156.202 452.476 156.193C453.976 156.188 454.587 156.839 454.573 158.388C454.559 159.924 453.995 160.568 452.456 160.527C450.359 160.472 448.254 160.628 446.163 160.502C444.044 160.375 443.704 161.451 443.7 163.244C443.696 164.973 444.141 165.846 446.043 165.777C448.639 165.681 451.24 165.81 453.838 165.762C455.52 165.732 456.108 166.525 456.161 168.127C456.223 169.947 455.305 170.268 453.741 170.247C448.865 170.181 443.988 170.223 438.646 170.223Z" fill="url(#paint14_linear_2_3308)"/>
<path fill-rule="evenodd" clip-rule="evenodd" d="M511.834 194.526C509.942 200.086 507.999 205.629 506.189 211.214C505.62 212.969 504.806 213.818 502.818 213.796C500.89 213.775 500.265 212.809 499.749 211.227C497.827 205.348 495.802 199.502 493.838 193.637C493.596 192.914 493.489 192.146 493.323 191.41C497.688 190.214 498.238 190.49 499.331 194.276C500.453 198.166 501.572 202.057 503.34 205.975C504.562 201.827 505.903 197.709 506.953 193.518C507.461 191.487 508.376 190.779 510.454 190.822C518.791 190.996 517.303 189.856 517.432 197.787C517.502 202.18 517.374 206.577 517.478 210.969C517.526 213.027 516.81 213.794 514.71 213.792C512.522 213.788 512.34 212.621 512.355 210.93C512.402 205.465 512.372 199.999 512.372 194.534C512.193 194.531 512.014 194.528 511.834 194.526Z" fill="url(#paint15_linear_2_3308)"/>
<path fill-rule="evenodd" clip-rule="evenodd" d="M152.214 9.61314C152.212 14.9511 147.793 19.3711 142.489 19.3391C137.403 19.3081 132.895 14.8621 132.807 9.78812C132.715 4.51312 137.197 -0.0278712 142.465 0.000128804C147.999 0.0311288 152.216 4.18914 152.214 9.61314Z" fill="url(#paint16_linear_2_3308)"/>
<path fill-rule="evenodd" clip-rule="evenodd" d="M90.333 9.58112C90.382 14.8251 85.841 19.3631 80.566 19.3411C75.272 19.3201 70.82 14.8181 70.859 9.52613C70.898 4.29113 75.115 0.113132 80.468 0.00513196C85.835 -0.103868 90.284 4.21412 90.333 9.58112Z" fill="url(#paint17_linear_2_3308)"/>
<path fill-rule="evenodd" clip-rule="evenodd" d="M523.545 199.67C523.545 203.408 523.514 207.146 523.56 210.882C523.581 212.528 523.499 213.764 521.26 213.784C518.943 213.805 518.668 212.584 518.683 210.764C518.727 205.177 518.632 199.589 518.774 194.006C518.8 192.96 519.491 191.225 520.191 191.046C521.798 190.634 523.741 190.302 524.887 192.428C526.873 196.113 528.996 199.724 531.075 203.359C531.304 203.758 531.608 204.116 532.429 205.265C532.429 200.971 532.444 197.545 532.423 194.119C532.411 192.328 532.36 190.765 534.989 190.81C537.468 190.852 537.339 192.315 537.332 193.988C537.307 199.473 537.391 204.96 537.269 210.443C537.245 211.526 536.699 213.333 536.028 213.524C534.286 214.021 532.363 214.14 531.19 211.875C529.314 208.248 527.168 204.761 525.125 201.219C524.798 200.653 524.421 200.115 524.067 199.563C523.893 199.6 523.719 199.635 523.545 199.67Z" fill="url(#paint18_linear_2_3308)"/>
<path fill-rule="evenodd" clip-rule="evenodd" d="M537.824 161.041C537.824 157.353 537.873 153.665 537.803 149.979C537.769 148.17 538.494 147.541 540.291 147.545C542.1 147.548 542.756 148.194 542.737 150.003C542.67 156.577 542.711 163.153 542.711 169.658C538.309 170.907 537.9 170.745 535.842 167.161C533.76 163.537 531.668 159.919 529.083 156.349C529.083 160.822 529.083 165.296 529.083 169.999C527.369 169.999 526.022 169.999 524.082 169.999C524.082 168.368 524.082 166.728 524.082 165.088C524.082 160.397 523.989 155.701 524.147 151.014C524.186 149.869 524.836 147.973 525.57 147.775C527.394 147.283 529.389 147.165 530.611 149.591C532.614 153.57 534.979 157.367 537.192 161.241C537.403 161.174 537.614 161.107 537.824 161.041Z" fill="url(#paint19_linear_2_3308)"/>
<path fill-rule="evenodd" clip-rule="evenodd" d="M434.703 202.35C434.703 199.455 434.774 196.559 434.678 193.668C434.613 191.678 435.237 190.701 437.402 190.827C439.789 190.967 442.204 190.719 444.581 190.927C446.233 191.071 448.054 191.35 449.433 192.178C454.228 195.057 454.318 199.854 453.801 204.63C453.28 209.462 450.392 212.862 446.185 213.422C443.043 213.841 439.812 213.777 436.638 213.604C435.962 213.568 434.881 212.163 434.819 211.326C434.595 208.348 434.731 205.345 434.731 202.35C434.72 202.35 434.711 202.35 434.703 202.35ZM442.739 195.234C440.273 194.677 439.423 195.955 439.617 198.682C439.821 201.546 439.713 204.438 439.655 207.316C439.625 208.856 440.267 209.337 441.78 209.404C446.977 209.635 449.386 206.677 448.821 200.575C448.459 196.685 446.977 195.297 442.739 195.234Z" fill="url(#paint20_linear_2_3308)"/>
<path fill-rule="evenodd" clip-rule="evenodd" d="M615.382 202.216C615.391 209.745 611.157 214.385 604.355 214.301C597.825 214.221 593.53 209.387 593.582 202.174C593.634 194.913 597.942 190.233 604.554 190.252C611.241 190.272 615.373 194.838 615.382 202.216ZM610.283 202.269C610.271 196.773 606.934 193.535 602.775 195.006C599.468 196.176 598.903 199.043 598.699 201.984C598.45 205.58 600.012 208.456 602.498 209.437C606.798 211.136 610.294 207.916 610.283 202.269Z" fill="url(#paint21_linear_2_3308)"/>
<path fill-rule="evenodd" clip-rule="evenodd" d="M361.394 170.126C361.394 162.936 361.347 156.164 361.472 149.396C361.484 148.785 362.576 147.708 363.208 147.677C366.393 147.521 369.601 147.491 372.781 147.704C375.905 147.913 378.245 149.594 379.485 152.507C381.444 157.108 381.174 161.675 378.791 166.049C377.41 168.583 375.206 170.063 372.248 170.112C368.774 170.171 365.298 170.126 361.394 170.126ZM366.499 165.665C370.858 166.432 373.058 165.84 374.373 163.701C375.852 161.294 375.955 155.52 374.356 153.611C372.183 151.018 369.318 152.127 366.499 152.156C366.499 156.812 366.499 161.173 366.499 165.665Z" fill="url(#paint22_linear_2_3308)"/>
<path fill-rule="evenodd" clip-rule="evenodd" d="M501.599 158.755C501.629 150.936 505.992 146.566 513.356 146.975C519.231 147.301 522.741 151.211 523.246 157.993C523.886 166.589 518.309 171.96 510.098 170.657C504.653 169.793 501.573 165.479 501.599 158.755ZM506.689 159.05C506.705 163.316 508.355 165.856 511.409 166.316C515.224 166.89 517.711 164.549 518.017 160.096C518.402 154.51 516.317 151.328 512.309 151.385C508.657 151.437 506.67 154.146 506.689 159.05Z" fill="url(#paint23_linear_2_3308)"/>
<path fill-rule="evenodd" clip-rule="evenodd" d="M355.664 158.534C355.063 167.425 349.6 172.188 341.48 170.597C336.837 169.687 333.899 165.84 333.431 160.06C332.957 154.212 335.485 149.299 339.799 147.679C344.659 145.855 350.208 147.018 352.717 150.935C354.154 153.177 354.71 155.983 355.664 158.534ZM350.217 158.893C349.834 157.366 349.672 155.737 349.024 154.332C347.401 150.812 342.418 150.312 340.032 153.314C338.026 155.837 337.897 161.863 340.016 164.335C340.792 165.24 342.057 166.008 343.22 166.248C347.303 167.092 349.918 164.168 350.217 158.893Z" fill="url(#paint24_linear_2_3308)"/>
<path fill-rule="evenodd" clip-rule="evenodd" d="M277.247 170.08C271.677 170.08 266.213 170.08 260.35 170.08C260.277 168.462 260.153 166.919 260.146 165.375C260.125 160.376 260.199 155.376 260.125 150.378C260.096 148.4 260.653 147.464 262.84 147.545C266.735 147.689 270.638 147.615 274.537 147.571C276.032 147.553 276.983 147.795 277.006 149.659C277.03 151.569 276.215 152.095 274.484 152.024C272.387 151.937 270.285 152.001 268.186 152.005C266.788 152.008 265.318 151.762 265.294 153.97C265.269 156.288 266.786 156.17 268.329 156.17C270.128 156.17 271.929 156.217 273.728 156.176C275.314 156.139 276.112 156.705 276.108 158.434C276.105 160.26 275.132 160.58 273.62 160.534C271.722 160.475 269.816 160.61 267.923 160.502C266.003 160.393 265.223 161.111 265.239 163.08C265.254 164.95 265.841 165.864 267.838 165.767C269.933 165.664 272.036 165.737 274.136 165.753C277.642 165.781 277.715 165.876 277.247 170.08Z" fill="url(#paint25_linear_2_3308)"/>
<path fill-rule="evenodd" clip-rule="evenodd" d="M470.304 147.718C472.066 147.718 473.243 147.718 474.726 147.718C474.726 155.091 474.726 162.411 474.726 169.938C472.038 170.683 469.853 170.518 468.318 167.361C466.454 163.527 464.112 159.925 461.433 156.298C461.433 160.78 461.433 165.262 461.433 169.997C459.736 169.997 458.41 169.997 456.634 169.997C456.634 165.49 456.632 161.036 456.634 156.582C456.635 154.784 456.5 152.971 456.696 151.195C456.829 149.983 457.189 147.985 457.86 147.796C459.819 147.242 461.856 147.222 463.121 149.748C465.114 153.735 467.499 157.527 470.305 161.286C470.304 156.866 470.304 152.446 470.304 147.718Z" fill="url(#paint26_linear_2_3308)"/>
<path fill-rule="evenodd" clip-rule="evenodd" d="M386.419 165.753C389.437 165.753 392.304 165.734 395.172 165.759C398.687 165.788 398.982 166.222 398.06 170.097C392.566 170.097 387.026 170.097 381.147 170.097C381.147 163.034 381.108 156.175 381.216 149.319C381.225 148.741 382.196 147.699 382.745 147.682C387.229 147.546 391.724 147.517 396.206 147.696C396.816 147.721 397.833 149.07 397.83 149.802C397.827 150.531 396.831 151.817 396.174 151.882C393.605 152.136 390.996 152.041 388.403 152C387.009 151.979 386.158 152.254 386.132 153.946C386.105 155.698 386.863 156.215 388.462 156.171C390.555 156.114 392.652 156.215 394.746 156.18C396.416 156.151 397.348 156.963 396.851 158.521C396.592 159.333 395.53 160.241 394.681 160.429C393.253 160.747 391.706 160.527 390.21 160.53C385.847 160.538 385.847 160.537 386.419 165.753Z" fill="url(#paint27_linear_2_3308)"/>
<path fill-rule="evenodd" clip-rule="evenodd" d="M462.933 213.726C454.426 213.733 454.421 213.733 454.404 205.079C454.396 201.285 454.479 197.49 454.384 193.699C454.334 191.707 454.926 190.763 457.09 190.828C460.98 190.945 464.876 190.896 468.77 190.844C470.451 190.823 471.368 191.276 471.336 193.205C471.307 195.051 470.332 195.329 468.846 195.305C466.451 195.264 464.053 195.36 461.659 195.281C459.962 195.224 459.052 195.998 459.508 197.565C459.749 198.394 460.792 199.465 461.585 199.568C463.745 199.85 465.966 199.721 468.161 199.665C469.708 199.625 470.27 200.303 470.275 201.811C470.28 203.319 469.692 204.03 468.172 204.018C466.176 204 464.174 204.131 462.185 204.018C460.164 203.902 459.37 204.562 459.358 206.717C459.345 209.023 460.454 209.35 462.322 209.288C464.815 209.204 467.331 209.107 469.798 209.379C470.547 209.462 471.706 210.752 471.694 211.473C471.681 212.235 470.566 213.528 469.809 213.623C467.549 213.91 465.23 213.726 462.933 213.726Z" fill="url(#paint28_linear_2_3308)"/>
<path fill-rule="evenodd" clip-rule="evenodd" d="M563.694 199.558C563.694 201.757 563.669 203.956 563.701 206.154C563.737 208.641 565.244 209.826 567.523 209.842C569.808 209.859 571.332 208.687 571.367 206.195C571.427 201.998 571.522 197.799 571.436 193.603C571.393 191.508 572.166 190.805 574.235 190.813C576.219 190.82 576.903 191.584 576.836 193.481C576.668 198.169 576.862 202.887 576.398 207.543C575.95 212.026 572.722 214.219 567.607 214.242C562.398 214.265 559.059 211.947 558.669 207.349C558.255 202.486 558.347 197.569 558.466 192.682C558.481 192.058 559.916 191.157 560.824 190.943C562.055 190.653 563.569 190.7 563.593 192.662C563.62 194.961 563.6 197.26 563.6 199.558C563.629 199.558 563.662 199.558 563.694 199.558Z" fill="url(#paint29_linear_2_3308)"/>
<path fill-rule="evenodd" clip-rule="evenodd" d="M403.312 169.88C405.851 162.755 408.221 155.784 410.923 148.945C411.247 148.124 413.378 147.7 414.677 147.69C415.584 147.684 417.03 148.496 417.329 149.286C419.873 155.993 422.21 162.78 424.606 169.536C420.894 170.982 419.867 170.541 418.336 167.397C417.99 166.687 417.011 165.984 416.227 165.853C414.769 165.609 413.224 165.657 411.749 165.846C411.003 165.942 409.805 166.512 409.708 167.034C409.03 170.701 406.642 170.669 403.312 169.88ZM416.315 161.253C415.58 158.84 414.919 156.672 414.258 154.504C414.067 154.519 413.876 154.534 413.686 154.55C413.006 156.722 412.327 158.895 411.588 161.253C413.395 161.253 414.647 161.253 416.315 161.253Z" fill="url(#paint30_linear_2_3308)"/>
<path fill-rule="evenodd" clip-rule="evenodd" d="M428.904 213.443C425.783 214.177 423.48 214.015 422.85 210.407C422.754 209.861 421.61 209.22 420.882 209.12C419.41 208.917 417.865 208.886 416.403 209.119C415.605 209.246 414.406 209.944 414.264 210.58C413.462 214.183 411.175 214.173 407.946 213.262C408.954 210.396 409.922 207.608 410.913 204.828C412.354 200.783 413.677 196.687 415.366 192.749C415.758 191.836 417.409 191.022 418.513 190.979C419.64 190.935 421.519 191.619 421.843 192.458C424.395 199.067 426.658 205.79 428.989 212.485C429.078 212.735 428.944 213.063 428.904 213.443ZM420.94 204.483C420.174 202.098 419.532 200.095 418.889 198.092C418.677 198.096 418.466 198.099 418.254 198.102C417.599 200.138 416.944 202.173 416.201 204.483C417.793 204.483 419.046 204.483 420.94 204.483Z" fill="url(#paint31_linear_2_3308)"/>
<path fill-rule="evenodd" clip-rule="evenodd" d="M259.11 155.142C256.814 155.625 254.941 156.059 253.385 153.507C251.705 150.754 247.639 151.045 245.76 153.722C244.088 156.104 243.975 161.647 245.55 164.072C247.44 166.98 251.403 167.185 253.387 164.477C255.302 161.863 255.302 161.863 259.629 162.667C258.486 164.689 257.77 166.754 256.404 168.206C253.579 171.21 249.867 171.436 246.111 170.311C242.409 169.202 240.196 166.472 239.631 162.772C239.246 160.258 239.256 157.56 239.728 155.065C240.681 150.03 244.912 146.969 249.925 147.175C255.197 147.393 259.148 150.69 259.11 155.142Z" fill="url(#paint32_linear_2_3308)"/>
<path fill-rule="evenodd" clip-rule="evenodd" d="M495.447 162.515C494.961 166.975 492.328 169.905 488.273 170.661C483.453 171.56 479.037 169.725 477.136 165.64C474.998 161.047 475.044 156.31 477.511 151.825C479.635 147.964 483.952 146.468 488.982 147.551C492.795 148.372 495.16 151.009 495.599 155.102C493.505 155.511 491.6 156.303 489.996 153.684C488.088 150.567 483.131 150.849 482.058 154.32C481.179 157.166 481.1 160.669 481.915 163.524C482.963 167.194 488.145 167.511 489.964 164.169C491.452 161.432 493.319 162.088 495.447 162.515Z" fill="url(#paint33_linear_2_3308)"/>
<path fill-rule="evenodd" clip-rule="evenodd" d="M408.445 198.589C405.954 198.962 404.041 199.19 402.463 196.558C400.851 193.867 395.822 194.543 394.887 197.71C394.062 200.504 394.175 203.769 394.699 206.677C394.924 207.918 397.192 209.498 398.634 209.609C400.033 209.716 402.097 208.489 402.918 207.228C404.459 204.862 406.315 205.899 408.156 205.799C408.204 209.578 405.796 212.697 402.102 213.811C395.317 215.858 389.591 211.814 388.595 204.269C387.439 195.511 393.013 189.52 401.151 190.773C405.266 191.405 408.005 194.222 408.445 198.589Z" fill="url(#paint34_linear_2_3308)"/>
<path fill-rule="evenodd" clip-rule="evenodd" d="M557.251 205.982C556.812 210.52 553.925 213.473 549.378 214.177C544.665 214.908 540.068 212.505 538.496 208.107C537.001 203.929 537.027 199.637 539.069 195.586C541.062 191.631 545.356 189.892 550.358 190.806C554.257 191.519 556.799 194.165 557.48 198.403C555.286 198.855 553.343 199.644 551.683 196.884C549.915 193.948 544.903 194.331 543.888 197.637C543.01 200.496 542.885 203.991 543.681 206.857C544.68 210.45 549.451 210.821 551.625 207.918C553.493 205.423 553.493 205.423 557.251 205.982Z" fill="url(#paint35_linear_2_3308)"/>
<path fill-rule="evenodd" clip-rule="evenodd" d="M195.582 30.5861C195.495 34.9401 191.534 38.6991 187.156 38.5841C182.805 38.4691 178.955 34.4961 179.04 30.2091C179.128 25.7791 183.199 21.9501 187.658 22.1031C191.943 22.2511 195.669 26.2391 195.582 30.5861Z" fill="url(#paint36_linear_2_3308)"/>
<path fill-rule="evenodd" clip-rule="evenodd" d="M35.874 22.1021C40.196 22.0801 43.99 25.8551 44.084 30.2711C44.175 34.5271 40.29 38.4801 35.929 38.5701C31.465 38.6611 27.71 35.0171 27.627 30.5131C27.542 25.9471 31.291 22.1251 35.874 22.1021Z" fill="url(#paint37_linear_2_3308)"/>
<path fill-rule="evenodd" clip-rule="evenodd" d="M323.761 202.022C323.757 199.025 323.799 196.027 323.741 193.031C323.707 191.287 324.571 190.798 326.157 190.844C327.658 190.889 328.996 190.893 328.969 192.969C328.927 196.165 328.983 199.364 328.985 202.561C328.99 209.257 328.987 209.257 335.538 209.262C336.337 209.263 337.14 209.317 337.935 209.266C339.553 209.162 339.962 210.012 339.96 211.467C339.959 212.916 339.537 213.741 337.94 213.731C333.943 213.703 329.946 213.677 325.95 213.754C324.14 213.789 323.756 212.799 323.761 211.314C323.771 208.218 323.764 205.12 323.761 202.022Z" fill="url(#paint38_linear_2_3308)"/>
<path fill-rule="evenodd" clip-rule="evenodd" d="M472.839 202.244C472.839 199.154 472.899 196.062 472.816 192.974C472.768 191.151 473.738 190.848 475.251 190.841C476.847 190.833 477.962 191.072 477.93 193.074C477.859 197.558 477.993 202.048 477.873 206.529C477.817 208.608 478.52 209.424 480.614 209.286C482.598 209.155 484.601 209.321 486.593 209.248C488.257 209.186 488.867 209.853 488.857 211.53C488.847 213.265 488.062 213.771 486.484 213.752C482.697 213.704 478.907 213.669 475.122 213.76C473.212 213.806 472.749 212.912 472.794 211.214C472.872 208.226 472.815 205.234 472.815 202.243C472.823 202.244 472.831 202.244 472.839 202.244Z" fill="url(#paint39_linear_2_3308)"/>
<path fill-rule="evenodd" clip-rule="evenodd" d="M578.405 202.266C578.405 199.275 578.469 196.283 578.381 193.294C578.328 191.505 578.991 190.828 580.81 190.819C582.709 190.809 583.529 191.442 583.494 193.409C583.415 197.795 583.559 202.184 583.432 206.567C583.371 208.679 584.135 209.422 586.199 209.287C588.184 209.156 590.188 209.338 592.178 209.246C593.886 209.168 594.401 209.896 594.43 211.537C594.462 213.312 593.655 213.772 592.084 213.754C588.297 213.708 584.507 213.673 580.721 213.761C578.837 213.805 578.32 212.962 578.367 211.238C578.451 208.249 578.39 205.257 578.39 202.266C578.395 202.266 578.4 202.266 578.405 202.266Z" fill="url(#paint40_linear_2_3308)"/>
<path fill-rule="evenodd" clip-rule="evenodd" d="M387.993 202.298C387.997 205.389 387.94 208.48 388.018 211.568C388.063 213.332 387.205 213.786 385.635 213.756C384.114 213.727 382.887 213.671 382.911 211.592C382.981 205.412 382.982 199.231 382.913 193.051C382.891 191.01 384.053 190.858 385.609 190.843C387.165 190.828 388.052 191.257 388.008 193.03C387.933 196.116 387.988 199.208 387.993 202.298Z" fill="url(#paint41_linear_2_3308)"/>
<path fill-rule="evenodd" clip-rule="evenodd" d="M496.261 170.456C496.261 162.999 496.299 156.318 496.238 149.639C496.221 147.774 497.226 147.533 498.711 147.567C500.093 147.599 501.327 147.578 501.315 149.525C501.275 155.815 501.509 162.115 501.219 168.392C501.059 171.825 498.224 169.574 496.261 170.456Z" fill="url(#paint42_linear_2_3308)"/>
<path fill-rule="evenodd" clip-rule="evenodd" d="M510.331 145.033C511.865 140.584 512.846 139.982 516.893 141.003C515.135 144.625 513.207 145.81 510.331 145.033Z" fill="url(#paint43_linear_2_3308)"/>
<path fill-rule="evenodd" clip-rule="evenodd" d="M348.174 188.627C349.947 183.907 350.274 183.706 354.931 184.302C353.216 187.798 351.225 189.125 348.174 188.627Z" fill="url(#paint44_linear_2_3308)"/>
<path fill-rule="evenodd" clip-rule="evenodd" d="M512.635 188.838C514.577 184.076 515.14 183.733 519.37 184.554C517.736 188.057 515.796 189.334 512.635 188.838Z" fill="url(#paint45_linear_2_3308)"/>
<defs>
<linearGradient id="paint0_linear_2_3308" x1="152.158" y1="47.3458" x2="74.2804" y2="182.234" gradientUnits="userSpaceOnUse">
<stop stop-color="#CC31F4"/>
<stop offset="0.6113" stop-color="#4D60FB"/>
<stop offset="1" stop-color="#007CFF"/>
</linearGradient>
<linearGradient id="paint1_linear_2_3308" x1="525.817" y1="84.8307" x2="599.119" y2="84.8307" gradientUnits="userSpaceOnUse">
<stop stop-color="#CC31F4"/>
<stop offset="0.1095" stop-color="#A63FF6"/>
<stop offset="0.2721" stop-color="#7451F9"/>
<stop offset="0.4329" stop-color="#4A61FB"/>
<stop offset="0.5887" stop-color="#2A6DFD"/>
<stop offset="0.7381" stop-color="#1375FE"/>
<stop offset="0.8783" stop-color="#057AFF"/>
<stop offset="1" stop-color="#007CFF"/>
</linearGradient>
<linearGradient id="paint2_linear_2_3308" x1="433.42" y1="85.0724" x2="511.509" y2="85.0724" gradientUnits="userSpaceOnUse">
<stop stop-color="#CC31F4"/>
<stop offset="0.1095" stop-color="#A63FF6"/>
<stop offset="0.2721" stop-color="#7451F9"/>
<stop offset="0.4329" stop-color="#4A61FB"/>
<stop offset="0.5887" stop-color="#2A6DFD"/>
<stop offset="0.7381" stop-color="#1375FE"/>
<stop offset="0.8783" stop-color="#057AFF"/>
<stop offset="1" stop-color="#007CFF"/>
</linearGradient>
<linearGradient id="paint3_linear_2_3308" x1="333" y1="85.0978" x2="419.162" y2="85.0978" gradientUnits="userSpaceOnUse">
<stop stop-color="#CC31F4"/>
<stop offset="0.1095" stop-color="#A63FF6"/>
<stop offset="0.2721" stop-color="#7451F9"/>
<stop offset="0.4329" stop-color="#4A61FB"/>
<stop offset="0.5887" stop-color="#2A6DFD"/>
<stop offset="0.7381" stop-color="#1375FE"/>
<stop offset="0.8783" stop-color="#057AFF"/>
<stop offset="1" stop-color="#007CFF"/>
</linearGradient>
<linearGradient id="paint4_linear_2_3308" x1="236.905" y1="84.9122" x2="319.409" y2="84.9122" gradientUnits="userSpaceOnUse">
<stop stop-color="#CC31F4"/>
<stop offset="0.1095" stop-color="#A63FF6"/>
<stop offset="0.2721" stop-color="#7451F9"/>
<stop offset="0.4329" stop-color="#4A61FB"/>
<stop offset="0.5887" stop-color="#2A6DFD"/>
<stop offset="0.7381" stop-color="#1375FE"/>
<stop offset="0.8783" stop-color="#057AFF"/>
<stop offset="1" stop-color="#007CFF"/>
</linearGradient>
<linearGradient id="paint5_linear_2_3308" x1="137.142" y1="17.1183" x2="88.8678" y2="100.732" gradientUnits="userSpaceOnUse">
<stop stop-color="#CC31F4"/>
<stop offset="0.6113" stop-color="#4D60FB"/>
<stop offset="1" stop-color="#007CFF"/>
</linearGradient>
<linearGradient id="paint6_linear_2_3308" x1="139.008" y1="113.06" x2="82.3506" y2="211.194" gradientUnits="userSpaceOnUse">
<stop stop-color="#CC31F4"/>
<stop offset="0.6113" stop-color="#4D60FB"/>
<stop offset="1" stop-color="#007CFF"/>
</linearGradient>
<linearGradient id="paint7_linear_2_3308" x1="619.897" y1="85.1114" x2="643.262" y2="85.1114" gradientUnits="userSpaceOnUse">
<stop stop-color="#CC31F4"/>
<stop offset="0.1095" stop-color="#A63FF6"/>
<stop offset="0.2721" stop-color="#7451F9"/>
<stop offset="0.4329" stop-color="#4A61FB"/>
<stop offset="0.5887" stop-color="#2A6DFD"/>
<stop offset="0.7381" stop-color="#1375FE"/>
<stop offset="0.8783" stop-color="#057AFF"/>
<stop offset="1" stop-color="#007CFF"/>
</linearGradient>
<linearGradient id="paint8_linear_2_3308" x1="133.48" y1="160.423" x2="88.3268" y2="238.63" gradientUnits="userSpaceOnUse">
<stop stop-color="#CC31F4"/>
<stop offset="0.6113" stop-color="#4D60FB"/>
<stop offset="1" stop-color="#007CFF"/>
</linearGradient>
<linearGradient id="paint9_linear_2_3308" x1="277.95" y1="158.903" x2="333.501" y2="158.903" gradientUnits="userSpaceOnUse">
<stop stop-color="#007EF4"/>
<stop offset="0.0315" stop-color="#007EF5"/>
<stop offset="0.3472" stop-color="#007CFD"/>
<stop offset="1" stop-color="#007CFF"/>
</linearGradient>
<linearGradient id="paint10_linear_2_3308" x1="125.517" y1="201.588" x2="96.9866" y2="251.004" gradientUnits="userSpaceOnUse">
<stop stop-color="#CC31F4"/>
<stop offset="0.6113" stop-color="#4D60FB"/>
<stop offset="1" stop-color="#007CFF"/>
</linearGradient>
<linearGradient id="paint11_linear_2_3308" x1="240.145" y1="202.406" x2="281.275" y2="202.406" gradientUnits="userSpaceOnUse">
<stop stop-color="#007EF4"/>
<stop offset="0.0315" stop-color="#007EF5"/>
<stop offset="0.3472" stop-color="#007CFD"/>
<stop offset="1" stop-color="#007CFF"/>
</linearGradient>
<linearGradient id="paint12_linear_2_3308" x1="339.594" y1="202.287" x2="381.994" y2="202.287" gradientUnits="userSpaceOnUse">
<stop stop-color="#007EF4"/>
<stop offset="0.0315" stop-color="#007EF5"/>
<stop offset="0.3472" stop-color="#007CFD"/>
<stop offset="1" stop-color="#007CFF"/>
</linearGradient>
<linearGradient id="paint13_linear_2_3308" x1="281.731" y1="202.627" x2="323.191" y2="202.627" gradientUnits="userSpaceOnUse">
<stop stop-color="#007EF4"/>
<stop offset="0.0315" stop-color="#007EF5"/>
<stop offset="0.3472" stop-color="#007CFD"/>
<stop offset="1" stop-color="#007CFF"/>
</linearGradient>
<linearGradient id="paint14_linear_2_3308" x1="420.192" y1="158.963" x2="456.163" y2="158.963" gradientUnits="userSpaceOnUse">
<stop stop-color="#007EF4"/>
<stop offset="0.0315" stop-color="#007EF5"/>
<stop offset="0.3472" stop-color="#007CFD"/>
<stop offset="1" stop-color="#007CFF"/>
</linearGradient>
<linearGradient id="paint15_linear_2_3308" x1="493.324" y1="202.289" x2="517.48" y2="202.289" gradientUnits="userSpaceOnUse">
<stop stop-color="#007EF4"/>
<stop offset="0.0315" stop-color="#007EF5"/>
<stop offset="0.3472" stop-color="#007CFD"/>
<stop offset="1" stop-color="#007CFF"/>
</linearGradient>
<linearGradient id="paint16_linear_2_3308" x1="147.368" y1="1.25213" x2="137.718" y2="17.9662" gradientUnits="userSpaceOnUse">
<stop stop-color="#CC31F4"/>
<stop offset="0.6113" stop-color="#4D60FB"/>
<stop offset="1" stop-color="#007CFF"/>
</linearGradient>
<linearGradient id="paint17_linear_2_3308" x1="85.4077" y1="1.25013" x2="75.7402" y2="17.9947" gradientUnits="userSpaceOnUse">
<stop stop-color="#CC31F4"/>
<stop offset="0.6113" stop-color="#4D60FB"/>
<stop offset="1" stop-color="#007CFF"/>
</linearGradient>
<linearGradient id="paint18_linear_2_3308" x1="518.682" y1="202.282" x2="537.337" y2="202.282" gradientUnits="userSpaceOnUse">
<stop stop-color="#007EF4"/>
<stop offset="0.0315" stop-color="#007EF5"/>
<stop offset="0.3472" stop-color="#007CFD"/>
<stop offset="1" stop-color="#007CFF"/>
</linearGradient>
<linearGradient id="paint19_linear_2_3308" x1="524.055" y1="158.927" x2="542.738" y2="158.927" gradientUnits="userSpaceOnUse">
<stop stop-color="#007EF4"/>
<stop offset="0.0315" stop-color="#007EF5"/>
<stop offset="0.3472" stop-color="#007CFD"/>
<stop offset="1" stop-color="#007CFF"/>
</linearGradient>
<linearGradient id="paint20_linear_2_3308" x1="434.672" y1="202.277" x2="454.01" y2="202.277" gradientUnits="userSpaceOnUse">
<stop stop-color="#007EF4"/>
<stop offset="0.0315" stop-color="#007EF5"/>
<stop offset="0.3472" stop-color="#007CFD"/>
<stop offset="1" stop-color="#007CFF"/>
</linearGradient>
<linearGradient id="paint21_linear_2_3308" x1="593.582" y1="202.277" x2="615.382" y2="202.277" gradientUnits="userSpaceOnUse">
<stop stop-color="#007EF4"/>
<stop offset="0.0315" stop-color="#007EF5"/>
<stop offset="0.3472" stop-color="#007CFD"/>
<stop offset="1" stop-color="#007CFF"/>
</linearGradient>
<linearGradient id="paint22_linear_2_3308" x1="361.385" y1="158.848" x2="380.788" y2="158.848" gradientUnits="userSpaceOnUse">
<stop stop-color="#007EF4"/>
<stop offset="0.0315" stop-color="#007EF5"/>
<stop offset="0.3472" stop-color="#007CFD"/>
<stop offset="1" stop-color="#007CFF"/>
</linearGradient>
<linearGradient id="paint23_linear_2_3308" x1="501.599" y1="158.9" x2="523.295" y2="158.9" gradientUnits="userSpaceOnUse">
<stop stop-color="#007EF4"/>
<stop offset="0.0315" stop-color="#007EF5"/>
<stop offset="0.3472" stop-color="#007CFD"/>
<stop offset="1" stop-color="#007CFF"/>
</linearGradient>
<linearGradient id="paint24_linear_2_3308" x1="333.375" y1="158.868" x2="355.664" y2="158.868" gradientUnits="userSpaceOnUse">
<stop stop-color="#007EF4"/>
<stop offset="0.0315" stop-color="#007EF5"/>
<stop offset="0.3472" stop-color="#007CFD"/>
<stop offset="1" stop-color="#007CFF"/>
</linearGradient>
<linearGradient id="paint25_linear_2_3308" x1="260.123" y1="158.811" x2="277.451" y2="158.811" gradientUnits="userSpaceOnUse">
<stop stop-color="#007EF4"/>
<stop offset="0.0315" stop-color="#007EF5"/>
<stop offset="0.3472" stop-color="#007CFD"/>
<stop offset="1" stop-color="#007CFF"/>
</linearGradient>
<linearGradient id="paint26_linear_2_3308" x1="456.59" y1="158.902" x2="474.726" y2="158.902" gradientUnits="userSpaceOnUse">
<stop stop-color="#007EF4"/>
<stop offset="0.0315" stop-color="#007EF5"/>
<stop offset="0.3472" stop-color="#007CFD"/>
<stop offset="1" stop-color="#007CFF"/>
</linearGradient>
<linearGradient id="paint27_linear_2_3308" x1="381.14" y1="158.834" x2="398.507" y2="158.834" gradientUnits="userSpaceOnUse">
<stop stop-color="#007EF4"/>
<stop offset="0.0315" stop-color="#007EF5"/>
<stop offset="0.3472" stop-color="#007CFD"/>
<stop offset="1" stop-color="#007CFF"/>
</linearGradient>
<linearGradient id="paint28_linear_2_3308" x1="454.381" y1="202.305" x2="471.694" y2="202.305" gradientUnits="userSpaceOnUse">
<stop stop-color="#007EF4"/>
<stop offset="0.0315" stop-color="#007EF5"/>
<stop offset="0.3472" stop-color="#007CFD"/>
<stop offset="1" stop-color="#007CFF"/>
</linearGradient>
<linearGradient id="paint29_linear_2_3308" x1="558.364" y1="202.527" x2="576.84" y2="202.527" gradientUnits="userSpaceOnUse">
<stop stop-color="#007EF4"/>
<stop offset="0.0315" stop-color="#007EF5"/>
<stop offset="0.3472" stop-color="#007CFD"/>
<stop offset="1" stop-color="#007CFF"/>
</linearGradient>
<linearGradient id="paint30_linear_2_3308" x1="403.312" y1="159.008" x2="424.607" y2="159.008" gradientUnits="userSpaceOnUse">
<stop stop-color="#007EF4"/>
<stop offset="0.0315" stop-color="#007EF5"/>
<stop offset="0.3472" stop-color="#007CFD"/>
<stop offset="1" stop-color="#007CFF"/>
</linearGradient>
<linearGradient id="paint31_linear_2_3308" x1="407.947" y1="202.386" x2="429.019" y2="202.386" gradientUnits="userSpaceOnUse">
<stop stop-color="#007EF4"/>
<stop offset="0.0315" stop-color="#007EF5"/>
<stop offset="0.3472" stop-color="#007CFD"/>
<stop offset="1" stop-color="#007CFF"/>
</linearGradient>
<linearGradient id="paint32_linear_2_3308" x1="239.356" y1="159.051" x2="259.629" y2="159.051" gradientUnits="userSpaceOnUse">
<stop stop-color="#007EF4"/>
<stop offset="0.0315" stop-color="#007EF5"/>
<stop offset="0.3472" stop-color="#007CFD"/>
<stop offset="1" stop-color="#007CFF"/>
</linearGradient>
<linearGradient id="paint33_linear_2_3308" x1="475.593" y1="159.046" x2="495.599" y2="159.046" gradientUnits="userSpaceOnUse">
<stop stop-color="#007EF4"/>
<stop offset="0.0315" stop-color="#007EF5"/>
<stop offset="0.3472" stop-color="#007CFD"/>
<stop offset="1" stop-color="#007CFF"/>
</linearGradient>
<linearGradient id="paint34_linear_2_3308" x1="388.444" y1="202.473" x2="408.445" y2="202.473" gradientUnits="userSpaceOnUse">
<stop stop-color="#007EF4"/>
<stop offset="0.0315" stop-color="#007EF5"/>
<stop offset="0.3472" stop-color="#007CFD"/>
<stop offset="1" stop-color="#007CFF"/>
</linearGradient>
<linearGradient id="paint35_linear_2_3308" x1="537.447" y1="202.438" x2="557.481" y2="202.438" gradientUnits="userSpaceOnUse">
<stop stop-color="#007EF4"/>
<stop offset="0.0315" stop-color="#007EF5"/>
<stop offset="0.3472" stop-color="#007CFD"/>
<stop offset="1" stop-color="#007CFF"/>
</linearGradient>
<linearGradient id="paint36_linear_2_3308" x1="191.424" y1="23.2652" x2="183.256" y2="37.413" gradientUnits="userSpaceOnUse">
<stop stop-color="#CC31F4"/>
<stop offset="0.6113" stop-color="#4D60FB"/>
<stop offset="1" stop-color="#007CFF"/>
</linearGradient>
<linearGradient id="paint37_linear_2_3308" x1="39.9219" y1="23.2394" x2="31.7095" y2="37.4637" gradientUnits="userSpaceOnUse">
<stop stop-color="#CC31F4"/>
<stop offset="0.6113" stop-color="#4D60FB"/>
<stop offset="1" stop-color="#007CFF"/>
</linearGradient>
<linearGradient id="paint38_linear_2_3308" x1="323.741" y1="202.299" x2="339.96" y2="202.299" gradientUnits="userSpaceOnUse">
<stop stop-color="#007EF4"/>
<stop offset="0.0315" stop-color="#007EF5"/>
<stop offset="0.3472" stop-color="#007CFD"/>
<stop offset="1" stop-color="#007CFF"/>
</linearGradient>
<linearGradient id="paint39_linear_2_3308" x1="472.79" y1="202.303" x2="488.856" y2="202.303" gradientUnits="userSpaceOnUse">
<stop stop-color="#007EF4"/>
<stop offset="0.0315" stop-color="#007EF5"/>
<stop offset="0.3472" stop-color="#007CFD"/>
<stop offset="1" stop-color="#007CFF"/>
</linearGradient>
<linearGradient id="paint40_linear_2_3308" x1="578.364" y1="202.291" x2="594.43" y2="202.291" gradientUnits="userSpaceOnUse">
<stop stop-color="#007EF4"/>
<stop offset="0.0315" stop-color="#007EF5"/>
<stop offset="0.3472" stop-color="#007CFD"/>
<stop offset="1" stop-color="#007CFF"/>
</linearGradient>
<linearGradient id="paint41_linear_2_3308" x1="382.912" y1="202.299" x2="388.02" y2="202.299" gradientUnits="userSpaceOnUse">
<stop stop-color="#007EF4"/>
<stop offset="0.0315" stop-color="#007EF5"/>
<stop offset="0.3472" stop-color="#007CFD"/>
<stop offset="1" stop-color="#007CFF"/>
</linearGradient>
<linearGradient id="paint42_linear_2_3308" x1="496.238" y1="159.01" x2="501.366" y2="159.01" gradientUnits="userSpaceOnUse">
<stop stop-color="#007EF4"/>
<stop offset="0.0315" stop-color="#007EF5"/>
<stop offset="0.3472" stop-color="#007CFD"/>
<stop offset="1" stop-color="#007CFF"/>
</linearGradient>
<linearGradient id="paint43_linear_2_3308" x1="510.331" y1="142.918" x2="516.892" y2="142.918" gradientUnits="userSpaceOnUse">
<stop stop-color="#007EF4"/>
<stop offset="0.0315" stop-color="#007EF5"/>
<stop offset="0.3472" stop-color="#007CFD"/>
<stop offset="1" stop-color="#007CFF"/>
</linearGradient>
<linearGradient id="paint44_linear_2_3308" x1="348.174" y1="186.395" x2="354.931" y2="186.395" gradientUnits="userSpaceOnUse">
<stop stop-color="#007EF4"/>
<stop offset="0.0315" stop-color="#007EF5"/>
<stop offset="0.3472" stop-color="#007CFD"/>
<stop offset="1" stop-color="#007CFF"/>
</linearGradient>
<linearGradient id="paint45_linear_2_3308" x1="512.635" y1="186.573" x2="519.371" y2="186.573" gradientUnits="userSpaceOnUse">
<stop stop-color="#007EF4"/>
<stop offset="0.0315" stop-color="#007EF5"/>
<stop offset="0.3472" stop-color="#007CFD"/>
<stop offset="1" stop-color="#007CFF"/>
</linearGradient>
</defs>
</svg>
