<svg width="646" height="240" viewBox="0 0 646 240" fill="none" xmlns="http://www.w3.org/2000/svg">
<path fill-rule="evenodd" clip-rule="evenodd" d="M622.197 120.727C622.801 120.021 623.45 119.348 623.995 118.6C624.733 117.588 625.989 116.521 625.995 115.472C626.114 95.1237 626.118 74.7738 625.987 54.4258C625.98 53.2888 624.63 52.1428 623.854 51.0358C623.466 50.4828 622.965 50.0088 622.514 49.4978C623.057 49.0878 623.595 48.3277 624.143 48.3207C630.726 48.2387 637.311 48.2468 643.893 48.3088C644.435 48.3138 644.972 48.8898 645.51 49.2008C645.158 49.7968 644.907 50.8038 644.438 50.9198C642.24 51.4638 642.061 53.0417 642.062 54.8337C642.077 74.8837 642.086 94.9328 642.087 114.983C642.087 116.787 642.232 118.384 644.534 118.762C644.956 118.832 645.535 119.753 645.502 120.245C645.473 120.687 644.705 121.435 644.257 121.44C637.095 121.516 629.93 121.493 622.767 121.493C622.578 121.238 622.388 120.983 622.197 120.727Z" fill="black"/>
<path fill-rule="evenodd" clip-rule="evenodd" d="M143.186 18.995C138.098 18.943 133.649 14.394 133.753 9.349C133.858 4.265 138.135 -0.00499561 143.115 4.38666e-06C148.611 0.00600439 152.88 4.224 152.815 9.583C152.754 14.739 148.346 19.048 143.186 18.995Z" fill="black"/>
<path fill-rule="evenodd" clip-rule="evenodd" d="M80.9465 18.997C75.8465 19.087 71.3335 14.719 71.2395 9.60002C71.1445 4.44402 75.3885 0.139012 80.6915 0.0100116C85.8555 -0.114988 90.2795 4.13702 90.4025 9.34502C90.5215 14.378 86.0875 18.905 80.9465 18.997Z" fill="black"/>
<path fill-rule="evenodd" clip-rule="evenodd" d="M36.1125 22.0671C40.2985 22.0391 44.0865 25.78 44.1965 30.05C44.3045 34.205 40.5095 38.106 36.2475 38.222C31.9505 38.339 28.1775 34.712 28.0685 30.36C27.9585 25.937 31.6815 22.0971 36.1125 22.0671Z" fill="black"/>
<path fill-rule="evenodd" clip-rule="evenodd" d="M188.026 22.0679C192.401 22.0879 196.133 25.952 196.06 30.384C195.991 34.551 192.372 38.1409 188.157 38.2229C183.815 38.3069 179.86 34.376 179.921 30.036C179.98 25.839 183.835 22.0479 188.026 22.0679Z" fill="black"/>
<path fill-rule="evenodd" clip-rule="evenodd" d="M55.2075 46.314C48.9595 45.983 43.2096 46.865 39.1576 51.504C36.4156 54.643 34.5976 58.6489 32.6866 62.4289C31.7556 64.2709 31.0766 66.131 28.6756 65.312C26.4476 64.552 26.4026 62.58 26.8646 60.557C29.8356 47.549 43.1235 38.855 56.4545 41.062C57.3875 41.217 58.7036 40.371 59.5296 39.639C63.8306 35.825 67.6115 31.262 72.3495 28.134C84.8265 19.897 96.8775 21.362 109.643 30.277C110.368 30.783 111.021 31.3919 111.78 32.0109C116.345 27.7899 121.948 25.732 127.654 23.893C134.828 21.582 141.651 22.842 148.243 26.057C154.728 29.219 160.193 33.656 164.4 39.527C165.491 41.05 166.493 41.4139 168.359 41.0279C180.686 38.4839 195.438 48.7479 197.29 61.2439C197.477 62.5039 196.413 64.703 195.326 65.236C193.312 66.223 192.388 64.456 191.504 62.65C189.683 58.932 187.972 54.988 185.338 51.881C181.201 47.002 175.342 45.9019 169.52 46.3039C169.714 50.1659 170.228 53.721 169.948 57.211C169.766 59.476 168.706 61.8259 167.467 63.7739C166.965 64.5639 164.939 64.385 163.607 64.647C163.367 63.41 162.539 61.8779 162.986 60.9849C165.33 56.3039 164.662 51.774 162.406 47.495C158.366 39.832 152.282 34.125 144.27 30.793C133.99 26.517 124.735 29.397 116.204 35.618C115.052 36.458 114.315 37.9249 113.523 39.1879C112.53 40.7709 111.693 41.038 110.355 39.457C98.5626 25.53 81.4875 25.19 68.2635 38.707C63.9056 43.162 59.8836 47.9799 59.8916 54.7179C59.8936 56.6309 60.3716 58.639 61.0776 60.428C61.7866 62.226 62.2406 64.07 60.2116 64.663C59.0496 65.002 56.7596 64.107 56.0926 63.059C53.4516 58.908 53.3106 54.235 54.3956 49.508C54.6116 48.561 54.8725 47.624 55.2075 46.314Z" fill="black"/>
<path fill-rule="evenodd" clip-rule="evenodd" d="M55.0975 138.048C50.6205 131.197 51.5485 124.293 55.2345 117.625C58.2005 112.258 63.2715 110.458 69.1775 110.708C69.8505 110.737 70.7975 110.855 71.1185 111.295C71.8595 112.312 72.7595 113.588 72.6715 114.686C72.6225 115.306 70.6885 116.324 69.6975 116.225C65.4005 115.795 61.8135 116.78 59.9525 120.907C57.8285 125.619 56.6995 130.723 60.4595 135.037C68.8245 144.634 87.0985 149.398 99.5775 138.225C105.717 132.728 108.525 125.724 106.528 117.48C104.886 110.702 98.3255 107.787 91.9685 110.623C88.0625 112.365 86.0115 118.654 88.4495 122.129C89.1365 123.109 90.8245 123.336 91.9285 124.091C92.8785 124.74 93.6505 125.649 94.5015 126.442C93.6615 127.304 92.9695 128.611 91.9555 128.947C88.4305 130.115 84.6875 128.32 82.9835 124.828C80.2755 119.278 81.2405 113.985 84.5225 108.571C83.0395 108.179 81.6745 107.779 80.2915 107.462C75.3985 106.338 71.1875 104.032 67.6365 100.458C65.4565 98.2639 63.1865 96.1539 60.8785 94.0929C57.1215 90.7389 52.7245 88.7389 47.6945 88.2389C45.2305 87.9939 42.8935 88.1939 41.2815 90.4979C40.1495 92.1159 38.6115 92.7779 36.9465 91.4399C35.2325 90.0619 35.4155 88.2069 36.6505 86.6279C39.3295 83.2009 43.1085 81.5779 47.2365 82.3379C51.4835 83.1189 55.5585 84.8529 59.6885 86.2299C60.5025 86.5009 61.2255 87.0469 61.9765 87.4589C62.6705 84.5699 63.1285 81.8099 64.0045 79.1909C65.9005 73.5249 69.5565 69.3269 75.1005 66.9079C76.9045 66.1209 78.9435 65.4189 80.1065 67.6199C81.3715 70.0139 79.6475 71.4249 77.6595 72.1829C69.1995 75.4099 64.4595 89.8679 73.5015 97.7619C81.7085 104.927 99.1155 103.968 106.22 95.7199C108.626 92.9259 108.947 89.5619 108.147 86.1249C107.985 85.4309 106.92 84.6219 106.142 84.4479C96.6455 82.3259 90.0605 75.2819 88.4355 65.6969C87.8565 62.2829 87.2505 58.6959 85.6985 55.6809C84.4755 53.3039 81.9695 51.4129 79.6775 49.8209C78.1555 48.7639 76.3635 47.8909 77.4895 46.0859C78.1375 45.0459 80.7555 44.0719 81.6645 44.5689C84.8175 46.2959 87.6105 48.6789 90.8575 51.0439C91.4435 50.5859 92.5645 49.4589 93.9025 48.7319C95.6365 47.7899 97.5295 47.8499 98.6205 49.7419C99.6135 51.4639 98.6185 52.7339 97.0965 53.7039C94.8735 55.1219 94.1795 57.2449 94.0195 59.8239C93.7375 64.4119 94.9815 68.5899 97.3095 72.3689C99.9675 76.6839 103.965 78.8499 109.16 79.4169C124.63 81.1029 130.857 70.2599 129.874 58.4319C129.739 56.8039 128.309 55.0569 127.041 53.8099C125.725 52.5169 124.355 51.4609 125.621 49.5909C126.841 47.7869 128.684 47.8249 130.401 48.8389C131.582 49.5369 132.584 50.5369 133.848 51.5479C134.427 50.8359 134.913 49.9559 135.643 49.3909C137.902 47.6469 140.104 45.6989 142.648 44.5219C143.577 44.0929 146.036 45.2319 146.677 46.3169C147.676 48.0069 146.093 49.0729 144.442 49.7499C138.553 52.1649 136.824 57.3869 136.145 62.9739C135.339 69.6019 132.957 75.2639 127.864 79.7119C124.925 82.2789 121.658 83.9619 117.738 84.4899C116.832 84.6129 115.474 85.5829 115.321 86.3599C114.652 89.7489 114.825 92.9399 117.718 95.6309C125.5 102.873 137.067 104.824 146.662 100.237C152.181 97.5989 155.497 93.3299 155.44 87.0909C155.384 80.9299 153.028 75.8199 147.398 72.6669C145.435 71.5669 142.769 70.8989 143.907 67.7549C144.64 65.7279 147.052 65.7569 150.485 67.6089C156.562 70.8879 159.694 76.2479 161.173 82.7559C161.503 84.2059 161.63 85.7009 161.897 87.4919C162.648 87.1249 163.276 86.7419 163.955 86.4999C167.965 85.0759 171.9 83.2889 176.028 82.3939C180.103 81.5109 183.975 82.8099 186.934 85.9789C188.445 87.5979 189.085 89.6039 187.282 91.2929C185.423 93.0359 184.129 91.5099 182.489 90.2719C180.905 89.0779 178.566 88.2659 176.593 88.3299C172.014 88.4799 167.847 90.2459 164.313 93.2529C162.338 94.9339 160.298 96.5789 158.553 98.4829C153.788 103.685 148.062 107.007 141.057 108.071C140.59 108.142 140.153 108.409 139.594 108.628C142.795 113.655 143.79 118.862 141.366 124.368C139.632 128.306 135.461 130.301 131.788 128.841C130.892 128.485 129.966 127.248 129.824 126.299C129.731 125.679 130.947 124.322 131.71 124.212C134.297 123.836 136.074 122.825 136.394 120.065C136.763 116.881 136.542 113.797 133.817 111.603C129.33 107.989 122.183 109.597 118.855 114.289C113.756 121.478 118.009 131.477 123.034 136.757C135.507 149.862 155.195 145.025 163.83 134.801C167.396 130.577 166.254 125.509 164.159 120.893C162.284 116.761 158.712 115.826 154.408 116.206C153.38 116.297 152.215 114.843 151.113 114.1C152.198 112.985 153.108 111.217 154.399 110.871C159.443 109.522 166.211 112.855 168.945 117.621C172.76 124.269 172.817 130.411 168.943 138.48C170.324 139.301 171.677 140.29 173.173 140.962C182.923 145.344 192.955 146.279 203.229 143.061C210.369 140.825 215.508 136.54 217.153 128.86C218.194 124.004 216.705 119.915 213.092 116.72C208.821 112.942 201.804 114.54 200.594 119.594C200.251 121.025 200.896 123.091 201.815 124.323C202.886 125.76 204.01 127.202 202.522 128.386C201.509 129.193 199.146 129.44 198.055 128.799C194.692 126.825 193.992 123.378 194.337 119.842C191.26 119.049 188.105 118.579 185.256 117.38C183.348 116.577 181.552 114.981 180.29 113.301C178.713 111.203 179.818 108.018 182.019 107.707C182.96 107.573 184.512 108.159 184.988 108.918C187.753 113.323 192.03 114.925 196.758 113.027C200.339 111.589 204.062 110.412 207.431 108.584C208.874 107.8 209.971 105.794 210.554 104.111C213.012 97.0179 210.376 88.7929 204.579 83.7929C203.69 83.0259 202.93 81.0819 203.287 80.1179C203.969 78.2769 205.937 78.0799 207.601 79.0099C208.875 79.7229 210.126 80.6789 211.035 81.8099C217.791 90.2169 219.173 99.3299 214.357 109.169C214.234 109.42 214.176 109.704 214.067 110.033C220.571 114.206 224.283 120.077 223.433 127.832C222.402 137.233 217.122 143.862 208.327 147.425C193.505 153.431 179.431 151.572 166.074 143.063C165.744 142.853 165.395 142.674 164.986 142.441C156.019 148.564 146.361 152.231 135.369 149.919C124.467 147.626 116.587 141.271 111.757 131.196C104.687 149.526 80.5195 157.898 59.0755 142.435C52.7535 147.094 45.4195 149.593 37.6445 150.599C28.9045 151.729 20.5185 150.102 12.7365 145.934C7.72953 143.252 4.05154 139.25 2.18054 133.79C1.32854 131.304 -0.0524626 128.749 0.00153738 126.251C0.135537 120.172 3.38253 115.423 7.91653 111.539C8.58453 110.967 9.37254 110.535 10.0845 110.051C5.01254 100.114 6.05354 90.8629 12.7245 82.2269C13.7285 80.9269 15.0955 79.5669 16.5735 79.0779C17.7825 78.6789 19.9035 79.0709 20.7325 79.9489C22.0025 81.2939 21.0345 82.7649 19.5595 83.9159C13.0115 89.0209 10.6165 99.6219 14.5995 106.332C15.2945 107.503 16.8685 108.271 18.1845 108.929C20.3055 109.99 22.6495 110.621 24.7185 111.762C28.5535 113.875 32.4105 114.643 36.3785 112.432C37.3855 111.871 37.9565 110.57 38.8325 109.717C39.6725 108.899 40.7075 107.573 41.5525 107.648C42.5365 107.735 44.1495 109.084 44.1695 109.917C44.2095 111.533 43.7655 113.56 42.7375 114.725C40.2065 117.595 36.6735 118.822 32.8785 119.165C31.9055 119.253 30.9185 119.179 30.3645 119.179C29.6975 121.813 29.4815 124.269 28.4265 126.287C27.6935 127.689 25.9375 128.833 24.3845 129.414C23.5925 129.711 21.8435 128.777 21.2755 127.909C20.8595 127.274 21.3025 125.37 21.9855 124.849C24.1675 123.185 24.3395 121.229 23.4135 119.014C22.4355 116.673 20.7945 115.071 18.0395 114.921C10.8105 114.525 5.35054 120.925 6.81654 128.297C7.94654 133.977 10.8465 138.578 16.2145 141.084C28.7805 146.948 41.1765 146.081 53.3225 139.692C53.7595 139.463 54.1515 139.141 54.5405 138.832C54.6905 138.716 54.7735 138.515 55.0975 138.048ZM104.335 104.563C106.982 107.48 109.507 110.262 111.634 112.606C114.301 109.999 117.112 107.249 119.818 104.603C117.201 102.627 114.347 100.472 111.683 98.4589C109.162 100.553 106.595 102.686 104.335 104.563Z" fill="black"/>
<path fill-rule="evenodd" clip-rule="evenodd" d="M318.42 52.8839C318.542 53.7919 319.09 54.9599 318.719 55.5649C315.545 60.7429 312.205 65.8179 308.825 71.0629C308.259 70.6609 307.582 70.4309 307.538 70.1119C307.049 66.6259 304.482 65.0899 301.672 63.9029C291.555 59.6339 281.217 57.7799 270.502 61.5759C259.831 65.3579 253.568 73.9399 253.629 84.5449C253.691 95.2819 260.138 104.038 270.975 107.467C283.437 111.411 295.243 109.038 306.433 102.88C308.552 101.714 310.834 100.244 310.192 97.0519C310.131 96.7509 310.676 96.0549 310.998 96.0169C311.452 95.9629 312.178 96.2089 312.41 96.5699C315.108 100.768 317.779 104.986 320.305 109.288C320.523 109.661 319.838 111.042 319.269 111.311C317.32 112.231 315.133 112.663 313.219 113.638C301.695 119.512 289.655 122.941 276.587 121.576C264.622 120.326 253.854 116.559 245.725 107.037C234.245 93.5909 233.769 64.3279 258.773 52.5919C272.007 46.3809 285.803 46.2019 299.766 49.4399C304.22 50.4729 308.519 52.1589 312.933 53.3849C314.389 53.7899 315.987 53.6889 317.519 53.8189C317.818 53.5059 318.119 53.1949 318.42 52.8839Z" fill="black"/>
<path fill-rule="evenodd" clip-rule="evenodd" d="M590.934 72.494C590.175 71.603 589.701 71.293 589.603 70.891C588.816 67.667 586.512 65.79 583.731 64.502C573.47 59.751 562.854 57.9011 551.753 61.1261C550.156 61.5901 548.566 62.3441 547.201 63.2931C543.305 66.0031 543.452 71.2691 547.763 73.2561C550.951 74.7261 554.567 75.5411 558.076 75.9871C566.088 77.0071 574.157 77.5651 582.189 78.4401C584.15 78.6531 586.108 79.2221 587.979 79.8801C595.43 82.5011 600.435 87.293 601.319 95.524C602.182 103.559 599.422 109.965 592.75 114.686C585.679 119.69 577.535 121.003 569.223 121.572C557.244 122.391 545.48 121.61 534.405 116.227C533.232 115.657 531.583 115.91 530.173 116.021C528.473 116.155 527.5 115.75 528.303 113.928C530.551 108.83 532.897 103.777 535.253 98.597C535.822 98.838 536.415 98.9151 536.477 99.1391C537.613 103.233 541.047 104.723 544.458 106.16C555.979 111.015 567.668 111.617 579.464 107.231C580.923 106.689 582.329 105.767 583.499 104.728C586.654 101.925 586.162 96.8461 582.268 95.3231C578.806 93.9691 574.993 93.3041 571.273 92.8631C563.153 91.8991 554.99 91.308 546.854 90.472C545.285 90.311 543.726 89.8321 542.219 89.3281C534.828 86.8561 529.797 82.194 528.724 74.145C527.621 65.885 530.48 59.1601 537.258 54.3501C546.099 48.0761 556.244 46.9681 566.708 47.5471C575.353 48.0251 583.616 50.1941 591.736 53.1331C593.775 53.8711 596.147 53.781 598.374 53.873C599.817 53.933 601.03 54.1021 600.107 55.8331C597.213 61.2691 594.18 66.627 590.934 72.494Z" fill="black"/>
<path fill-rule="evenodd" clip-rule="evenodd" d="M456.237 92.1018C456.237 100.142 456.15 108.105 456.359 116.061C456.381 116.948 458.09 117.79 459.016 118.654C459.579 119.181 460.138 119.711 460.699 120.24C460.053 120.664 459.412 121.448 458.76 121.457C451.477 121.551 444.192 121.551 436.907 121.484C436.313 121.478 435.724 120.794 435.134 120.425C435.65 119.857 436.135 118.836 436.688 118.798C439.736 118.589 440.345 116.891 440.334 114.162C440.255 94.6018 440.251 75.0408 440.343 55.4798C440.357 52.6778 439.564 51.1178 436.618 50.8808C436.09 50.8378 435.624 50.0038 435.13 49.5348C435.661 49.1128 436.137 48.5518 436.74 48.3098C437.257 48.1038 437.921 48.2638 438.519 48.2638C453.489 48.2608 468.461 48.1108 483.427 48.3368C488.467 48.4138 493.628 48.9138 498.497 50.1518C508.911 52.8008 513.691 59.6708 513.397 70.3658C513.086 81.6438 507.989 88.0578 496.924 90.3098C492.368 91.2368 487.638 91.5328 482.975 91.6488C474.398 91.8638 465.811 91.7318 457.229 91.7558C457.044 91.7588 456.859 91.8818 456.237 92.1018ZM456.392 61.2828C456.392 67.1208 456.392 72.8268 456.392 78.6688C457.03 78.7468 457.502 78.8548 457.976 78.8548C467.538 78.8598 477.099 78.8848 486.66 78.8168C488.233 78.8048 489.843 78.5258 491.367 78.1138C495.555 76.9838 497.261 74.6778 497.346 70.3328C497.454 64.8088 494.969 61.6318 488.82 61.3958C478.099 60.9868 467.353 61.2828 456.392 61.2828Z" fill="black"/>
<path fill-rule="evenodd" clip-rule="evenodd" d="M364.678 48.4209C372.662 48.4209 380.216 48.4209 388.462 48.4209C388.048 49.4989 387.956 50.8089 387.358 51.1089C384.628 52.4769 385.226 54.4199 386.214 56.4059C389.149 62.2999 392.146 68.1629 395.141 74.0259C401.859 87.1769 408.536 100.349 415.379 113.434C416.34 115.272 418.195 116.628 419.533 118.291C420.15 119.06 420.517 120.03 421.321 121.498C412.842 121.498 405.269 121.513 397.698 121.462C397.219 121.459 396.331 120.921 396.346 120.677C396.39 119.986 396.617 118.964 397.107 118.706C398.878 117.774 398.576 116.459 397.949 115.147C396.272 111.639 394.57 108.137 392.693 104.735C392.328 104.073 391.129 103.522 390.309 103.515C380.224 103.433 370.138 103.433 360.053 103.517C359.24 103.524 358.044 104.088 357.687 104.75C355.794 108.258 354.054 111.853 352.39 115.477C351.799 116.763 351.446 118.177 353.525 118.802C353.999 118.945 354.4 119.968 354.44 120.61C354.457 120.875 353.433 121.459 352.878 121.464C347.188 121.527 341.495 121.527 335.805 121.457C335.268 121.451 334.428 120.955 334.288 120.51C334.13 120.007 334.465 119.206 334.825 118.707C336.308 116.652 338.172 114.818 339.361 112.615C341.633 108.407 343.503 103.983 345.606 99.6799C352.471 85.6439 359.363 71.6209 366.251 57.5969C367.44 55.1749 369.235 52.7379 365.343 50.9259C364.888 50.7149 364.926 49.4379 364.678 48.4209ZM386.913 92.7469C383.079 84.2529 379.381 76.0599 375.459 67.3709C371.043 76.1079 366.923 84.2619 362.634 92.7469C370.882 92.7469 378.681 92.7469 386.913 92.7469Z" fill="black"/>
<path fill-rule="evenodd" clip-rule="evenodd" d="M519.047 140.846C515.436 145.131 515.436 145.131 512.512 144.799C513.985 140.445 514.498 140.119 519.047 140.846Z" fill="black"/>
<path fill-rule="evenodd" clip-rule="evenodd" d="M334.711 158.456C334.763 152.771 337.098 148.812 341.232 147.401C346.183 145.71 351.576 147.03 354.301 150.6C357.6 154.919 357.361 162.991 353.813 167.095C351.097 170.236 345.554 171.338 341.073 169.628C336.949 168.055 334.661 164.037 334.711 158.456ZM351.821 158.605C351.789 158.047 351.788 157.347 351.7 156.659C351.223 152.911 349.277 151.048 345.698 150.879C342.424 150.724 340.243 152.508 339.645 156.178C339.379 157.808 339.371 159.574 339.697 161.188C340.586 165.589 344.134 167.462 348.245 165.731C351.297 164.445 351.673 161.615 351.821 158.605Z" fill="black"/>
<path fill-rule="evenodd" clip-rule="evenodd" d="M503.808 158.398C503.832 151.689 507.175 147.497 513.028 146.834C517.959 146.276 521.75 148.152 523.788 152.161C526.066 156.64 525.366 163.657 522.293 167.162C519.59 170.244 514.453 171.276 510.12 169.609C506.031 168.037 503.787 164.051 503.808 158.398ZM520.462 158.958C520.3 157.599 520.252 156.596 520.052 155.624C519.455 152.731 517.432 150.965 514.705 150.876C511.851 150.782 509.508 152.211 509.077 155.153C508.702 157.716 508.869 160.505 509.487 163.024C510.052 165.326 512.234 166.384 514.646 166.307C517.063 166.23 518.829 164.991 519.626 162.682C520.077 161.379 520.242 159.978 520.462 158.958Z" fill="black"/>
<path fill-rule="evenodd" clip-rule="evenodd" d="M260.085 154.665C257.913 155.088 256.126 155.433 254.581 152.873C252.789 149.902 247.616 150.515 246.574 153.946C245.727 156.734 245.812 160.026 246.374 162.922C246.628 164.235 248.979 165.879 250.488 166C251.957 166.116 253.544 164.437 255.121 163.624C256.576 162.874 258.085 162.23 259.957 161.359C259.713 166.167 257.089 169.267 253.344 170.093C248.772 171.104 244.132 169.367 242.198 165.606C239.859 161.053 239.924 156.309 242.237 151.784C244.233 147.881 248.72 146.298 253.655 147.364C257.336 148.159 259.699 150.791 260.085 154.665Z" fill="black"/>
<path fill-rule="evenodd" clip-rule="evenodd" d="M497.748 154.622C495.377 155.02 493.527 155.57 492.016 152.922C490.421 150.126 486.041 150.526 484.16 153.298C482.42 155.861 482.355 161.326 484.038 163.894C485.979 166.859 490.152 167.052 492.13 164.267C493.925 161.737 493.925 161.737 497.383 162.428C496.818 166.676 494.054 169.594 490.026 170.197C485.246 170.913 481.059 169.007 479.278 165.009C477.355 160.695 477.382 156.262 479.507 152.012C481.413 148.201 484.975 146.656 489.873 147.214C494.083 147.695 496.542 149.918 497.748 154.622Z" fill="black"/>
<path fill-rule="evenodd" clip-rule="evenodd" d="M458.478 147.726C462.367 146.529 464.541 147.871 466.088 151.221C467.672 154.647 469.779 157.832 471.668 161.117C471.759 161.273 471.966 161.362 472.509 161.792C472.509 156.931 472.509 152.365 472.509 147.597C474.12 147.597 475.353 147.597 476.805 147.597C476.805 154.854 476.805 162.08 476.805 169.36C473.78 170.372 471.845 169.471 470.38 166.566C468.341 162.522 465.907 158.676 463.643 154.747C463.361 154.829 463.08 154.911 462.797 154.992C462.797 159.778 462.797 164.564 462.797 169.519C461.147 169.519 459.908 169.519 458.478 169.519C458.478 162.192 458.478 154.969 458.478 147.726Z" fill="black"/>
<path fill-rule="evenodd" clip-rule="evenodd" d="M304.357 151.669C301.893 151.669 299.947 151.669 297.654 151.669C297.654 157.665 297.654 163.504 297.654 169.317C294.552 170.155 292.501 169.846 291.048 166.814C289.173 162.904 286.77 159.246 283.942 155.604C283.942 160.196 283.942 164.788 283.942 169.532C282.27 169.532 281.012 169.532 279.53 169.532C279.53 162.19 279.53 154.97 279.53 147.715C282.594 146.785 284.667 147.313 286.147 150.401C287.97 154.204 290.294 157.767 293.064 161.267C293.064 156.76 293.064 152.253 293.064 147.383C298.784 147.383 304.142 147.38 309.502 147.384C315.385 147.388 321.268 147.368 327.15 147.417C330.293 147.443 332.826 148.571 333.918 151.787C334.912 154.716 333.903 157.043 332.27 158.343C333.05 162.309 333.744 165.832 334.44 169.377C329.147 170.133 329.086 170.085 328.91 165.274C328.776 161.615 328.306 161.142 324.694 161.087C323.505 161.069 322.314 161.084 320.706 161.084C320.706 163.997 320.706 166.722 320.706 169.561C319.022 169.561 317.759 169.561 316.038 169.561C316.038 163.573 316.038 157.664 316.038 151.663C313.536 151.663 311.494 151.663 309.1 151.663C309.1 157.637 309.1 163.47 309.1 169.496C307.396 169.496 306.044 169.496 304.36 169.496C304.357 163.682 304.357 157.846 304.357 151.669ZM320.765 157.042C323.012 157.042 325.207 157.299 327.286 156.919C328.148 156.762 329.434 155.147 329.322 154.369C329.172 153.334 327.974 151.873 326.994 151.66C325.041 151.234 322.93 151.534 320.765 151.534C320.765 153.536 320.765 155.187 320.765 157.042Z" fill="black"/>
<path fill-rule="evenodd" clip-rule="evenodd" d="M540.1 161.185C540.1 156.726 540.1 152.268 540.1 147.6C541.604 147.6 542.845 147.6 544.333 147.6C544.333 154.802 544.333 162.01 544.333 169.314C541.414 170.279 539.395 169.756 537.911 166.678C536.019 162.755 533.618 159.079 530.911 155.351C530.911 160.022 530.911 164.695 530.911 169.523C529.265 169.523 528.013 169.523 526.568 169.523C526.568 162.22 526.568 154.996 526.568 147.667C529.606 146.851 531.724 147.329 533.206 150.584C534.915 154.337 537.263 157.798 539.333 161.386C539.59 161.32 539.846 161.253 540.1 161.185Z" fill="black"/>
<path fill-rule="evenodd" clip-rule="evenodd" d="M426.077 169.409C423.234 169.843 420.647 170.57 419.989 166.682C419.893 166.118 418.836 165.392 418.157 165.313C416.485 165.118 414.76 165.128 413.086 165.318C412.374 165.398 411.242 166.044 411.146 166.583C410.521 170.087 408.227 169.995 405.206 169.439C406.204 166.533 407.14 163.753 408.115 160.989C409.508 157.043 410.835 153.068 412.418 149.199C412.751 148.385 414.07 147.491 414.933 147.492C416.208 147.496 418.304 147.945 418.625 148.764C421.274 155.514 423.595 162.392 426.077 169.409ZM415.892 153.742C415.683 153.731 415.474 153.721 415.264 153.71C414.501 156.103 413.738 158.498 412.934 161.017C414.851 161.017 416.396 161.017 418.179 161.017C417.37 158.441 416.632 156.092 415.892 153.742Z" fill="black"/>
<path fill-rule="evenodd" clip-rule="evenodd" d="M498.65 147.551C500.181 147.551 501.52 147.551 503.073 147.551C503.073 154.862 503.073 161.998 503.073 169.414C501.627 169.414 500.219 169.414 498.65 169.414C498.65 162.142 498.65 154.92 498.65 147.551Z" fill="black"/>
<path fill-rule="evenodd" clip-rule="evenodd" d="M266.415 159.91C266.314 161.201 266.292 161.982 266.185 162.751C265.885 164.895 266.604 165.845 268.945 165.705C272.004 165.522 275.082 165.66 278.351 165.66C278.351 167.071 278.351 168.194 278.351 169.508C272.862 169.508 267.435 169.508 261.798 169.508C261.798 162.184 261.798 154.975 261.798 147.575C267.16 147.575 272.386 147.575 277.812 147.575C277.812 148.808 277.812 149.945 277.812 151.463C274.037 151.463 270.307 151.463 266.395 151.463C266.395 153.088 266.395 154.337 266.395 156.025C269.833 156.025 273.252 156.025 276.827 156.025C276.827 157.507 276.827 158.554 276.827 159.911C273.419 159.91 270.074 159.91 266.415 159.91Z" fill="black"/>
<path fill-rule="evenodd" clip-rule="evenodd" d="M387.759 159.911C387.759 162.118 387.759 163.689 387.759 165.567C391.731 165.567 395.582 165.567 399.658 165.567C399.658 167 399.658 168.13 399.658 169.491C394.229 169.491 388.805 169.491 383.156 169.491C383.156 162.213 383.156 155.004 383.156 147.583C388.474 147.583 393.699 147.583 399.124 147.583C399.124 148.791 399.124 149.939 399.124 151.41C395.41 151.41 391.769 151.41 387.887 151.41C387.887 153.048 387.887 154.374 387.887 156.03C391.243 156.03 394.594 156.03 398.249 156.03C398.319 157.38 398.372 158.422 398.449 159.912C394.865 159.911 391.442 159.911 387.759 159.911Z" fill="black"/>
<path fill-rule="evenodd" clip-rule="evenodd" d="M363.349 169.557C363.349 162.051 363.349 154.923 363.349 147.701C367.44 147.701 371.381 147.53 375.299 147.759C378.135 147.924 379.987 149.863 381.038 152.401C382.858 156.793 382.845 161.331 380.316 165.302C379.125 167.174 376.703 168.973 374.568 169.376C371.03 170.044 367.273 169.557 363.349 169.557ZM368.063 151.433C368.063 156.462 368.063 160.99 368.063 165.774C371.04 165.708 374.189 166.664 375.996 163.586C377.92 160.308 378.122 156.596 376.184 153.332C374.362 150.261 371.033 151.781 368.063 151.433Z" fill="black"/>
<path fill-rule="evenodd" clip-rule="evenodd" d="M428.703 151.516C426.247 151.516 424.373 151.516 422.128 151.516C422.063 150.193 422.006 149.063 421.936 147.644C433.534 147.644 444.93 147.644 456.334 147.644C457.287 151.185 457.087 151.489 453.698 151.507C451.015 151.521 448.333 151.51 445.402 151.51C445.402 153.046 445.402 154.372 445.402 156.033C448.766 156.033 452.123 156.033 455.777 156.033C455.844 157.391 455.897 158.436 455.971 159.924C452.367 159.924 448.943 159.924 445.337 159.924C445.337 161.994 445.337 163.636 445.337 165.634C449.268 165.634 453.117 165.634 457.162 165.634C457.162 167.107 457.162 168.229 457.162 169.528C451.674 169.528 446.321 169.528 440.585 169.528C440.585 163.559 440.585 157.631 440.585 151.654C438.061 151.654 435.924 151.654 433.44 151.654C433.44 157.655 433.44 163.496 433.44 169.515C431.751 169.515 430.404 169.515 428.702 169.515C428.703 163.593 428.703 157.755 428.703 151.516Z" fill="black"/>
<path fill-rule="evenodd" clip-rule="evenodd" d="M5.3175 159.355C10.2715 161.703 15.1405 164.82 20.4645 166.359C30.2495 169.185 39.5895 166.137 48.6825 162.464C54.9005 159.953 61.1605 157.47 68.0725 158.287C75.1615 159.125 81.9845 160.961 88.2785 164.433C94.3165 167.763 100.267 171.186 107.413 171.702C115.549 172.288 123.285 171.381 130.581 167.356C134.931 164.958 139.46 162.808 144.09 161.015C154.465 156.998 164.705 157.498 174.894 162.171C180.969 164.958 187.354 166.979 194.169 167.285C201.277 167.606 207.849 166.184 213.697 161.969C215.301 160.814 216.939 159.703 218.843 158.759C217.763 162.595 217.739 166.776 213.38 169.08C204.004 174.035 194.268 174.342 184.301 171.672C180.267 170.591 176.199 169.352 172.446 167.56C161.029 162.11 150.132 164.039 139.348 169.27C137.643 170.097 136.012 171.075 134.338 171.967C119.467 179.9 104.617 179.915 89.7265 171.96C86.2145 170.083 82.6475 168.238 78.9375 166.815C69.6665 163.259 60.5305 163.441 51.3425 167.691C44.3575 170.922 36.9535 173.483 29.1345 173.168C24.1255 172.966 19.0125 172.087 14.2195 170.619C8.0045 168.717 6.0375 165.542 5.3175 159.355Z" fill="black"/>
<path fill-rule="evenodd" clip-rule="evenodd" d="M356.981 184.009C354.673 186.049 353.558 188.978 350.057 188.267C351.554 183.873 351.891 183.645 356.981 184.009Z" fill="black"/>
<path fill-rule="evenodd" clip-rule="evenodd" d="M514.869 188.477C516.64 183.909 516.942 183.708 521.931 184.271C519.505 186.155 518.608 189.394 514.869 188.477Z" fill="black"/>
<path fill-rule="evenodd" clip-rule="evenodd" d="M23.8046 197.604C33.5886 199.219 41.4656 195.938 49.1386 191.538C59.4366 185.631 69.7736 187.611 79.8686 192.132C84.0376 193.999 87.8176 196.717 91.9076 198.785C105.503 205.663 119.121 205.628 132.663 198.564C139.268 195.12 145.352 190.724 152.876 189.045C161.158 187.197 168.865 187.748 176.23 192.185C183.387 196.497 191.019 199.099 199.628 197.726C197.169 203.448 194.901 204.957 189.101 203.441C184.229 202.168 179.183 200.666 174.934 198.08C164.371 191.652 154.321 193.402 144.297 198.794C137.356 202.526 130.629 206.603 122.74 208.2C112.157 210.344 101.879 209.588 92.0216 205.143C87.6676 203.179 83.5666 200.664 79.3146 198.469C72.2336 194.814 64.8396 192.656 56.8486 194.733C54.5766 195.324 52.4146 196.504 50.3386 197.657C44.8876 200.687 39.2396 202.985 32.9856 203.843C29.9266 204.262 27.7946 203.608 26.2996 200.859C25.7576 199.857 24.9086 199.022 23.8046 197.604Z" fill="black"/>
<path fill-rule="evenodd" clip-rule="evenodd" d="M362.752 205.289C359.276 212.878 355.442 214.87 347.982 213.183C343.696 212.213 340.872 207.802 340.821 201.998C340.769 196.07 343.601 191.561 348.01 190.554C355.474 188.848 359.184 190.84 362.755 198.472C365.822 191.708 369.176 189.589 375.575 190.375C379.608 190.871 382.247 193.345 383.025 197.513C380.868 197.892 379.13 198.193 377.472 195.824C375.358 192.803 370.277 193.755 368.502 197.289C367.046 200.187 366.952 203.278 368.244 206.266C369.318 208.751 371.451 209.753 374.076 209.553C376.648 209.357 378.189 207.881 378.96 205.054C377.296 204.936 375.862 204.833 374.095 204.706C374.043 203.651 373.993 202.621 373.931 201.32C377.085 201.32 380.015 201.32 383.175 201.32C383.175 205.106 383.175 208.847 383.175 213.452C381.668 212.806 380.457 212.287 378.739 211.551C371.909 215.784 365.884 213.804 362.752 205.289ZM358.734 202.259C358.477 202.112 358.22 201.964 357.963 201.816C357.941 197.391 356.059 194.566 352.874 194.18C349.949 193.825 346.967 195.602 346.044 198.25C344.734 202.008 345.739 206.903 348.169 208.351C350.321 209.632 352.933 210.558 354.827 208.756C356.593 207.079 357.468 204.463 358.734 202.259Z" fill="black"/>
<path fill-rule="evenodd" clip-rule="evenodd" d="M324.806 201.561C324.189 210.42 318.52 215.128 310.351 213.288C306.12 212.334 303.294 208.444 302.831 202.934C302.357 197.315 304.845 192.522 309.131 190.789C313.42 189.056 319.254 190.17 321.608 193.739C323.129 196.047 323.77 198.934 324.806 201.561ZM319.478 202.464C319.374 201.078 319.368 200.376 319.26 199.689C318.737 196.307 316.569 194.195 313.617 194.154C310.553 194.112 308.315 195.936 307.863 199.464C307.592 201.57 307.758 203.856 308.301 205.909C308.944 208.342 310.931 209.593 313.517 209.597C315.974 209.601 317.748 208.402 318.617 206.149C319.144 204.781 319.299 203.271 319.478 202.464Z" fill="black"/>
<path fill-rule="evenodd" clip-rule="evenodd" d="M618.405 201.604C617.749 210.322 612.233 214.99 604.173 213.353C604.075 213.332 603.977 213.315 603.879 213.292C599.629 212.312 596.847 208.461 596.371 202.903C595.9 197.395 598.529 192.388 602.739 190.775C607.167 189.078 612.769 190.165 615.202 193.792C616.738 196.082 617.369 198.979 618.405 201.604ZM613.728 202.46C613.475 202.313 613.222 202.165 612.97 202.017C612.991 198.579 611.949 196.083 609.997 194.891C607.762 193.526 604.627 194.007 602.895 195.984C600.468 198.754 600.467 204.982 602.895 207.744C604.647 209.738 608.047 210.544 609.887 208.737C611.586 207.069 612.48 204.584 613.728 202.46Z" fill="black"/>
<path fill-rule="evenodd" clip-rule="evenodd" d="M282.167 191.201C282.167 198.544 282.167 205.615 282.167 212.909C280.702 212.909 279.362 212.909 277.715 212.909C277.607 211.437 277.499 209.991 277.357 208.063C274.327 214.042 269.414 214.306 264.141 212.995C260.778 212.158 259.379 210.086 259.068 206.339C261.047 206.115 262.931 205.241 264.197 208.052C265.119 210.1 270.123 210.283 271.771 208.678C273.083 207.401 272.758 205.616 270.855 204.91C268.81 204.15 266.623 203.778 264.523 203.154C260.486 201.953 259.092 200.175 259.296 196.624C259.488 193.27 261.666 191.039 265.428 190.342C271.437 189.229 275.943 192.041 276.121 197.193C274.22 197.469 272.553 198.079 271.085 195.693C270.446 194.654 268.13 194.27 266.589 194.297C265.618 194.314 264.67 195.643 263.712 196.384C264.506 197.261 265.141 198.507 266.13 198.935C267.844 199.675 269.88 199.671 271.591 200.416C273.653 201.313 275.517 202.668 277.513 203.852C277.513 201.108 277.508 197.699 277.516 194.289C277.525 190.258 278.014 189.931 282.167 191.201Z" fill="black"/>
<path fill-rule="evenodd" clip-rule="evenodd" d="M302.493 204.708C302.267 209.508 299.617 212.596 295.85 213.378C291.033 214.378 286.427 212.562 284.591 208.636C282.588 204.355 282.524 199.871 284.549 195.599C287.68 188.995 297.72 188.392 301.707 194.503C302.317 195.439 302.514 196.645 302.969 197.909C300.406 198.429 298.629 198.801 297.128 196.178C295.489 193.316 290.754 193.878 289.167 196.965C287.589 200.032 287.362 203.444 288.968 206.459C289.715 207.861 291.749 209.23 293.301 209.355C294.675 209.464 296.157 207.77 297.649 206.979C299.098 206.212 300.618 205.58 302.493 204.708Z" fill="black"/>
<path fill-rule="evenodd" clip-rule="evenodd" d="M410.033 198.022C407.407 198.463 405.645 198.517 404.18 196.001C402.619 193.321 397.982 193.962 396.399 196.878C394.685 200.033 394.596 203.429 396.121 206.663C397.891 210.417 402.346 210.436 404.838 207.142C405.734 205.955 407.687 205.568 409.454 204.663C409.703 208.56 408.074 211.77 404.907 212.599C402.178 213.312 398.886 213.534 396.27 212.674C390.892 210.906 388.698 203.106 391.2 196.666C393.283 191.308 398.841 188.916 404.52 191.025C407.632 192.18 409.58 194.346 410.033 198.022Z" fill="black"/>
<path fill-rule="evenodd" clip-rule="evenodd" d="M559.067 205.71C558.7 209.867 555.958 212.792 551.778 213.481C546.826 214.297 542.432 212.158 540.758 207.814C539.154 203.65 539.191 199.387 541.207 195.335C543.145 191.443 547.344 189.689 552.166 190.533C556.105 191.222 558.629 193.804 559.31 197.973C557.03 198.47 555.17 198.769 553.606 196.103C552.008 193.378 547.43 193.883 545.809 196.805C544.012 200.044 543.955 203.563 545.583 206.859C547.232 210.198 551.652 210.514 553.772 207.65C555.64 205.127 555.64 205.127 559.067 205.71Z" fill="black"/>
<path fill-rule="evenodd" clip-rule="evenodd" d="M436.805 190.519C440.909 190.701 444.863 190.862 448.812 191.068C449.289 191.092 449.77 191.323 450.219 191.522C454.04 193.21 455.978 197.851 455.286 203.619C454.668 208.76 451.974 212.089 447.769 212.854C446.89 213.014 445.989 213.115 445.096 213.126C442.418 213.161 439.741 213.14 436.804 213.14C436.805 205.582 436.805 198.295 436.805 190.519ZM441.324 194.718C441.324 199.704 441.324 204.312 441.324 209.019C444.374 208.96 447.581 209.989 449.328 206.755C451.072 203.526 451.322 199.938 449.501 196.725C447.709 193.567 444.376 194.996 441.324 194.718Z" fill="black"/>
<path fill-rule="evenodd" clip-rule="evenodd" d="M475.16 212.912C475.16 205.514 475.16 198.349 475.16 191.21C479.403 189.903 479.866 190.243 479.856 194.508C479.845 199.183 479.853 203.858 479.853 208.893C483.514 208.893 486.95 208.893 490.582 208.893C490.582 210.394 490.582 211.535 490.582 212.913C485.546 212.912 480.521 212.912 475.16 212.912Z" fill="black"/>
<path fill-rule="evenodd" clip-rule="evenodd" d="M534.754 204.866C534.754 200.239 534.754 195.613 534.754 190.855C536.361 190.855 537.601 190.855 539.054 190.855C539.054 198.273 539.054 205.498 539.054 212.791C536.102 213.645 534.117 213.158 532.669 210.198C530.73 206.235 528.313 202.507 525.468 198.86C525.468 203.48 525.468 208.1 525.468 212.918C523.919 212.918 522.689 212.918 521.238 212.918C521.238 205.56 521.238 198.329 521.238 191.039C524.254 190.027 526.285 190.637 527.758 193.714C529.604 197.571 531.925 201.201 534.042 204.929C534.278 204.908 534.516 204.886 534.754 204.866Z" fill="black"/>
<path fill-rule="evenodd" clip-rule="evenodd" d="M596.712 208.854C596.712 210.469 596.712 211.538 596.712 212.877C591.656 212.877 586.642 212.877 581.359 212.877C581.359 205.645 581.359 198.354 581.359 191.068C585.608 190.13 585.849 190.318 585.846 194.48C585.843 199.154 585.846 203.829 585.846 208.853C589.511 208.854 592.941 208.854 596.712 208.854Z" fill="black"/>
<path fill-rule="evenodd" clip-rule="evenodd" d="M495.345 191C500.187 190.258 500.183 190.259 501.346 194.308C502.486 198.282 503.637 202.253 505.412 206.24C506.683 201.904 508.085 197.6 509.167 193.217C509.679 191.141 510.626 190.598 512.668 190.613C519.29 190.663 519.29 190.579 519.292 197.211C519.293 201.301 519.299 205.39 519.297 209.479C519.294 213.492 519.283 213.498 514.641 212.791C514.641 206.36 514.641 199.868 514.641 193.375C514.434 193.343 514.227 193.311 514.019 193.279C512.013 199.172 509.901 205.031 508.057 210.974C507.418 213.035 506.182 213.433 504.495 213.074C503.69 212.902 502.588 212.275 502.347 211.596C499.957 204.85 497.719 198.053 495.345 191Z" fill="black"/>
<path fill-rule="evenodd" clip-rule="evenodd" d="M246.357 205.182C246.357 207.836 246.357 210.282 246.357 212.648C241.769 213.699 241.571 213.553 241.568 209.401C241.565 204.021 241.622 198.64 241.531 193.262C241.5 191.379 242.032 190.501 244.055 190.636C247.226 190.847 250.448 190.627 253.575 191.088C257.102 191.608 258.898 194.292 258.811 197.994C258.717 202.006 256.87 204.353 253.138 204.848C250.997 205.134 248.812 205.075 246.357 205.182ZM246.57 194.09C246.57 197.093 246.57 199.022 246.57 201.844C249.184 201.045 251.442 200.597 253.408 199.583C253.907 199.326 253.886 196.416 253.4 196.182C251.398 195.215 249.127 194.809 246.57 194.09Z" fill="black"/>
<path fill-rule="evenodd" clip-rule="evenodd" d="M560.767 191.028C565.325 190.264 565.37 190.295 565.39 194.28C565.408 197.576 565.373 200.871 565.433 204.166C565.505 208.137 566.577 209.546 569.432 209.605C572.427 209.667 573.588 208.228 573.655 204.074C573.726 199.707 573.671 195.338 573.671 191.039C578.704 190.183 579.296 190.544 579.143 194.978C578.996 199.226 578.766 203.499 578.146 207.697C577.543 211.786 574.195 213.739 569.051 213.558C564.134 213.386 561.063 211.197 560.837 207.029C560.552 201.764 560.767 196.473 560.767 191.028Z" fill="black"/>
<path fill-rule="evenodd" clip-rule="evenodd" d="M473.107 190.659C473.107 192.22 473.107 193.281 473.107 194.711C469.035 194.711 465.106 194.711 460.998 194.711C460.998 196.407 460.998 197.736 460.998 199.374C464.697 199.374 468.241 199.374 472.003 199.374C472.003 200.718 472.003 201.759 472.003 203.239C468.432 203.239 464.812 203.239 461.01 203.239C461.01 205.307 461.01 206.941 461.01 208.871C465.136 208.871 469.182 208.871 473.134 208.871C474.354 212.768 474.112 213.125 470.471 213.132C465.893 213.139 461.315 213.133 456.16 213.133C456.16 211.118 456.16 209.279 456.16 207.439C456.16 202.655 456.077 197.869 456.239 193.09C456.266 192.262 457.302 190.79 457.917 190.767C462.872 190.575 467.839 190.659 473.107 190.659Z" fill="black"/>
<path fill-rule="evenodd" clip-rule="evenodd" d="M430.727 212.855C427.62 213.376 425.228 213.712 424.645 210.075C424.546 209.459 423.362 208.695 422.591 208.578C421.031 208.343 419.38 208.311 417.831 208.577C416.992 208.721 415.75 209.541 415.611 210.238C414.886 213.894 412.516 213.317 409.694 212.828C412.235 205.698 414.633 198.762 417.261 191.913C417.528 191.22 419.179 190.754 420.197 190.737C421.208 190.72 422.888 191.151 423.144 191.819C425.767 198.675 428.159 205.619 430.727 212.855ZM417.492 204.298C419.332 204.298 420.859 204.298 422.751 204.298C421.928 201.683 421.19 199.343 420.181 196.137C419.141 199.291 418.403 201.532 417.492 204.298Z" fill="black"/>
<path fill-rule="evenodd" clip-rule="evenodd" d="M325.314 212.864C325.314 205.489 325.314 198.258 325.314 190.844C326.749 190.844 328.003 190.844 329.698 190.844C329.698 196.717 329.698 202.63 329.698 208.86C333.547 208.86 336.978 208.86 340.65 208.86C340.65 210.31 340.65 211.44 340.65 212.864C335.692 212.864 330.681 212.864 325.314 212.864Z" fill="black"/>
<path fill-rule="evenodd" clip-rule="evenodd" d="M389.232 212.975C387.661 212.975 386.391 212.975 384.912 212.975C384.912 205.592 384.912 198.373 384.912 190.903C386.294 190.903 387.628 190.903 389.232 190.903C389.232 198.183 389.232 205.477 389.232 212.975Z" fill="black"/>
<path fill-rule="evenodd" clip-rule="evenodd" d="M55.2375 225.642C65.2765 221.021 75.2886 218.658 85.7476 223.077C89.0266 224.463 92.1205 226.38 95.1085 228.344C106.213 235.641 117.907 235.712 129.004 228.327C134.614 224.593 140.39 221.359 147.329 220.865C153.98 220.392 162.147 222.168 168.776 225.742C165.878 227.792 163.453 229.731 159.353 228.299C150.291 225.132 141.665 226.58 133.829 232.254C127.63 236.744 120.783 239.523 113.077 239.809C105.551 240.089 98.7405 237.759 92.4935 233.688C87.3785 230.354 82.2975 226.819 75.8805 226.866C72.4255 226.891 68.7535 226.948 65.5785 228.096C61.4545 229.588 58.5145 228.358 55.2375 225.642Z" fill="black"/>
</svg>
