<svg width="661" height="240" viewBox="0 0 661 240" fill="none" xmlns="http://www.w3.org/2000/svg">
<path fill-rule="evenodd" clip-rule="evenodd" d="M622.197 120.727C622.801 120.021 623.45 119.348 623.995 118.6C624.733 117.588 625.989 116.521 625.995 115.472C626.114 95.1237 626.118 74.7738 625.987 54.4258C625.98 53.2888 624.63 52.1428 623.854 51.0358C623.466 50.4828 622.965 50.0088 622.514 49.4978C623.057 49.0878 623.595 48.3277 624.143 48.3207C630.726 48.2387 637.311 48.2468 643.893 48.3088C644.435 48.3138 644.972 48.8898 645.51 49.2008C645.158 49.7968 644.906 50.8038 644.438 50.9198C642.24 51.4638 642.061 53.0417 642.062 54.8337C642.077 74.8837 642.086 94.9328 642.087 114.983C642.087 116.787 642.232 118.384 644.534 118.762C644.956 118.832 645.535 119.753 645.502 120.245C645.473 120.687 644.705 121.435 644.257 121.44C637.095 121.516 629.93 121.493 622.767 121.493C622.578 121.238 622.388 120.983 622.197 120.727Z" fill="#403F3D"/>
<path fill-rule="evenodd" clip-rule="evenodd" d="M143.186 18.995C138.098 18.943 133.649 14.394 133.753 9.349C133.858 4.265 138.135 -0.00499561 143.115 4.38666e-06C148.611 0.00600439 152.88 4.224 152.815 9.583C152.754 14.739 148.346 19.048 143.186 18.995Z" fill="#403F3D"/>
<path fill-rule="evenodd" clip-rule="evenodd" d="M80.9465 18.997C75.8465 19.087 71.3335 14.719 71.2395 9.60002C71.1445 4.44402 75.3885 0.139012 80.6915 0.0100116C85.8555 -0.114988 90.2795 4.13702 90.4025 9.34502C90.5215 14.378 86.0875 18.905 80.9465 18.997Z" fill="#403F3D"/>
<path fill-rule="evenodd" clip-rule="evenodd" d="M36.1125 22.0671C40.2985 22.0391 44.0865 25.78 44.1965 30.05C44.3045 34.205 40.5095 38.106 36.2475 38.222C31.9505 38.339 28.1775 34.712 28.0685 30.36C27.9585 25.937 31.6815 22.0971 36.1125 22.0671Z" fill="#403F3D"/>
<path fill-rule="evenodd" clip-rule="evenodd" d="M188.026 22.0679C192.401 22.0879 196.133 25.952 196.06 30.384C195.991 34.551 192.372 38.1409 188.157 38.2229C183.815 38.3069 179.86 34.376 179.921 30.036C179.98 25.839 183.835 22.0479 188.026 22.0679Z" fill="#403F3D"/>
<path fill-rule="evenodd" clip-rule="evenodd" d="M55.2075 46.314C48.9595 45.983 43.2096 46.865 39.1576 51.504C36.4156 54.643 34.5976 58.6489 32.6866 62.4289C31.7556 64.2709 31.0766 66.131 28.6756 65.312C26.4476 64.552 26.4026 62.58 26.8646 60.557C29.8356 47.549 43.1236 38.855 56.4545 41.062C57.3876 41.217 58.7036 40.371 59.5296 39.639C63.8306 35.825 67.6115 31.262 72.3495 28.134C84.8265 19.897 96.8775 21.362 109.643 30.277C110.368 30.783 111.021 31.3919 111.78 32.0109C116.345 27.7899 121.948 25.732 127.654 23.893C134.828 21.582 141.651 22.842 148.243 26.057C154.728 29.219 160.193 33.656 164.4 39.527C165.491 41.05 166.493 41.4139 168.359 41.0279C180.686 38.4839 195.438 48.7479 197.29 61.2439C197.477 62.5039 196.413 64.703 195.326 65.236C193.312 66.223 192.388 64.456 191.504 62.65C189.683 58.932 187.972 54.988 185.338 51.881C181.201 47.002 175.342 45.9019 169.52 46.3039C169.714 50.1659 170.228 53.721 169.948 57.211C169.766 59.476 168.706 61.826 167.467 63.7739C166.965 64.5639 164.939 64.385 163.607 64.647C163.367 63.41 162.539 61.8779 162.986 60.9849C165.33 56.3039 164.662 51.774 162.406 47.495C158.366 39.832 152.282 34.125 144.27 30.793C133.99 26.517 124.735 29.397 116.204 35.618C115.052 36.458 114.315 37.9249 113.523 39.1879C112.53 40.7709 111.693 41.038 110.355 39.457C98.5626 25.53 81.4875 25.19 68.2635 38.707C63.9055 43.162 59.8836 47.9799 59.8916 54.7179C59.8936 56.6309 60.3716 58.639 61.0776 60.428C61.7866 62.226 62.2406 64.07 60.2116 64.663C59.0496 65.002 56.7596 64.107 56.0926 63.059C53.4515 58.908 53.3106 54.235 54.3956 49.508C54.6116 48.561 54.8725 47.624 55.2075 46.314Z" fill="#403F3D"/>
<path fill-rule="evenodd" clip-rule="evenodd" d="M55.0975 138.048C50.6205 131.197 51.5485 124.293 55.2345 117.625C58.2005 112.258 63.2715 110.458 69.1775 110.708C69.8505 110.737 70.7975 110.855 71.1185 111.295C71.8595 112.312 72.7595 113.588 72.6715 114.686C72.6225 115.306 70.6885 116.324 69.6975 116.225C65.4005 115.795 61.8135 116.78 59.9525 120.907C57.8285 125.619 56.6995 130.723 60.4595 135.037C68.8245 144.634 87.0985 149.398 99.5775 138.225C105.717 132.728 108.525 125.724 106.528 117.48C104.886 110.702 98.3255 107.787 91.9685 110.623C88.0625 112.365 86.0115 118.654 88.4495 122.129C89.1365 123.109 90.8245 123.336 91.9285 124.091C92.8785 124.74 93.6505 125.649 94.5015 126.442C93.6615 127.304 92.9695 128.611 91.9555 128.947C88.4305 130.115 84.6875 128.32 82.9835 124.828C80.2755 119.278 81.2405 113.985 84.5225 108.571C83.0395 108.179 81.6745 107.779 80.2915 107.462C75.3985 106.338 71.1875 104.032 67.6365 100.458C65.4565 98.2639 63.1865 96.1539 60.8785 94.0929C57.1215 90.7389 52.7245 88.7389 47.6945 88.2389C45.2305 87.9939 42.8935 88.1939 41.2815 90.4979C40.1495 92.1159 38.6115 92.7779 36.9465 91.4399C35.2325 90.0619 35.4155 88.2069 36.6505 86.6279C39.3295 83.2009 43.1085 81.5779 47.2365 82.3379C51.4835 83.1189 55.5585 84.8529 59.6885 86.2299C60.5025 86.5009 61.2255 87.0469 61.9765 87.4589C62.6705 84.5699 63.1285 81.8099 64.0045 79.1909C65.9005 73.5249 69.5565 69.3269 75.1005 66.9079C76.9045 66.1209 78.9435 65.4189 80.1065 67.6199C81.3715 70.0139 79.6475 71.4249 77.6595 72.1829C69.1995 75.4099 64.4595 89.8679 73.5015 97.7619C81.7085 104.927 99.1155 103.968 106.22 95.7199C108.626 92.9259 108.947 89.5619 108.147 86.1249C107.985 85.4309 106.92 84.6219 106.142 84.4479C96.6455 82.3259 90.0605 75.2819 88.4355 65.6969C87.8565 62.2829 87.2505 58.6959 85.6985 55.6809C84.4755 53.3039 81.9695 51.4129 79.6775 49.8209C78.1555 48.7639 76.3635 47.8909 77.4895 46.0859C78.1375 45.0459 80.7555 44.0719 81.6645 44.5689C84.8175 46.2959 87.6105 48.6789 90.8575 51.0439C91.4435 50.5859 92.5645 49.4589 93.9025 48.7319C95.6365 47.7899 97.5295 47.8499 98.6205 49.7419C99.6135 51.4639 98.6185 52.7339 97.0965 53.7039C94.8735 55.1219 94.1795 57.2449 94.0195 59.8239C93.7375 64.4119 94.9815 68.5899 97.3095 72.3689C99.9675 76.6839 103.965 78.8499 109.16 79.4169C124.63 81.1029 130.857 70.2599 129.874 58.4319C129.739 56.8039 128.309 55.0569 127.041 53.8099C125.725 52.5169 124.355 51.4609 125.621 49.5909C126.841 47.7869 128.684 47.8249 130.401 48.8389C131.582 49.5369 132.584 50.5369 133.848 51.5479C134.427 50.8359 134.913 49.9559 135.643 49.3909C137.902 47.6469 140.104 45.6989 142.648 44.5219C143.577 44.0929 146.036 45.2319 146.677 46.3169C147.676 48.0069 146.093 49.0729 144.442 49.7499C138.553 52.1649 136.824 57.3869 136.145 62.9739C135.339 69.6019 132.957 75.2639 127.864 79.7119C124.925 82.2789 121.658 83.9619 117.738 84.4899C116.832 84.6129 115.474 85.5829 115.321 86.3599C114.652 89.7489 114.825 92.9399 117.718 95.6309C125.5 102.873 137.067 104.824 146.662 100.237C152.181 97.5989 155.497 93.3299 155.44 87.0909C155.384 80.9299 153.028 75.8199 147.398 72.6669C145.435 71.5669 142.769 70.8989 143.907 67.7549C144.64 65.7279 147.052 65.7569 150.485 67.6089C156.562 70.8879 159.694 76.2479 161.173 82.7559C161.503 84.2059 161.63 85.7009 161.897 87.4919C162.648 87.1249 163.276 86.7419 163.955 86.4999C167.965 85.0759 171.9 83.2889 176.028 82.3939C180.103 81.5109 183.975 82.8099 186.934 85.9789C188.445 87.5979 189.085 89.6039 187.282 91.2929C185.423 93.0359 184.129 91.5099 182.489 90.2719C180.905 89.0779 178.566 88.2659 176.593 88.3299C172.014 88.4799 167.847 90.2459 164.313 93.2529C162.338 94.9339 160.298 96.5789 158.553 98.4829C153.788 103.685 148.062 107.007 141.057 108.071C140.59 108.142 140.153 108.409 139.594 108.628C142.795 113.655 143.79 118.862 141.366 124.368C139.632 128.306 135.461 130.301 131.788 128.841C130.892 128.485 129.966 127.248 129.824 126.299C129.731 125.679 130.947 124.322 131.71 124.212C134.297 123.836 136.074 122.825 136.394 120.065C136.763 116.881 136.542 113.797 133.817 111.603C129.33 107.989 122.183 109.597 118.855 114.289C113.756 121.478 118.009 131.477 123.034 136.757C135.507 149.862 155.195 145.025 163.83 134.801C167.396 130.577 166.254 125.509 164.159 120.893C162.284 116.761 158.712 115.826 154.408 116.206C153.38 116.297 152.215 114.843 151.113 114.1C152.198 112.985 153.108 111.217 154.399 110.871C159.443 109.522 166.211 112.855 168.945 117.621C172.76 124.269 172.817 130.411 168.943 138.48C170.324 139.301 171.677 140.29 173.173 140.962C182.923 145.344 192.955 146.279 203.229 143.061C210.369 140.825 215.508 136.54 217.153 128.86C218.194 124.004 216.705 119.915 213.092 116.72C208.821 112.942 201.804 114.54 200.594 119.594C200.251 121.025 200.896 123.091 201.815 124.323C202.886 125.76 204.01 127.202 202.522 128.386C201.509 129.193 199.146 129.44 198.055 128.799C194.692 126.825 193.992 123.378 194.337 119.842C191.26 119.049 188.105 118.579 185.256 117.38C183.348 116.577 181.552 114.981 180.29 113.301C178.713 111.203 179.818 108.018 182.019 107.707C182.96 107.573 184.512 108.159 184.988 108.918C187.753 113.323 192.03 114.925 196.758 113.027C200.339 111.589 204.062 110.412 207.431 108.584C208.874 107.8 209.971 105.794 210.554 104.111C213.012 97.0179 210.376 88.7929 204.579 83.7929C203.69 83.0259 202.93 81.0819 203.287 80.1179C203.969 78.2769 205.937 78.0799 207.601 79.0099C208.875 79.7229 210.126 80.6789 211.035 81.8099C217.791 90.2169 219.173 99.3299 214.357 109.169C214.234 109.42 214.176 109.704 214.067 110.033C220.571 114.206 224.283 120.077 223.433 127.832C222.402 137.233 217.122 143.862 208.327 147.425C193.505 153.431 179.431 151.572 166.074 143.063C165.744 142.853 165.395 142.674 164.986 142.441C156.019 148.564 146.361 152.231 135.369 149.919C124.467 147.626 116.587 141.271 111.757 131.196C104.687 149.526 80.5195 157.898 59.0755 142.435C52.7535 147.094 45.4195 149.593 37.6445 150.599C28.9045 151.729 20.5185 150.102 12.7365 145.934C7.72953 143.252 4.05154 139.25 2.18054 133.79C1.32854 131.304 -0.0524626 128.749 0.00153738 126.251C0.135537 120.172 3.38253 115.423 7.91653 111.539C8.58453 110.967 9.37254 110.535 10.0845 110.051C5.01254 100.114 6.05354 90.8629 12.7245 82.2269C13.7285 80.9269 15.0955 79.5669 16.5735 79.0779C17.7825 78.6789 19.9035 79.0709 20.7325 79.9489C22.0025 81.2939 21.0345 82.7649 19.5595 83.9159C13.0115 89.0209 10.6165 99.6219 14.5995 106.332C15.2945 107.503 16.8685 108.271 18.1845 108.929C20.3055 109.99 22.6495 110.621 24.7185 111.762C28.5535 113.875 32.4105 114.643 36.3785 112.432C37.3855 111.871 37.9565 110.57 38.8325 109.717C39.6725 108.899 40.7075 107.573 41.5525 107.648C42.5365 107.735 44.1495 109.084 44.1695 109.917C44.2095 111.533 43.7655 113.56 42.7375 114.725C40.2065 117.595 36.6735 118.822 32.8785 119.165C31.9055 119.253 30.9185 119.179 30.3645 119.179C29.6975 121.813 29.4815 124.269 28.4265 126.287C27.6935 127.689 25.9375 128.833 24.3845 129.414C23.5925 129.711 21.8435 128.777 21.2755 127.909C20.8595 127.274 21.3025 125.37 21.9855 124.849C24.1675 123.185 24.3395 121.229 23.4135 119.014C22.4355 116.673 20.7945 115.071 18.0395 114.921C10.8105 114.525 5.35054 120.925 6.81654 128.297C7.94654 133.977 10.8465 138.578 16.2145 141.084C28.7805 146.948 41.1765 146.081 53.3225 139.692C53.7595 139.463 54.1515 139.141 54.5405 138.832C54.6905 138.716 54.7735 138.515 55.0975 138.048ZM104.335 104.563C106.982 107.48 109.507 110.262 111.634 112.606C114.301 109.999 117.112 107.249 119.818 104.603C117.201 102.627 114.347 100.472 111.683 98.4589C109.162 100.553 106.595 102.686 104.335 104.563Z" fill="#403F3D"/>
<path fill-rule="evenodd" clip-rule="evenodd" d="M318.42 52.8839C318.542 53.7919 319.09 54.9599 318.719 55.5649C315.545 60.7429 312.205 65.8179 308.825 71.0629C308.259 70.6609 307.582 70.4309 307.538 70.1119C307.049 66.6259 304.482 65.0899 301.672 63.9029C291.555 59.6339 281.217 57.7799 270.502 61.5759C259.831 65.3579 253.568 73.9399 253.629 84.5449C253.691 95.2819 260.138 104.038 270.975 107.467C283.437 111.411 295.243 109.038 306.433 102.88C308.552 101.714 310.834 100.244 310.192 97.0519C310.131 96.7509 310.676 96.0549 310.998 96.0169C311.452 95.9629 312.178 96.2089 312.41 96.5699C315.108 100.768 317.779 104.986 320.305 109.288C320.523 109.661 319.838 111.042 319.269 111.311C317.32 112.231 315.133 112.663 313.219 113.638C301.695 119.512 289.655 122.941 276.587 121.576C264.622 120.326 253.854 116.559 245.725 107.037C234.245 93.5909 233.769 64.3279 258.773 52.5919C272.007 46.3809 285.803 46.2019 299.766 49.4399C304.22 50.4729 308.519 52.1589 312.933 53.3849C314.389 53.7899 315.987 53.6889 317.519 53.8189C317.818 53.5059 318.119 53.1949 318.42 52.8839Z" fill="#403F3D"/>
<path fill-rule="evenodd" clip-rule="evenodd" d="M590.934 72.494C590.175 71.603 589.701 71.293 589.603 70.891C588.816 67.667 586.512 65.79 583.731 64.502C573.47 59.751 562.854 57.9011 551.753 61.1261C550.156 61.5901 548.566 62.3441 547.201 63.2931C543.305 66.0031 543.452 71.2691 547.763 73.2561C550.951 74.7261 554.566 75.5411 558.076 75.9871C566.088 77.0071 574.157 77.5651 582.189 78.4401C584.15 78.6531 586.108 79.2221 587.979 79.8801C595.43 82.5011 600.435 87.293 601.319 95.524C602.182 103.559 599.422 109.965 592.75 114.686C585.679 119.69 577.535 121.003 569.223 121.572C557.244 122.391 545.48 121.61 534.405 116.227C533.232 115.657 531.583 115.91 530.173 116.021C528.473 116.155 527.5 115.75 528.303 113.928C530.551 108.83 532.897 103.777 535.253 98.597C535.822 98.838 536.415 98.9151 536.477 99.1391C537.613 103.233 541.047 104.723 544.458 106.16C555.979 111.015 567.668 111.617 579.464 107.231C580.923 106.689 582.329 105.767 583.499 104.728C586.654 101.925 586.162 96.8461 582.268 95.3231C578.806 93.9691 574.993 93.3041 571.273 92.8631C563.153 91.8991 554.99 91.308 546.854 90.472C545.285 90.311 543.726 89.8321 542.219 89.3281C534.828 86.8561 529.797 82.194 528.724 74.145C527.621 65.885 530.48 59.1601 537.258 54.3501C546.099 48.0761 556.244 46.9681 566.708 47.5471C575.353 48.0251 583.616 50.1941 591.736 53.1331C593.775 53.8711 596.147 53.781 598.374 53.873C599.817 53.933 601.03 54.1021 600.107 55.8331C597.213 61.2691 594.18 66.627 590.934 72.494Z" fill="#403F3D"/>
<path fill-rule="evenodd" clip-rule="evenodd" d="M456.237 92.1018C456.237 100.142 456.15 108.105 456.359 116.061C456.381 116.948 458.09 117.79 459.016 118.654C459.579 119.181 460.138 119.711 460.699 120.24C460.053 120.664 459.412 121.448 458.76 121.457C451.477 121.551 444.192 121.551 436.907 121.484C436.313 121.478 435.724 120.794 435.134 120.425C435.65 119.857 436.135 118.836 436.688 118.798C439.736 118.589 440.345 116.891 440.334 114.162C440.255 94.6018 440.251 75.0408 440.343 55.4798C440.357 52.6778 439.564 51.1178 436.618 50.8808C436.09 50.8378 435.624 50.0038 435.13 49.5348C435.661 49.1128 436.137 48.5518 436.74 48.3098C437.257 48.1038 437.921 48.2638 438.519 48.2638C453.489 48.2608 468.461 48.1108 483.427 48.3368C488.467 48.4138 493.628 48.9138 498.497 50.1518C508.911 52.8008 513.691 59.6708 513.397 70.3658C513.086 81.6438 507.989 88.0578 496.924 90.3098C492.368 91.2368 487.638 91.5328 482.975 91.6488C474.398 91.8638 465.811 91.7318 457.229 91.7558C457.044 91.7588 456.859 91.8818 456.237 92.1018ZM456.392 61.2828C456.392 67.1208 456.392 72.8268 456.392 78.6688C457.03 78.7468 457.502 78.8548 457.976 78.8548C467.538 78.8598 477.099 78.8848 486.66 78.8168C488.233 78.8048 489.843 78.5258 491.367 78.1138C495.555 76.9838 497.261 74.6778 497.346 70.3328C497.454 64.8088 494.969 61.6318 488.82 61.3958C478.099 60.9868 467.353 61.2828 456.392 61.2828Z" fill="#403F3D"/>
<path fill-rule="evenodd" clip-rule="evenodd" d="M364.678 48.4209C372.662 48.4209 380.216 48.4209 388.462 48.4209C388.048 49.4989 387.956 50.8089 387.358 51.1089C384.628 52.4769 385.226 54.4199 386.214 56.4059C389.149 62.2999 392.146 68.1629 395.141 74.0259C401.859 87.1769 408.536 100.349 415.379 113.434C416.34 115.272 418.195 116.628 419.533 118.291C420.15 119.06 420.517 120.03 421.321 121.498C412.842 121.498 405.269 121.513 397.698 121.462C397.219 121.459 396.331 120.921 396.346 120.677C396.39 119.986 396.617 118.964 397.107 118.706C398.878 117.774 398.576 116.459 397.949 115.147C396.272 111.639 394.57 108.137 392.693 104.735C392.328 104.073 391.129 103.522 390.309 103.515C380.224 103.433 370.138 103.433 360.053 103.517C359.24 103.524 358.044 104.088 357.687 104.75C355.794 108.258 354.054 111.853 352.39 115.477C351.799 116.763 351.446 118.177 353.525 118.802C353.999 118.945 354.4 119.968 354.44 120.61C354.457 120.875 353.433 121.459 352.878 121.464C347.188 121.527 341.495 121.527 335.805 121.457C335.268 121.451 334.428 120.955 334.288 120.51C334.13 120.007 334.465 119.206 334.825 118.707C336.308 116.652 338.172 114.818 339.361 112.615C341.633 108.407 343.503 103.983 345.606 99.6799C352.471 85.6439 359.363 71.6209 366.251 57.5969C367.44 55.1749 369.235 52.7379 365.343 50.9259C364.888 50.7149 364.926 49.4379 364.678 48.4209ZM386.913 92.7469C383.079 84.2529 379.381 76.0599 375.459 67.3709C371.043 76.1079 366.923 84.2619 362.634 92.7469C370.882 92.7469 378.681 92.7469 386.913 92.7469Z" fill="#403F3D"/>
<path fill-rule="evenodd" clip-rule="evenodd" d="M5.3175 159.355C10.2715 161.703 15.1405 164.82 20.4645 166.359C30.2495 169.185 39.5895 166.137 48.6825 162.464C54.9005 159.953 61.1605 157.47 68.0725 158.287C75.1615 159.125 81.9845 160.961 88.2785 164.433C94.3165 167.763 100.267 171.186 107.413 171.702C115.549 172.288 123.285 171.381 130.581 167.356C134.931 164.958 139.46 162.808 144.09 161.015C154.465 156.998 164.705 157.498 174.894 162.171C180.969 164.958 187.354 166.979 194.169 167.285C201.277 167.606 207.849 166.184 213.697 161.969C215.301 160.814 216.939 159.703 218.843 158.759C217.763 162.595 217.738 166.776 213.38 169.08C204.003 174.035 194.268 174.342 184.301 171.672C180.267 170.591 176.199 169.352 172.446 167.56C161.029 162.11 150.132 164.039 139.348 169.27C137.643 170.097 136.012 171.075 134.338 171.967C119.467 179.9 104.617 179.915 89.7265 171.96C86.2145 170.083 82.6475 168.238 78.9375 166.815C69.6665 163.259 60.5305 163.441 51.3425 167.691C44.3575 170.922 36.9535 173.483 29.1345 173.168C24.1255 172.966 19.0125 172.087 14.2195 170.619C8.0045 168.717 6.0375 165.542 5.3175 159.355Z" fill="#403F3D"/>
<path fill-rule="evenodd" clip-rule="evenodd" d="M23.8046 197.604C33.5886 199.219 41.4656 195.938 49.1386 191.538C59.4366 185.631 69.7736 187.611 79.8686 192.132C84.0376 193.999 87.8176 196.717 91.9076 198.785C105.503 205.663 119.121 205.628 132.663 198.564C139.268 195.12 145.352 190.724 152.876 189.045C161.158 187.197 168.865 187.748 176.23 192.185C183.387 196.497 191.019 199.099 199.628 197.726C197.169 203.448 194.901 204.957 189.101 203.441C184.229 202.168 179.183 200.666 174.934 198.08C164.371 191.652 154.321 193.402 144.297 198.794C137.356 202.526 130.629 206.603 122.74 208.2C112.157 210.344 101.879 209.588 92.0216 205.143C87.6676 203.179 83.5666 200.664 79.3146 198.469C72.2336 194.814 64.8396 192.656 56.8486 194.733C54.5766 195.324 52.4146 196.504 50.3386 197.657C44.8876 200.687 39.2396 202.985 32.9856 203.843C29.9266 204.262 27.7946 203.608 26.2996 200.859C25.7576 199.857 24.9086 199.022 23.8046 197.604Z" fill="#403F3D"/>
<path fill-rule="evenodd" clip-rule="evenodd" d="M55.2375 225.642C65.2765 221.021 75.2886 218.658 85.7476 223.077C89.0266 224.463 92.1205 226.38 95.1085 228.344C106.213 235.641 117.907 235.712 129.004 228.327C134.614 224.593 140.39 221.359 147.329 220.865C153.98 220.392 162.147 222.168 168.776 225.742C165.878 227.792 163.453 229.731 159.353 228.299C150.291 225.132 141.665 226.58 133.829 232.254C127.63 236.744 120.783 239.523 113.077 239.809C105.551 240.089 98.7405 237.759 92.4935 233.688C87.3785 230.354 82.2975 226.819 75.8805 226.866C72.4255 226.891 68.7535 226.948 65.5785 228.096C61.4545 229.588 58.5145 228.358 55.2375 225.642Z" fill="#403F3D"/>
<path d="M265.88 159.406H261.441C261.382 158.95 261.261 158.538 261.077 158.172C260.894 157.805 260.651 157.491 260.349 157.23C260.047 156.97 259.689 156.772 259.275 156.636C258.866 156.494 258.414 156.423 257.917 156.423C257.035 156.423 256.274 156.639 255.635 157.071C255.002 157.503 254.513 158.127 254.17 158.944C253.833 159.761 253.664 160.749 253.664 161.909C253.664 163.116 253.836 164.129 254.179 164.945C254.528 165.756 255.016 166.369 255.644 166.783C256.277 167.191 257.026 167.396 257.89 167.396C258.375 167.396 258.816 167.333 259.213 167.209C259.615 167.085 259.967 166.904 260.269 166.668C260.577 166.425 260.828 166.132 261.024 165.789C261.225 165.44 261.364 165.046 261.441 164.608L265.88 164.635C265.803 165.44 265.569 166.233 265.179 167.014C264.794 167.795 264.264 168.508 263.589 169.153C262.915 169.793 262.092 170.302 261.121 170.68C260.157 171.059 259.05 171.249 257.801 171.249C256.156 171.249 254.682 170.888 253.38 170.165C252.084 169.437 251.06 168.378 250.308 166.987C249.557 165.596 249.181 163.904 249.181 161.909C249.181 159.909 249.562 158.213 250.326 156.822C251.089 155.431 252.122 154.375 253.424 153.653C254.726 152.931 256.185 152.57 257.801 152.57C258.902 152.57 259.92 152.723 260.855 153.031C261.79 153.333 262.613 153.777 263.323 154.363C264.033 154.943 264.61 155.656 265.054 156.502C265.498 157.349 265.773 158.317 265.88 159.406ZM266.645 171V152.818H279.322V156.387H271.039V160.116H278.674V163.694H271.039V167.431H279.322V171H266.645ZM295.798 152.818V171H292.07L284.834 160.506H284.719V171H280.324V152.818H284.106L291.262 163.294H291.413V152.818H295.798ZM296.217 156.387V152.818H311.584V156.387H306.071V171H301.739V156.387H296.217ZM311.981 171V152.818H319.491C320.852 152.818 322.027 153.064 323.016 153.555C324.01 154.04 324.776 154.739 325.315 155.65C325.854 156.556 326.123 157.63 326.123 158.873C326.123 160.134 325.848 161.205 325.297 162.087C324.747 162.963 323.966 163.631 322.954 164.093C321.941 164.549 320.743 164.777 319.358 164.777H314.608V161.314H318.541C319.204 161.314 319.758 161.228 320.201 161.057C320.651 160.879 320.992 160.613 321.222 160.258C321.453 159.897 321.569 159.435 321.569 158.873C321.569 158.311 321.453 157.846 321.222 157.479C320.992 157.106 320.651 156.828 320.201 156.645C319.752 156.455 319.198 156.36 318.541 156.36H316.375V171H311.981ZM322.217 162.69L326.744 171H321.95L317.511 162.69H322.217ZM343.944 161.909C343.944 163.91 343.559 165.605 342.79 166.996C342.021 168.387 340.979 169.443 339.665 170.165C338.357 170.888 336.889 171.249 335.262 171.249C333.628 171.249 332.157 170.885 330.849 170.157C329.541 169.429 328.503 168.372 327.733 166.987C326.97 165.596 326.588 163.904 326.588 161.909C326.588 159.909 326.97 158.213 327.733 156.822C328.503 155.431 329.541 154.375 330.849 153.653C332.157 152.931 333.628 152.57 335.262 152.57C336.889 152.57 338.357 152.931 339.665 153.653C340.979 154.375 342.021 155.431 342.79 156.822C343.559 158.213 343.944 159.909 343.944 161.909ZM339.452 161.909C339.452 160.725 339.283 159.725 338.946 158.908C338.614 158.092 338.135 157.473 337.508 157.053C336.886 156.633 336.138 156.423 335.262 156.423C334.392 156.423 333.643 156.633 333.016 157.053C332.388 157.473 331.906 158.092 331.568 158.908C331.237 159.725 331.071 160.725 331.071 161.909C331.071 163.093 331.237 164.093 331.568 164.91C331.906 165.727 332.388 166.345 333.016 166.765C333.643 167.185 334.392 167.396 335.262 167.396C336.138 167.396 336.886 167.185 337.508 166.765C338.135 166.345 338.614 165.727 338.946 164.91C339.283 164.093 339.452 163.093 339.452 161.909ZM355.101 171H348.381V152.818H355.093C356.945 152.818 358.54 153.182 359.878 153.91C361.221 154.632 362.257 155.674 362.985 157.035C363.713 158.391 364.077 160.012 364.077 161.9C364.077 163.794 363.713 165.422 362.985 166.783C362.263 168.144 361.23 169.189 359.887 169.917C358.543 170.639 356.948 171 355.101 171ZM352.775 167.254H354.933C355.951 167.254 356.812 167.082 357.516 166.739C358.226 166.389 358.762 165.824 359.123 165.043C359.49 164.256 359.674 163.208 359.674 161.9C359.674 160.592 359.49 159.551 359.123 158.775C358.756 157.994 358.215 157.432 357.498 157.088C356.788 156.739 355.912 156.565 354.871 156.565H352.775V167.254ZM364.893 171V152.818H377.57V156.387H369.287V160.116H376.922V163.694H369.287V167.431H377.57V171H364.893ZM386.126 171H381.403L387.538 152.818H393.388L399.523 171H394.8L390.53 157.399H390.388L386.126 171ZM385.496 163.844H395.368V167.183H385.496V163.844ZM396.865 156.387V152.818H412.233V156.387H406.72V171H402.387V156.387H396.865ZM412.629 171V152.818H425.307V156.387H417.024V160.116H424.658V163.694H417.024V167.431H425.307V171H412.629ZM441.783 152.818V171H438.054L430.819 160.506H430.703V171H426.309V152.818H430.091L437.246 163.294H437.397V152.818H441.783ZM459.3 159.406H454.861C454.802 158.95 454.68 158.538 454.497 158.172C454.314 157.805 454.071 157.491 453.769 157.23C453.467 156.97 453.109 156.772 452.695 156.636C452.286 156.494 451.834 156.423 451.336 156.423C450.455 156.423 449.694 156.639 449.055 157.071C448.422 157.503 447.933 158.127 447.59 158.944C447.253 159.761 447.084 160.749 447.084 161.909C447.084 163.116 447.256 164.129 447.599 164.945C447.948 165.756 448.436 166.369 449.064 166.783C449.697 167.191 450.446 167.396 451.31 167.396C451.795 167.396 452.236 167.333 452.633 167.209C453.035 167.085 453.387 166.904 453.689 166.668C453.997 166.425 454.248 166.132 454.444 165.789C454.645 165.44 454.784 165.046 454.861 164.608L459.3 164.635C459.223 165.44 458.989 166.233 458.599 167.014C458.214 167.795 457.684 168.508 457.009 169.153C456.335 169.793 455.512 170.302 454.541 170.68C453.577 171.059 452.47 171.249 451.221 171.249C449.576 171.249 448.102 170.888 446.8 170.165C445.504 169.437 444.48 168.378 443.728 166.987C442.977 165.596 442.601 163.904 442.601 161.909C442.601 159.909 442.982 158.213 443.746 156.822C444.509 155.431 445.542 154.375 446.844 153.653C448.146 152.931 449.605 152.57 451.221 152.57C452.322 152.57 453.34 152.723 454.275 153.031C455.21 153.333 456.033 153.777 456.743 154.363C457.453 154.943 458.03 155.656 458.474 156.502C458.918 157.349 459.193 158.317 459.3 159.406ZM464.459 152.818V171H460.065V152.818H464.459ZM482.629 161.909C482.629 163.91 482.244 165.605 481.475 166.996C480.705 168.387 479.664 169.443 478.35 170.165C477.042 170.888 475.574 171.249 473.946 171.249C472.313 171.249 470.842 170.885 469.534 170.157C468.226 169.429 467.187 168.372 466.418 166.987C465.654 165.596 465.273 163.904 465.273 161.909C465.273 159.909 465.654 158.213 466.418 156.822C467.187 155.431 468.226 154.375 469.534 153.653C470.842 152.931 472.313 152.57 473.946 152.57C475.574 152.57 477.042 152.931 478.35 153.653C479.664 154.375 480.705 155.431 481.475 156.822C482.244 158.213 482.629 159.909 482.629 161.909ZM478.137 161.909C478.137 160.725 477.968 159.725 477.631 158.908C477.299 158.092 476.82 157.473 476.192 157.053C475.571 156.633 474.822 156.423 473.946 156.423C473.076 156.423 472.327 156.633 471.7 157.053C471.073 157.473 470.59 158.092 470.253 158.908C469.922 159.725 469.756 160.725 469.756 161.909C469.756 163.093 469.922 164.093 470.253 164.91C470.59 165.727 471.073 166.345 471.7 166.765C472.327 167.185 473.076 167.396 473.946 167.396C474.822 167.396 475.571 167.185 476.192 166.765C476.82 166.345 477.299 165.727 477.631 164.91C477.968 164.093 478.137 163.093 478.137 161.909ZM472.455 151.087L474.248 147.083H478.092L475.411 151.087H472.455ZM498.919 152.818V171H495.19L487.954 160.506H487.839V171H483.444V152.818H487.226L494.382 163.294H494.533V152.818H498.919ZM503.553 171V152.818H511.063C512.425 152.818 513.6 153.085 514.588 153.617C515.582 154.144 516.349 154.881 516.887 155.828C517.426 156.769 517.695 157.864 517.695 159.113C517.695 160.367 517.42 161.465 516.87 162.406C516.325 163.341 515.547 164.066 514.535 164.581C513.523 165.096 512.321 165.354 510.93 165.354H506.296V161.891H510.114C510.776 161.891 511.33 161.776 511.774 161.545C512.224 161.314 512.564 160.992 512.795 160.577C513.025 160.157 513.141 159.669 513.141 159.113C513.141 158.55 513.025 158.065 512.795 157.657C512.564 157.242 512.224 156.923 511.774 156.698C511.324 156.473 510.771 156.36 510.114 156.36H507.947V171H503.553ZM527.939 158.269C527.88 157.618 527.617 157.112 527.149 156.751C526.687 156.384 526.027 156.201 525.169 156.201C524.601 156.201 524.128 156.275 523.749 156.423C523.37 156.571 523.086 156.775 522.897 157.035C522.707 157.29 522.61 157.583 522.604 157.914C522.592 158.186 522.645 158.426 522.763 158.633C522.888 158.84 523.065 159.024 523.296 159.184C523.533 159.337 523.817 159.474 524.148 159.592C524.48 159.71 524.853 159.814 525.267 159.903L526.829 160.258C527.729 160.453 528.522 160.714 529.209 161.039C529.901 161.365 530.481 161.752 530.949 162.202C531.422 162.652 531.78 163.17 532.023 163.756C532.266 164.342 532.39 164.999 532.396 165.727C532.39 166.875 532.1 167.86 531.526 168.683C530.952 169.506 530.126 170.136 529.049 170.574C527.978 171.012 526.684 171.231 525.169 171.231C523.648 171.231 522.322 171.003 521.192 170.547C520.062 170.092 519.183 169.399 518.555 168.47C517.928 167.541 517.605 166.366 517.588 164.945H521.796C521.831 165.531 521.988 166.02 522.266 166.41C522.544 166.801 522.926 167.097 523.411 167.298C523.903 167.499 524.471 167.6 525.116 167.6C525.708 167.6 526.211 167.52 526.625 167.36C527.045 167.2 527.368 166.978 527.593 166.694C527.818 166.41 527.933 166.085 527.939 165.718C527.933 165.374 527.827 165.081 527.62 164.839C527.412 164.59 527.093 164.377 526.661 164.2C526.235 164.016 525.69 163.847 525.027 163.694L523.127 163.25C521.553 162.889 520.313 162.306 519.408 161.501C518.502 160.69 518.052 159.595 518.058 158.216C518.052 157.091 518.354 156.106 518.964 155.26C519.573 154.413 520.417 153.753 521.494 153.28C522.571 152.806 523.799 152.57 525.178 152.57C526.587 152.57 527.809 152.809 528.845 153.289C529.886 153.762 530.694 154.428 531.268 155.286C531.842 156.144 532.135 157.139 532.147 158.269H527.939ZM537.26 152.818V171H532.865V152.818H537.26ZM554.773 159.406H550.334C550.274 158.95 550.153 158.538 549.97 158.172C549.786 157.805 549.544 157.491 549.242 157.23C548.94 156.97 548.582 156.772 548.167 156.636C547.759 156.494 547.306 156.423 546.809 156.423C545.927 156.423 545.167 156.639 544.528 157.071C543.894 157.503 543.406 158.127 543.063 158.944C542.725 159.761 542.557 160.749 542.557 161.909C542.557 163.116 542.728 164.129 543.072 164.945C543.421 165.756 543.909 166.369 544.536 166.783C545.17 167.191 545.918 167.396 546.782 167.396C547.268 167.396 547.709 167.333 548.105 167.209C548.508 167.085 548.86 166.904 549.162 166.668C549.47 166.425 549.721 166.132 549.916 165.789C550.118 165.44 550.257 165.046 550.334 164.608L554.773 164.635C554.696 165.44 554.462 166.233 554.071 167.014C553.686 167.795 553.157 168.508 552.482 169.153C551.807 169.793 550.985 170.302 550.014 170.68C549.049 171.059 547.943 171.249 546.694 171.249C545.048 171.249 543.575 170.888 542.273 170.165C540.976 169.437 539.952 168.378 539.201 166.987C538.449 165.596 538.073 163.904 538.073 161.909C538.073 159.909 538.455 158.213 539.219 156.822C539.982 155.431 541.015 154.375 542.317 153.653C543.619 152.931 545.078 152.57 546.694 152.57C547.795 152.57 548.813 152.723 549.748 153.031C550.683 153.333 551.506 153.777 552.216 154.363C552.926 154.943 553.503 155.656 553.947 156.502C554.391 157.349 554.666 158.317 554.773 159.406ZM572.698 161.909C572.698 163.91 572.313 165.605 571.544 166.996C570.775 168.387 569.733 169.443 568.419 170.165C567.111 170.888 565.643 171.249 564.016 171.249C562.382 171.249 560.911 170.885 559.603 170.157C558.295 169.429 557.257 168.372 556.487 166.987C555.724 165.596 555.342 163.904 555.342 161.909C555.342 159.909 555.724 158.213 556.487 156.822C557.257 155.431 558.295 154.375 559.603 153.653C560.911 152.931 562.382 152.57 564.016 152.57C565.643 152.57 567.111 152.931 568.419 153.653C569.733 154.375 570.775 155.431 571.544 156.822C572.313 158.213 572.698 159.909 572.698 161.909ZM568.206 161.909C568.206 160.725 568.037 159.725 567.7 158.908C567.368 158.092 566.889 157.473 566.262 157.053C565.64 156.633 564.891 156.423 564.016 156.423C563.146 156.423 562.397 156.633 561.769 157.053C561.142 157.473 560.66 158.092 560.322 158.908C559.991 159.725 559.825 160.725 559.825 161.909C559.825 163.093 559.991 164.093 560.322 164.91C560.66 165.727 561.142 166.345 561.769 166.765C562.397 167.185 563.146 167.396 564.016 167.396C564.891 167.396 565.64 167.185 566.262 166.765C566.889 166.345 567.368 165.727 567.7 164.91C568.037 164.093 568.206 163.093 568.206 161.909ZM573.514 171V152.818H577.908V167.431H585.472V171H573.514ZM602.45 161.909C602.45 163.91 602.065 165.605 601.296 166.996C600.526 168.387 599.485 169.443 598.171 170.165C596.863 170.888 595.395 171.249 593.767 171.249C592.134 171.249 590.663 170.885 589.355 170.157C588.047 169.429 587.008 168.372 586.239 166.987C585.476 165.596 585.094 163.904 585.094 161.909C585.094 159.909 585.476 158.213 586.239 156.822C587.008 155.431 588.047 154.375 589.355 153.653C590.663 152.931 592.134 152.57 593.767 152.57C595.395 152.57 596.863 152.931 598.171 153.653C599.485 154.375 600.526 155.431 601.296 156.822C602.065 158.213 602.45 159.909 602.45 161.909ZM597.958 161.909C597.958 160.725 597.789 159.725 597.452 158.908C597.12 158.092 596.641 157.473 596.014 157.053C595.392 156.633 594.643 156.423 593.767 156.423C592.897 156.423 592.149 156.633 591.521 157.053C590.894 157.473 590.412 158.092 590.074 158.908C589.743 159.725 589.577 160.725 589.577 161.909C589.577 163.093 589.743 164.093 590.074 164.91C590.412 165.727 590.894 166.345 591.521 166.765C592.149 167.185 592.897 167.396 593.767 167.396C594.643 167.396 595.392 167.185 596.014 166.765C596.641 166.345 597.12 165.727 597.452 164.91C597.789 164.093 597.958 163.093 597.958 161.909ZM592.276 151.087L594.069 147.083H597.913L595.232 151.087H592.276ZM615.198 158.757C615.097 158.385 614.949 158.056 614.754 157.772C614.558 157.482 614.319 157.236 614.035 157.035C613.75 156.834 613.425 156.683 613.058 156.582C612.691 156.476 612.289 156.423 611.851 156.423C610.969 156.423 610.205 156.636 609.56 157.062C608.921 157.488 608.427 158.109 608.078 158.926C607.728 159.737 607.554 160.722 607.554 161.882C607.554 163.048 607.722 164.043 608.06 164.865C608.397 165.688 608.885 166.315 609.525 166.748C610.164 167.18 610.939 167.396 611.851 167.396C612.656 167.396 613.336 167.265 613.892 167.005C614.455 166.739 614.881 166.363 615.171 165.877C615.461 165.392 615.606 164.821 615.606 164.164L616.423 164.262H612.002V161.057H619.841V163.463C619.841 165.09 619.494 166.484 618.802 167.644C618.115 168.804 617.168 169.695 615.961 170.316C614.76 170.938 613.378 171.249 611.815 171.249C610.081 171.249 608.557 170.873 607.243 170.121C605.929 169.369 604.905 168.298 604.171 166.907C603.437 165.511 603.07 163.853 603.07 161.936C603.07 160.444 603.292 159.121 603.736 157.967C604.18 156.807 604.799 155.825 605.592 155.02C606.391 154.215 607.314 153.605 608.362 153.191C609.415 152.777 610.549 152.57 611.762 152.57C612.815 152.57 613.795 152.721 614.7 153.022C615.612 153.324 616.417 153.75 617.115 154.301C617.819 154.851 618.391 155.505 618.829 156.263C619.267 157.02 619.539 157.852 619.645 158.757H615.198ZM625.075 152.818V171H620.681V152.818H625.075ZM642.588 159.406H638.149C638.09 158.95 637.969 158.538 637.785 158.172C637.602 157.805 637.359 157.491 637.057 157.23C636.755 156.97 636.397 156.772 635.983 156.636C635.574 156.494 635.122 156.423 634.625 156.423C633.743 156.423 632.982 156.639 632.343 157.071C631.71 157.503 631.221 158.127 630.878 158.944C630.541 159.761 630.372 160.749 630.372 161.909C630.372 163.116 630.544 164.129 630.887 164.945C631.236 165.756 631.724 166.369 632.352 166.783C632.985 167.191 633.734 167.396 634.598 167.396C635.083 167.396 635.524 167.333 635.921 167.209C636.323 167.085 636.675 166.904 636.977 166.668C637.285 166.425 637.536 166.132 637.732 165.789C637.933 165.44 638.072 165.046 638.149 164.608L642.588 164.635C642.511 165.44 642.277 166.233 641.887 167.014C641.502 167.795 640.972 168.508 640.297 169.153C639.623 169.793 638.8 170.302 637.829 170.68C636.865 171.059 635.758 171.249 634.509 171.249C632.864 171.249 631.39 170.888 630.088 170.165C628.792 169.437 627.768 168.378 627.016 166.987C626.265 165.596 625.889 163.904 625.889 161.909C625.889 159.909 626.271 158.213 627.034 156.822C627.797 155.431 628.83 154.375 630.132 153.653C631.434 152.931 632.893 152.57 634.509 152.57C635.61 152.57 636.628 152.723 637.563 153.031C638.498 153.333 639.321 153.777 640.031 154.363C640.741 154.943 641.318 155.656 641.762 156.502C642.206 157.349 642.481 158.317 642.588 159.406ZM646.822 171H642.099L648.233 152.818H654.084L660.218 171H655.495L651.225 157.399H651.083L646.822 171ZM646.191 163.844H656.063V167.183H646.191V163.844ZM253.771 186.818V205H249.376V186.818H253.771ZM270.253 186.818V205H266.525L259.289 194.506H259.174V205H254.779V186.818H258.561L265.717 197.294H265.868V186.818H270.253ZM270.672 190.387V186.818H286.039V190.387H280.526V205H276.194V190.387H270.672ZM286.436 205V186.818H299.113V190.387H290.83V194.116H298.465V197.694H290.83V201.431H299.113V205H286.436ZM312.047 192.757C311.947 192.385 311.799 192.056 311.603 191.772C311.408 191.482 311.168 191.236 310.884 191.035C310.6 190.834 310.275 190.683 309.908 190.582C309.541 190.476 309.138 190.423 308.7 190.423C307.818 190.423 307.055 190.636 306.41 191.062C305.771 191.488 305.276 192.109 304.927 192.926C304.578 193.737 304.403 194.722 304.403 195.882C304.403 197.048 304.572 198.043 304.909 198.865C305.247 199.688 305.735 200.315 306.374 200.748C307.013 201.18 307.789 201.396 308.7 201.396C309.505 201.396 310.186 201.265 310.742 201.005C311.304 200.739 311.73 200.363 312.021 199.877C312.311 199.392 312.456 198.821 312.456 198.164L313.272 198.262H308.851V195.057H316.69V197.463C316.69 199.09 316.344 200.484 315.652 201.644C314.965 202.804 314.018 203.695 312.811 204.316C311.609 204.938 310.227 205.249 308.665 205.249C306.931 205.249 305.407 204.873 304.093 204.121C302.779 203.369 301.755 202.298 301.021 200.907C300.287 199.511 299.92 197.853 299.92 195.936C299.92 194.444 300.142 193.121 300.586 191.967C301.03 190.807 301.648 189.825 302.441 189.02C303.24 188.215 304.164 187.605 305.211 187.191C306.265 186.777 307.398 186.57 308.611 186.57C309.665 186.57 310.644 186.721 311.55 187.022C312.461 187.324 313.266 187.75 313.965 188.301C314.669 188.851 315.24 189.505 315.678 190.263C316.116 191.02 316.388 191.852 316.495 192.757H312.047ZM317.53 205V186.818H325.041C326.402 186.818 327.577 187.064 328.566 187.555C329.56 188.04 330.326 188.739 330.865 189.65C331.403 190.556 331.673 191.63 331.673 192.873C331.673 194.134 331.398 195.205 330.847 196.087C330.297 196.963 329.515 197.631 328.503 198.093C327.491 198.549 326.293 198.777 324.908 198.777H320.158V195.314H324.091C324.754 195.314 325.307 195.228 325.751 195.057C326.201 194.879 326.541 194.613 326.772 194.258C327.003 193.897 327.118 193.435 327.118 192.873C327.118 192.311 327.003 191.846 326.772 191.479C326.541 191.106 326.201 190.828 325.751 190.645C325.301 190.455 324.748 190.36 324.091 190.36H321.925V205H317.53ZM327.767 196.69L332.294 205H327.5L323.061 196.69H327.767ZM336.266 205H331.543L337.678 186.818H343.528L349.663 205H344.94L340.669 191.399H340.527L336.266 205ZM335.636 197.844H345.508V201.183H335.636V197.844ZM349.87 205V186.818H354.265V201.431H361.829V205H349.87ZM372.695 205H365.975V186.818H372.686C374.539 186.818 376.134 187.182 377.472 187.91C378.815 188.632 379.851 189.674 380.579 191.035C381.307 192.391 381.671 194.012 381.671 195.9C381.671 197.794 381.307 199.422 380.579 200.783C379.857 202.144 378.824 203.189 377.48 203.917C376.137 204.639 374.542 205 372.695 205ZM370.369 201.254H372.527C373.545 201.254 374.406 201.082 375.11 200.739C375.82 200.389 376.356 199.824 376.717 199.043C377.084 198.256 377.267 197.208 377.267 195.9C377.267 194.592 377.084 193.551 376.717 192.775C376.35 191.994 375.808 191.432 375.092 191.088C374.382 190.739 373.506 190.565 372.464 190.565H370.369V201.254ZM382.486 205V186.818H395.164V190.387H386.881V194.116H394.516V197.694H386.881V201.431H395.164V205H382.486ZM396.166 205V186.818H400.561V201.431H408.125V205H396.166ZM416.399 186.818L420.465 200.135H420.616L424.682 186.818H429.6L423.466 205H417.615L411.48 186.818H416.399ZM434.202 186.818V205H429.808V186.818H434.202ZM430.518 185.087L432.311 181.083H436.155L433.474 185.087H430.518ZM450.685 186.818V205H446.956L439.721 194.506H439.606V205H435.211V186.818H438.993L446.149 197.294H446.299V186.818H450.685ZM468.202 193.406H463.763C463.704 192.95 463.583 192.538 463.399 192.172C463.216 191.805 462.973 191.491 462.671 191.23C462.369 190.97 462.011 190.772 461.597 190.636C461.189 190.494 460.736 190.423 460.239 190.423C459.357 190.423 458.596 190.639 457.957 191.071C457.324 191.503 456.836 192.127 456.492 192.944C456.155 193.761 455.986 194.749 455.986 195.909C455.986 197.116 456.158 198.129 456.501 198.945C456.85 199.756 457.339 200.369 457.966 200.783C458.599 201.191 459.348 201.396 460.212 201.396C460.698 201.396 461.138 201.333 461.535 201.209C461.937 201.085 462.29 200.904 462.591 200.668C462.899 200.425 463.151 200.132 463.346 199.789C463.547 199.44 463.686 199.046 463.763 198.608L468.202 198.635C468.125 199.44 467.892 200.233 467.501 201.014C467.116 201.795 466.586 202.508 465.912 203.153C465.237 203.793 464.414 204.302 463.444 204.68C462.479 205.059 461.372 205.249 460.123 205.249C458.478 205.249 457.004 204.888 455.702 204.165C454.406 203.437 453.382 202.378 452.631 200.987C451.879 199.596 451.503 197.904 451.503 195.909C451.503 193.909 451.885 192.213 452.648 190.822C453.412 189.431 454.445 188.375 455.747 187.653C457.049 186.931 458.508 186.57 460.123 186.57C461.224 186.57 462.242 186.723 463.177 187.031C464.113 187.333 464.935 187.777 465.645 188.363C466.356 188.943 466.933 189.656 467.377 190.502C467.82 191.349 468.096 192.317 468.202 193.406ZM479.967 186.818H484.352V198.546C484.352 199.901 484.03 201.082 483.384 202.088C482.739 203.088 481.84 203.864 480.686 204.414C479.532 204.959 478.191 205.231 476.664 205.231C475.119 205.231 473.77 204.959 472.616 204.414C471.462 203.864 470.565 203.088 469.926 202.088C469.286 201.082 468.967 199.901 468.967 198.546V186.818H473.361V198.164C473.361 198.791 473.498 199.351 473.77 199.842C474.048 200.333 474.436 200.718 474.933 200.996C475.43 201.274 476.007 201.413 476.664 201.413C477.321 201.413 477.895 201.274 478.386 200.996C478.883 200.718 479.271 200.333 479.549 199.842C479.827 199.351 479.967 198.791 479.967 198.164V186.818ZM485.357 205V186.818H489.751V201.431H497.315V205H485.357ZM514.293 195.909C514.293 197.91 513.908 199.605 513.139 200.996C512.369 202.387 511.328 203.443 510.014 204.165C508.706 204.888 507.238 205.249 505.61 205.249C503.977 205.249 502.506 204.885 501.198 204.157C499.89 203.429 498.851 202.372 498.082 200.987C497.318 199.596 496.937 197.904 496.937 195.909C496.937 193.909 497.318 192.213 498.082 190.822C498.851 189.431 499.89 188.375 501.198 187.653C502.506 186.931 503.977 186.57 505.61 186.57C507.238 186.57 508.706 186.931 510.014 187.653C511.328 188.375 512.369 189.431 513.139 190.822C513.908 192.213 514.293 193.909 514.293 195.909ZM509.801 195.909C509.801 194.725 509.632 193.725 509.295 192.908C508.963 192.092 508.484 191.473 507.856 191.053C507.235 190.633 506.486 190.423 505.61 190.423C504.74 190.423 503.992 190.633 503.364 191.053C502.737 191.473 502.254 192.092 501.917 192.908C501.586 193.725 501.42 194.725 501.42 195.909C501.42 197.093 501.586 198.093 501.917 198.91C502.254 199.727 502.737 200.345 503.364 200.765C503.992 201.185 504.74 201.396 505.61 201.396C506.486 201.396 507.235 201.185 507.856 200.765C508.484 200.345 508.963 199.727 509.295 198.91C509.632 198.093 509.801 197.093 509.801 195.909Z" fill="#403F3D"/>
</svg>
