<svg width="647" height="241" viewBox="0 0 647 241" fill="none" xmlns="http://www.w3.org/2000/svg">
<path fill-rule="evenodd" clip-rule="evenodd" d="M194.377 120.388C190.624 119.205 187.035 118.275 183.625 116.901C182.254 116.348 181.064 114.969 180.174 113.698C179.072 112.125 179.209 110.312 180.555 108.813C181.967 107.242 184.501 107.634 184.975 109.681C185.8 113.237 188.639 113.576 191.343 114.074C194.333 114.625 196.952 113.386 199.59 112.071C201.926 110.905 204.5 110.226 206.907 109.189C207.78 108.813 208.706 108.175 209.214 107.399C213.528 100.806 211.474 89.406 205.082 84.409C203.54 83.203 201.948 82.1271 203.392 79.9371C204.374 78.4451 206.944 78.3511 208.804 79.9021C212.48 82.9661 214.897 86.9291 216.146 91.5271C217.923 98.0681 217.438 104.401 213.773 110.438C218.493 112.954 221.402 116.858 222.885 121.812C225.167 129.432 221.387 139.35 214.269 144.531C208.16 148.978 201.156 150.837 193.748 151.251C183.126 151.845 173.488 148.837 164.645 142.828C155.808 149.124 146.116 152.705 135.113 150.449C124.078 148.187 116.023 142.024 111.837 130.857C107.655 141.864 99.6847 148.107 88.6817 150.419C77.6577 152.735 67.9777 149.149 58.8747 142.774C52.9857 147.369 46.0207 149.881 38.6877 150.858C27.4347 152.357 16.6187 150.769 7.66672 143.075C0.627715 137.025 -3.59429 124.767 4.13671 115.188C4.88771 114.256 5.73071 113.377 6.63971 112.601C7.54671 111.827 8.59072 111.212 9.79072 110.377C7.33572 106.343 6.32571 101.898 6.55071 97.149C6.84971 90.848 9.29271 85.4671 13.6127 80.9801C14.5907 79.9641 16.1537 79.168 17.5337 79.003C18.4797 78.889 20.0327 79.817 20.4637 80.697C20.8007 81.384 20.1347 83.0911 19.3887 83.6951C13.3447 88.5851 11.4887 94.9551 12.4617 102.381C12.6157 103.555 13.0287 104.728 13.5137 105.816C14.3727 107.742 15.4537 109.061 17.9537 109.558C20.8497 110.135 23.5027 111.915 26.2717 113.149C30.0017 114.812 33.6197 114.547 37.0297 112.318C37.6277 111.927 38.1887 111.192 38.3707 110.51C38.8507 108.71 39.6897 107.534 41.7307 107.986C43.3307 108.34 44.7237 110.557 44.0257 112.188C43.3647 113.734 42.2857 115.307 40.9687 116.323C38.2587 118.415 35.0737 119.552 31.5617 119.49C30.8567 119.478 30.1527 119.489 29.5077 119.489C29.2327 121.565 29.4047 123.642 28.6237 125.259C27.7777 127.01 26.2467 128.652 24.6037 129.694C23.8697 130.159 21.8447 129.35 20.9717 128.522C20.5257 128.098 20.9367 125.828 21.6387 125.311C23.8487 123.681 23.9127 121.731 23.1267 119.555C22.2537 117.138 20.5787 115.441 17.8927 115.202C10.1677 114.514 4.50671 121.554 6.35371 129.469C7.78771 135.614 11.3857 140.037 17.1887 142.421C29.3847 147.431 41.3137 146.433 52.9417 140.435C54.8177 139.467 55.0777 138.594 53.8977 136.581C47.8167 126.211 55.5287 111.584 67.2487 111.117C68.6837 111.06 70.3417 111.444 71.5237 112.203C72.2297 112.656 72.6557 114.379 72.3737 115.267C72.1547 115.955 70.6087 116.692 69.7137 116.621C63.0297 116.095 59.6777 118.564 58.2707 125.113C57.1377 130.383 58.3237 134.721 62.6767 138.163C73.8807 147.021 90.3277 148.605 100.978 137.454C106.342 131.838 108.925 124.963 106.368 117.118C104.215 110.512 97.6217 107.986 91.3807 111.091C87.6827 112.931 85.9007 119.679 88.4737 122.872C89.2287 123.809 90.8547 123.995 91.9667 124.705C92.8437 125.265 94.3077 126.335 94.1747 126.764C93.8547 127.793 92.9037 129.068 91.9327 129.371C88.3267 130.502 84.5837 128.709 82.9097 125.206C80.1947 119.525 81.1577 114.147 84.6667 108.803C83.3817 108.488 82.1957 108.153 80.9897 107.91C75.6387 106.836 71.2037 104.218 67.2017 100.503C63.4047 96.979 59.4517 93.498 55.0947 90.75C52.6057 89.18 49.1987 88.939 46.1507 88.426C43.9977 88.065 42.0687 88.854 40.7547 90.84C39.7917 92.297 38.3787 92.8691 36.8247 91.8081C35.1337 90.6531 35.0067 88.9231 36.0647 87.3511C38.6507 83.5071 42.5257 82.3 46.9517 82.533C51.8807 82.792 56.3217 84.548 60.4767 87.119C60.9987 87.443 61.5367 87.7431 61.8967 87.9541C62.6097 84.8731 63.0477 81.79 64.0497 78.904C66.0767 73.064 70.0717 68.9341 75.8957 66.7131C78.1247 65.8631 79.9817 66.663 80.2867 68.534C80.6087 70.508 79.2647 71.456 77.7377 72.127C72.6757 74.35 69.9877 78.4121 68.7467 83.6041C67.0667 90.6321 70.2227 97.4821 77.0437 100.479C86.5477 104.654 95.7947 104.131 104.353 97.809C108.102 95.039 109.599 90.5091 108.205 86.0701C108.009 85.4461 107.159 84.721 106.504 84.593C96.9257 82.722 89.9957 75.386 88.3997 65.806C87.7747 62.059 86.8547 58.211 85.1927 54.84C84.1367 52.697 81.6087 51.139 79.4737 49.719C78.1187 48.817 76.6227 48.22 77.1907 46.365C77.7847 44.423 79.6967 43.633 81.2537 44.452C83.8197 45.804 86.0947 47.7351 88.3997 49.5401C89.1287 50.1101 89.5657 51.054 90.1377 51.83C91.3137 50.834 92.3647 49.717 93.6227 48.935C95.4867 47.777 97.7057 48.1791 98.5187 49.6901C99.5907 51.6841 98.1647 52.582 96.8917 53.844C95.6097 55.115 94.2307 56.9 94.0607 58.577C93.3057 66.056 95.5397 72.585 101.715 77.232C104.643 79.435 108.231 79.799 111.878 79.849C117.398 79.924 122.148 78.333 125.479 73.817C129.046 68.981 130.626 63.47 129.343 57.504C129.03 56.051 127.615 54.6931 126.416 53.6131C125.247 52.5601 124.156 51.622 124.958 50C125.788 48.323 127.368 47.7461 129.012 48.5701C130.603 49.3701 131.987 50.583 133.22 51.447C135.361 49.494 137.411 47.2221 139.869 45.5481C141.139 44.6831 143.144 44.6341 144.791 44.7211C145.436 44.7541 146.396 46.1211 146.494 46.9631C146.574 47.6571 145.751 48.918 145.056 49.166C138.476 51.521 136.401 56.9291 135.662 63.0741C134.808 70.1811 132.053 76.14 126.386 80.662C123.744 82.77 120.848 84.24 117.453 84.469C116.076 84.562 115.482 85.1561 115.247 86.4411C114.474 90.6671 115.159 94.435 118.629 97.306C126.619 103.919 137.358 104.818 146.71 100.417C152.25 97.81 155.457 93.223 155.252 87.015C155.048 80.849 152.645 75.6301 146.793 72.6131C146.152 72.2831 145.439 72.048 144.876 71.616C143.672 70.694 142.722 69.57 143.527 67.925C144.358 66.228 145.856 66.0181 147.421 66.6011C150.942 67.9141 153.999 69.9231 156.302 72.9661C159.646 77.3841 161.261 82.396 161.316 87.599C165.183 86.074 168.935 84.27 172.878 83.128C177.146 81.892 181.49 82.0471 185.27 84.9271C186.087 85.5491 186.871 86.302 187.437 87.149C188.594 88.878 188.265 90.919 186.764 91.826C185.012 92.885 183.696 92.1471 182.686 90.6261C181.353 88.6171 179.341 88.305 177.185 88.37C172.093 88.524 167.631 90.406 163.762 93.61C161.293 95.654 158.926 97.8491 156.704 100.16C152.355 104.687 147.036 107.212 140.943 108.304C140.395 108.402 139.853 108.534 139.312 108.666C139.256 108.68 139.224 108.794 139.092 109.002C142.137 113.416 143.03 118.319 141.409 123.532C140.049 127.909 136.852 129.965 132.507 129.575C130.799 129.422 129.49 128.775 129.322 126.936C129.153 125.084 130.503 124.861 131.972 124.598C134.783 124.093 135.868 122.752 136.183 119.859C136.642 115.652 134.937 112.231 131.689 110.84C127.431 109.018 121.926 109.956 119.469 113.017C117.226 115.81 116.202 119.032 116.315 122.634C116.663 133.696 125.058 143.105 136.747 144.868C147.008 146.416 155.994 143.321 163.236 135.848C168.51 130.405 165.333 118.499 158.251 116.738C156.975 116.421 155.543 116.489 154.221 116.666C152.626 116.878 151.239 116.477 151.08 114.933C150.976 113.93 151.732 112.485 152.567 111.838C153.412 111.183 154.839 111.023 155.995 111.069C162.627 111.333 167.418 114.361 169.945 120.665C172.428 126.859 172.105 131.856 168.423 139.204C171.042 140.451 173.583 141.914 176.295 142.908C186.508 146.65 196.706 146.634 206.756 142.245C211.997 139.957 215.36 136.013 217.001 130.503C218.45 125.634 217.248 121.445 213.981 117.796C211.181 114.668 205.564 114.139 202.594 116.545C199.55 119.01 199.462 122.449 202.055 125.346C202.708 126.075 203.021 128.19 202.548 128.612C201.659 129.404 199.965 129.936 198.819 129.667C196.119 129.033 194.054 125.053 194.24 121.639C194.285 121.013 194.377 120.388 194.377 120.388ZM111.798 98.538C109.135 100.756 106.395 103.038 104.132 104.922C106.765 107.775 109.484 110.719 111.816 113.246C114.195 110.661 116.908 107.715 119.488 104.911C117.23 103.04 114.47 100.754 111.798 98.538Z" fill="white"/>
<path fill-rule="evenodd" clip-rule="evenodd" d="M600.56 54.585C597.212 60.65 594.048 66.385 590.69 72.469C590.069 71.812 589.358 71.409 589.235 70.872C588.603 68.114 586.722 66.346 584.446 65.12C574.057 59.525 563.1 58.051 551.661 61.159C550.008 61.608 548.407 62.536 547 63.548C543.249 66.246 543.416 71.534 547.643 73.337C551.4 74.938 555.557 75.854 559.627 76.409C567.476 77.481 575.45 77.706 583.256 78.988C591.432 80.33 598.166 84.219 600.547 92.935C603.169 102.535 598.805 111.784 589.902 116.654C583.171 120.337 575.883 121.598 568.409 122.048C559.975 122.556 551.554 122.337 543.364 119.923C540.843 119.18 538.436 118.052 535.963 117.14C533.995 116.414 532.131 115.042 529.83 116.403C529.408 116.653 528.481 116.047 527.573 115.771C530.228 109.938 532.742 104.418 535.256 98.898C535.507 98.723 535.757 98.547 536.007 98.371C536.261 98.917 536.631 99.44 536.75 100.015C537.259 102.485 539.041 103.855 541.072 104.877C553.212 110.986 565.745 112.641 578.719 107.796C581.18 106.878 583.644 105.64 584.72 102.945C585.983 99.781 584.892 96.516 581.651 95.382C578.216 94.181 574.556 93.419 570.934 93.008C564.646 92.297 558.272 92.287 552.007 91.438C547.613 90.843 543.116 89.875 539.059 88.148C526.09 82.63 525.822 65.71 533.725 57.481C539.336 51.639 546.514 49.079 554.299 48.047C566.995 46.366 579.195 48.496 591.035 53.173C593.332 54.08 595.677 54.952 598.269 53.982C598.815 53.779 599.638 54.322 600.56 54.585Z" fill="white"/>
<path fill-rule="evenodd" clip-rule="evenodd" d="M456.299 91.9521C456.299 94.5961 456.299 96.9821 456.299 99.3681C456.299 104.427 456.297 109.485 456.301 114.543C456.304 118.33 456.632 118.723 460.516 119.475C460.558 120.127 460.602 120.821 460.657 121.664C452.129 121.664 443.74 121.664 435.23 121.664C435.23 120.89 435.23 120.214 435.23 119.466C435.813 119.394 436.283 119.353 436.747 119.277C439.897 118.76 440.326 118.266 440.328 115.068C440.335 94.995 440.338 74.921 440.336 54.848C440.336 51.994 439.81 51.5021 436.975 50.9101C436.276 50.7641 435.717 49.9461 435.095 49.4371C435.811 49.0471 436.526 48.3181 437.243 48.3151C453.221 48.2581 469.201 48.1641 485.177 48.3681C489.459 48.4231 493.818 49.074 497.989 50.08C506.381 52.104 511.993 57.106 512.877 66.153C513.653 74.099 513 81.731 505.668 86.809C501.296 89.837 496.225 91.336 490.95 91.494C480.364 91.809 469.768 91.818 459.178 91.951C458.313 91.962 457.451 91.9521 456.299 91.9521ZM456.487 61.1511C456.487 67.2691 456.487 73.071 456.487 79.059C458.596 79.059 460.515 79.0671 462.434 79.0581C471.026 79.0121 479.619 79.052 488.206 78.861C491.111 78.797 494.024 77.9941 495.788 75.3811C499.313 70.1571 496.822 63.4801 490.822 61.8161C489.748 61.5191 488.634 61.1871 487.536 61.1811C477.263 61.1321 466.989 61.1511 456.487 61.1511Z" fill="white"/>
<path fill-rule="evenodd" clip-rule="evenodd" d="M333.81 121.123C334.433 120.32 335.065 119.523 335.677 118.712C336.68 117.386 337.916 116.171 338.627 114.703C344.428 102.728 350.125 90.7041 355.863 78.7001C359.319 71.4701 362.769 64.2371 366.273 57.0311C367.924 53.6341 367.886 53.5171 365.006 51.0031C364.468 50.5331 364.502 49.4081 364.188 48.2801C372.071 48.2801 379.441 48.2661 386.812 48.3161C387.219 48.3191 387.948 48.8311 387.963 49.1341C387.993 49.7631 387.848 50.6531 387.42 51.0121C384.773 53.2331 384.56 53.8391 386.125 56.9281C390.473 65.5091 394.849 74.0761 399.227 82.6421C404.735 93.4201 410.217 104.212 415.822 114.941C416.521 116.28 417.707 117.595 419.003 118.335C420.511 119.195 420.824 120.119 420.371 121.696C412.396 121.696 404.396 121.696 395.567 121.696C396.304 120.494 396.854 119.741 397.248 118.914C397.617 118.139 398.285 117.08 398.026 116.5C396.166 112.339 394.132 108.252 392.056 104.193C391.856 103.802 390.985 103.575 390.424 103.573C380.068 103.539 369.709 103.532 359.353 103.594C358.706 103.597 357.74 104.037 357.469 104.558C355.548 108.254 353.738 112.009 351.964 115.779C351.237 117.324 351.15 118.683 353.286 119.361C353.783 119.519 353.97 120.655 354.451 121.656C347.474 121.656 341.007 121.656 334.539 121.656C334.298 121.479 334.054 121.301 333.81 121.123ZM375.147 67.39C370.651 76.307 366.422 84.6941 362.105 93.2581C370.521 93.2581 378.508 93.2581 386.834 93.2581C382.956 84.6741 379.18 76.317 375.147 67.39Z" fill="white"/>
<path fill-rule="evenodd" clip-rule="evenodd" d="M317.475 52.656C318.282 53.308 318.831 53.752 319.578 54.354C315.951 59.983 312.369 65.543 308.521 71.516C307.943 70.58 307.613 69.949 307.194 69.387C306.128 67.958 305.32 65.976 303.883 65.241C293.008 59.67 281.677 57.575 269.775 61.77C260.427 65.065 252.533 73.557 253.273 86.694C253.809 96.208 260.978 105.039 271.35 108.083C283.607 111.68 295.141 109.333 306.1 103.386C308.355 102.162 310.837 100.698 310.094 97.253C310.017 96.896 310.926 96.325 311.615 95.605C314.695 100.542 317.636 105.2 320.473 109.92C320.668 110.246 320.248 111.385 319.861 111.551C315.404 113.451 310.87 115.171 306.41 117.065C290.915 123.643 275.216 124.309 259.639 117.839C233.732 107.079 233.337 77.453 245.194 62.961C250.505 56.47 257.323 52.306 265.297 50C281.299 45.374 296.858 47.503 312.164 53.23C313.93 53.89 315.813 55.602 317.475 52.656Z" fill="white"/>
<path fill-rule="evenodd" clip-rule="evenodd" d="M55.1377 46.403C45.2717 44.731 35.9727 50.838 32.6167 61.015C32.3157 61.927 32.2627 63.041 31.6877 63.712C30.9897 64.526 29.7327 65.579 28.9477 65.418C27.9617 65.214 27.0277 63.992 26.4227 62.997C26.0817 62.436 26.3287 61.417 26.5137 60.654C29.5397 48.189 41.7497 39.395 54.4967 40.995C57.4947 41.371 58.7887 40.523 60.4377 38.399C65.5677 31.791 72.0207 26.816 80.1087 24.346C91.1407 20.978 100.976 23.876 109.982 30.526C110.56 30.953 111.077 31.462 111.627 31.927C111.685 31.976 111.776 31.984 111.881 32.022C118.229 26.203 125.814 23.312 134.355 22.992C142.463 22.688 149.461 25.871 155.549 30.872C158.924 33.644 161.67 37.179 164.763 40.306C165.272 40.821 166.192 41.405 166.79 41.287C176.849 39.31 187.998 43.264 193.948 53.447C195.269 55.708 196.212 58.226 197.062 60.717C197.875 63.098 196.981 64.974 195.169 65.461C193.371 65.944 192.197 64.986 191.407 62.391C188.201 51.855 181.155 46.215 171.069 46.126C170.282 46.119 169.494 46.207 168.326 46.272C170.223 50.512 170.395 54.731 169.432 58.921C169.016 60.734 168.172 62.61 166.995 64.017C166.38 64.751 164.44 65.012 163.426 64.626C161.977 64.074 161.849 62.443 162.657 61.111C165.35 56.673 164.603 52.106 162.44 47.993C157.36 38.332 149.711 31.409 138.788 29.131C130.737 27.451 123.368 29.815 116.902 34.783C115.923 35.535 115.291 36.927 114.857 38.15C114.299 39.723 113.403 40.676 111.755 40.64C110.114 40.603 109.329 39.58 108.722 38.045C108.168 36.643 107.274 35.095 106.076 34.274C96.8127 27.914 87.0087 26.555 76.8367 31.969C70.3137 35.441 65.1187 40.479 61.6537 47.014C59.2687 51.512 58.1437 56.283 60.9537 61.231C61.3827 61.985 61.0867 63.895 60.4737 64.314C59.6557 64.873 58.0697 64.819 57.0557 64.418C56.2427 64.096 55.6277 62.94 55.2027 62.025C53.4167 58.184 53.2707 54.143 54.0717 50.048C54.3017 48.879 54.7377 47.751 55.1377 46.403Z" fill="white"/>
<path fill-rule="evenodd" clip-rule="evenodd" d="M219.385 159.062C218.319 162.044 217.504 164.639 216.436 167.125C216.098 167.911 215.162 168.537 214.368 169.016C204.564 174.923 194.125 175.066 183.457 172.123C179.605 171.06 175.732 169.835 172.141 168.114C162.286 163.391 152.518 164.112 142.797 168.162C138.888 169.792 135.222 172.001 131.442 173.939C125.398 177.04 119.086 178.729 112.203 177.943C108.098 177.473 103.759 177.968 99.8877 176.813C95.0367 175.367 90.4717 172.841 85.9417 170.477C80.0937 167.426 73.9177 165.593 67.4237 164.797C61.9707 164.127 56.9877 166.02 52.0497 167.993C44.5847 170.978 37.0597 173.702 28.8797 173.931C22.8367 174.101 17.0717 173.053 11.6107 170.39C8.84371 169.041 6.57471 167.364 5.93171 164.075C5.62971 162.532 4.98671 161.055 4.89171 159.208C5.94771 159.949 7.03771 160.646 8.05371 161.437C17.1567 168.536 27.3397 169.596 38.1367 166.645C42.0687 165.571 46.0337 164.368 49.6997 162.624C61.2577 157.128 72.6177 158.393 83.9187 163.161C87.2317 164.558 90.3457 166.43 93.5487 168.087C105.674 174.359 117.775 174.334 129.973 168.184C134.966 165.666 140.036 163.226 145.264 161.267C154.796 157.696 164.208 158.446 173.592 162.446C178.648 164.6 183.976 166.352 189.35 167.479C199.409 169.589 208.609 167.226 216.645 160.686C217.204 160.231 217.791 159.812 218.378 159.392C218.501 159.303 218.677 159.289 219.385 159.062Z" fill="white"/>
<path fill-rule="evenodd" clip-rule="evenodd" d="M622.519 50.87C622.519 49.958 622.519 49.257 622.519 48.408C630.18 48.408 637.762 48.408 645.462 48.408C645.462 49.191 645.462 49.882 645.462 50.735C642.399 50.905 641.804 52.819 641.813 55.487C641.876 75.391 641.868 95.295 641.837 115.199C641.834 117.281 642.347 118.737 644.578 119.369C645.144 119.529 645.446 120.625 646.109 121.671C637.872 121.671 630.279 121.671 622.559 121.671C622.559 120.949 622.559 120.266 622.559 119.447C625.25 119.234 625.953 117.666 625.941 115.068C625.849 95.084 625.864 75.1 625.924 55.115C625.933 52.631 625.604 50.741 622.519 50.87Z" fill="white"/>
<path fill-rule="evenodd" clip-rule="evenodd" d="M200 198.618C198.395 200.705 197.135 202.55 195.634 204.17C195.164 204.678 194.035 204.764 193.22 204.732C186.492 204.465 180.2 202.488 174.6 198.88C164.68 192.488 154.931 194.101 145.124 198.868C139.292 201.703 133.74 205.281 127.674 207.432C112.671 212.754 98.2777 210.35 84.7257 202.362C78.8187 198.88 72.8337 195.794 65.8837 194.874C60.9087 194.216 56.3017 194.94 51.9507 197.353C46.7517 200.236 41.5337 203.022 35.5937 204.151C28.7927 205.443 27.7127 205.007 23.8867 198.7C27.0277 198.7 30.0327 198.968 32.9737 198.64C37.8127 198.101 42.3337 196.342 46.4247 193.721C57.4027 186.688 68.5297 187.957 79.7067 193.002C82.4727 194.251 85.0767 195.887 87.6777 197.471C103.83 207.306 119.981 207.289 136.049 197.374C142.534 193.373 149.252 190.215 156.905 189.138C163.201 188.252 169.051 189.262 174.559 192.306C179.556 195.066 184.515 197.974 190.316 198.563C193.372 198.873 196.486 198.618 200 198.618Z" fill="white"/>
<path fill-rule="evenodd" clip-rule="evenodd" d="M55.1117 226.066C60.0397 224.742 64.9017 223.018 69.9107 222.183C77.9307 220.847 85.2727 223.137 92.1017 227.46C95.4667 229.59 98.9547 231.625 102.612 233.171C111.051 236.737 119.102 234.986 126.766 230.605C130.104 228.697 133.227 226.368 136.678 224.71C145.035 220.697 153.63 221.183 162.204 224.103C164.31 224.82 166.349 225.736 168.805 226.713C165.627 228.433 163.403 230.799 159.273 229.312C149.763 225.887 140.785 227.639 132.679 233.674C128.155 237.042 123.07 239.157 117.596 240.265C108.42 242.121 100.211 239.453 92.4197 234.719C88.8097 232.525 85.1217 230.323 81.2067 228.799C75.8607 226.717 70.2247 227.302 64.9217 229.137C61.8477 230.201 59.4037 229.91 56.9407 228.046C56.3807 227.622 55.7597 227.279 55.1667 226.899C55.1477 226.622 55.1297 226.344 55.1117 226.066Z" fill="white"/>
<path fill-rule="evenodd" clip-rule="evenodd" d="M382.894 202.225C382.894 206.084 382.894 209.837 382.894 213.725C381.953 213.725 381.105 213.725 380.15 213.725C379.907 213.062 379.645 212.346 379.374 211.608C372.82 217.485 363.862 213.797 362.439 205.493C362.163 205.952 361.901 206.23 361.816 206.555C360.283 212.463 356.454 214.993 349.916 214.394C345.009 213.945 341.466 210.038 341.07 204.604C341 203.645 341.001 202.678 341.032 201.716C341.222 195.852 344.57 191.715 349.564 191.145C356.377 190.368 360.153 192.865 361.918 199.296C361.978 199.512 362.154 199.694 362.022 199.479C363.59 197.359 364.979 194.866 366.951 192.984C369.085 190.946 372.078 190.928 374.935 191.193C379.041 191.571 381.814 194.052 382.787 198.323C380.72 198.5 378.919 199.15 377.308 196.697C375.304 193.65 369.989 194.438 368.187 197.855C366.613 200.841 366.541 204.044 367.788 207.169C368.781 209.658 371.471 210.915 374.36 210.487C376.67 210.144 378.131 208.581 378.606 205.75C377.107 205.75 375.634 205.75 373.972 205.75C373.972 204.521 373.972 203.522 373.972 202.226C376.778 202.225 379.72 202.225 382.894 202.225ZM357.698 202.742C357.695 197.937 355.446 194.994 351.734 194.936C348.13 194.881 345.978 197.281 345.579 201.798C345.171 206.414 347.214 209.984 350.558 210.497C350.717 210.521 350.878 210.529 351.037 210.542C355.174 210.864 357.702 207.902 357.698 202.742Z" fill="white"/>
<path fill-rule="evenodd" clip-rule="evenodd" d="M293.011 162.445C293.011 157.77 293.011 153.095 293.011 148.317C300.652 148.317 307.992 148.317 315.45 148.317C315.45 149.534 315.45 150.615 315.45 151.942C313.268 151.942 311.212 151.942 308.856 151.942C308.856 158.143 308.856 164.108 308.856 170.217C307.242 170.217 305.924 170.217 304.269 170.217C304.269 164.183 304.269 158.218 304.269 152.129C301.875 152.129 299.816 152.129 297.424 152.129C297.424 158.117 297.424 164.077 297.424 169.953C293.234 170.918 292.91 170.775 291.009 167.454C288.717 163.451 286.416 159.454 283.636 155.558C283.636 160.379 283.636 165.201 283.636 170.194C282.114 170.194 280.877 170.194 279.449 170.194C279.449 162.958 279.449 155.714 279.449 148.476C283.847 147.655 283.898 147.683 286.066 151.492C288.164 155.18 290.273 158.861 292.377 162.546C292.589 162.511 292.8 162.478 293.011 162.445Z" fill="white"/>
<path fill-rule="evenodd" clip-rule="evenodd" d="M505.144 207.796C506.694 202.46 508.244 197.124 509.796 191.778C512.905 191.778 515.855 191.778 518.956 191.778C518.956 199.125 518.956 206.374 518.956 213.743C517.521 213.743 516.182 213.743 514.59 213.743C514.59 207.055 514.59 200.361 514.59 193.667C514.435 193.635 514.277 193.603 514.121 193.569C513.892 194.099 513.629 194.617 513.441 195.16C511.715 200.16 509.988 205.159 508.293 210.169C506.992 214.011 507.012 214.017 502.595 213.755C500.165 206.589 497.706 199.34 495.171 191.866C496.81 191.866 498.272 191.866 500.064 191.866C501.581 197.078 503.148 202.465 504.715 207.851C504.858 207.834 505.001 207.814 505.144 207.796Z" fill="white"/>
<path fill-rule="evenodd" clip-rule="evenodd" d="M331.224 159.804C335.376 162.275 332.505 166.865 334.662 170.219C332.812 170.219 331.26 170.219 329.375 170.219C329.24 168.343 329.071 166.536 328.99 164.725C328.904 162.822 328.081 161.695 326.068 161.685C324.389 161.677 322.71 161.683 320.693 161.683C320.693 164.495 320.693 167.248 320.693 170.179C319.047 170.179 317.731 170.179 316.03 170.179C316.03 168.907 316.036 167.579 316.028 166.253C315.997 160.961 316.007 155.669 315.898 150.379C315.866 148.762 316.287 148.07 318.041 148.148C321.083 148.281 324.135 148.162 327.182 148.216C331.072 148.287 332.861 149.431 333.953 152.424C334.893 155.002 334.022 157.416 331.224 159.804ZM320.719 157.873C323.1 157.873 325.175 157.986 327.23 157.836C328.795 157.722 329.622 156.652 329.597 155.052C329.574 153.573 329.144 152.233 327.427 152.13C325.234 152 323.028 152.098 320.719 152.098C320.719 154.056 320.719 155.86 320.719 157.873Z" fill="white"/>
<path fill-rule="evenodd" clip-rule="evenodd" d="M534.71 206.144C534.71 201.448 534.71 196.751 534.71 191.871C536.192 191.871 537.496 191.871 538.942 191.871C538.942 199.136 538.942 206.391 538.942 213.629C534.48 214.228 534.504 214.213 532.462 210.583C530.269 206.687 528.023 202.819 525.305 199.008C525.305 203.877 525.305 208.747 525.305 213.735C523.711 213.735 522.463 213.735 521.052 213.735C521.052 206.414 521.052 199.158 521.052 191.922C525.613 191.263 525.615 191.261 527.754 194.999C529.9 198.751 532.037 202.508 534.178 206.263C534.354 206.222 534.532 206.183 534.71 206.144Z" fill="white"/>
<path fill-rule="evenodd" clip-rule="evenodd" d="M436.789 191.724C440.509 191.724 444.037 191.594 447.553 191.76C451.398 191.941 454.331 194.39 454.915 198.471C455.335 201.407 455.237 204.577 454.586 207.467C453.621 211.74 450.482 213.803 446.109 213.853C443.067 213.887 440.025 213.86 436.789 213.86C436.789 206.484 436.789 199.241 436.789 191.724ZM441.244 209.972C444.257 209.88 447.375 210.99 449.448 207.879C451.143 205.337 451.279 199.461 449.592 197.274C447.348 194.368 444.194 195.868 441.244 195.492C441.244 200.45 441.244 205.121 441.244 209.972Z" fill="white"/>
<path fill-rule="evenodd" clip-rule="evenodd" d="M540.179 162.426C540.179 157.788 540.179 153.151 540.179 148.352C541.592 148.352 542.838 148.352 544.259 148.352C544.259 155.58 544.259 162.833 544.259 170.074C540.076 170.825 540.077 170.824 538.111 167.406C535.833 163.448 533.554 159.491 530.781 155.552C530.781 160.411 530.781 165.272 530.781 170.22C529.129 170.22 527.892 170.22 526.51 170.22C526.51 162.89 526.51 155.705 526.51 148.541C530.722 147.596 531.048 147.744 533.047 151.258C535.206 155.057 537.384 158.846 539.554 162.64C539.762 162.568 539.97 162.498 540.179 162.426Z" fill="white"/>
<path fill-rule="evenodd" clip-rule="evenodd" d="M472.179 148.329C473.778 148.329 475.019 148.329 476.416 148.329C476.416 155.653 476.416 162.893 476.416 170.108C472.101 170.708 472.123 170.695 470.202 167.316C467.953 163.358 465.661 159.424 462.97 155.54C462.97 160.349 462.97 165.157 462.97 170.164C461.448 170.164 460.212 170.164 458.745 170.164C458.745 163.017 458.745 155.775 458.745 148.526C462.737 147.579 463.212 147.766 465.182 151.21C467.368 155.033 469.535 158.867 472.179 162.65C472.179 157.922 472.179 153.193 472.179 148.329Z" fill="white"/>
<path fill-rule="evenodd" clip-rule="evenodd" d="M356.076 159.181C356.09 167.948 350.104 172.723 341.909 170.484C341.832 170.463 341.752 170.454 341.675 170.431C337.656 169.243 334.994 165.166 334.795 159.897C334.578 154.162 336.898 149.779 340.996 148.176C345.491 146.419 351.053 147.367 353.458 150.931C355.034 153.268 355.68 156.233 356.742 158.918C356.52 159.007 356.299 159.094 356.076 159.181ZM351.595 158.777C351.46 158.022 351.351 156.816 351.019 155.675C350.222 152.934 348.037 151.266 345.416 151.263C342.923 151.26 340.758 152.809 339.964 155.519C339.547 156.942 339.456 158.509 339.487 160.006C339.573 164.203 341.771 166.873 345.137 167.087C348.506 167.301 350.906 164.878 351.491 160.655C351.556 160.182 351.547 159.699 351.595 158.777Z" fill="white"/>
<path fill-rule="evenodd" clip-rule="evenodd" d="M606.865 214.472C600.083 214.493 596.402 210.441 596.233 202.771C596.053 194.588 601.151 189.945 609.176 191.244C610.894 191.523 612.747 192.41 614.045 193.569C618.793 197.81 618.783 207.97 613.899 212.014C612.057 213.538 609.416 214.099 607.139 215.098C607.048 214.889 606.957 214.681 606.865 214.472ZM600.764 202.802C600.769 207.726 603.1 210.631 606.99 210.56C610.573 210.495 612.752 207.748 612.848 203.177C612.952 198.24 610.925 195.202 607.36 194.95C603.229 194.66 600.76 197.6 600.764 202.802Z" fill="white"/>
<path fill-rule="evenodd" clip-rule="evenodd" d="M514.376 170.952C508.222 170.979 504.121 167.111 503.856 160.915C503.777 159.087 503.727 157.202 504.072 155.421C505.028 150.481 508.83 147.512 514.006 147.399C519.413 147.28 523.383 150.023 524.421 155.083C524.908 157.456 524.948 160.048 524.574 162.444C523.714 167.961 519.946 170.927 514.376 170.952ZM520.359 158.884C520.294 158.306 520.273 157.335 520.061 156.408C519.312 153.137 517.224 151.304 514.315 151.269C511.496 151.235 509.239 153.147 508.569 156.38C508.281 157.767 508.213 159.242 508.311 160.659C508.582 164.539 511.123 167.146 514.4 167.091C517.629 167.036 519.925 164.541 520.273 160.699C520.316 160.224 520.32 159.743 520.359 158.884Z" fill="white"/>
<path fill-rule="evenodd" clip-rule="evenodd" d="M302.962 202.627C302.867 194.561 307.378 190.367 315.254 191.116C319.943 191.563 323.309 194.882 323.925 200.219C324.195 202.55 324.019 205.059 323.442 207.334C322.11 212.584 317.891 214.967 311.675 214.392C306.992 213.959 303.413 210.123 302.972 205.029C302.902 204.233 302.962 203.427 302.962 202.627ZM319.454 202.825C319.46 198.318 317.725 195.528 314.6 195.019C310.713 194.386 308.067 196.686 307.447 201.237C306.762 206.261 309.003 210.165 312.779 210.527C316.952 210.927 319.448 208.048 319.454 202.825Z" fill="white"/>
<path fill-rule="evenodd" clip-rule="evenodd" d="M363.195 170.311C363.195 162.847 363.195 155.659 363.195 148.33C367.211 148.33 371.138 148.055 375.008 148.41C378.641 148.743 380.711 151.469 381.28 154.819C381.737 157.517 381.721 160.439 381.209 163.127C380.348 167.65 377.548 169.966 373.051 170.271C369.87 170.485 366.662 170.311 363.195 170.311ZM367.698 151.906C367.698 156.94 367.698 161.693 367.698 166.529C370.886 166.442 374.283 167.405 376.019 163.904C377.667 160.581 377.938 156.882 375.904 153.749C373.971 150.773 370.567 152.162 367.698 151.906Z" fill="white"/>
<path fill-rule="evenodd" clip-rule="evenodd" d="M461.153 200.375C464.702 200.375 468.046 200.375 471.557 200.375C471.557 201.631 471.557 202.711 471.557 204.049C468.168 204.049 464.762 204.049 461.147 204.049C461.147 206.082 461.147 207.864 461.147 209.92C465.111 209.92 469.078 209.92 473.163 209.92C473.163 211.351 473.163 212.512 473.163 213.769C467.642 213.769 462.208 213.769 456.562 213.769C456.562 206.508 456.562 199.27 456.562 191.856C461.862 191.856 467.171 191.856 472.607 191.856C472.607 193.029 472.607 194.124 472.607 195.446C468.836 195.446 465.1 195.446 461.153 195.446C461.153 197.123 461.153 198.579 461.153 200.375Z" fill="white"/>
<path fill-rule="evenodd" clip-rule="evenodd" d="M275.838 198.172C274.49 198.172 273.298 198.172 272.107 198.17C270.353 195.2 268.282 194.139 265.496 195.154C264.627 195.471 263.556 196.592 263.505 197.401C263.458 198.17 264.466 199.434 265.288 199.743C267.373 200.526 269.632 200.831 271.787 201.448C275.266 202.445 276.819 204.302 276.849 207.305C276.878 210.294 275.133 212.827 272.078 213.818C268.848 214.864 265.578 214.798 262.458 213.334C259.992 212.176 258.749 210.158 258.625 207.251C260.626 207.294 262.622 206.116 263.806 209.056C264.648 211.148 270.017 211.3 271.636 209.599C272.983 208.183 272.563 206.377 270.492 205.661C268.155 204.851 265.684 204.434 263.324 203.682C260.091 202.651 258.979 200.917 259.055 197.577C259.112 195.093 260.21 193.175 262.398 192.142C265.94 190.471 269.563 190.491 272.997 192.512C275.07 193.731 275.836 195.384 275.838 198.172Z" fill="white"/>
<path fill-rule="evenodd" clip-rule="evenodd" d="M560.891 191.804C562.38 191.804 563.782 191.804 565.47 191.804C565.47 194.696 565.463 197.484 565.472 200.272C565.479 202.44 565.406 204.615 565.552 206.774C565.737 209.483 567.076 210.579 569.828 210.536C572.432 210.495 573.711 209.422 573.804 206.762C573.947 202.671 573.884 198.574 573.906 194.478C573.911 193.617 573.907 192.754 573.907 191.79C575.553 191.79 576.896 191.79 578.142 191.79C578.142 197.614 578.163 203.42 578.112 209.226C578.106 209.823 577.759 210.463 577.434 211.001C575.722 213.821 571.51 215.127 567.023 214.274C563.531 213.609 561.157 211.42 560.962 207.758C560.684 202.495 560.891 197.206 560.891 191.804Z" fill="white"/>
<path fill-rule="evenodd" clip-rule="evenodd" d="M387.367 160.507C387.367 162.704 387.367 164.37 387.367 166.321C391.417 166.321 395.388 166.321 399.525 166.321C399.525 167.751 399.525 168.898 399.525 170.212C394.04 170.212 388.627 170.212 383.006 170.212C383.006 162.93 383.006 155.691 383.006 148.317C388.352 148.317 393.606 148.317 398.833 148.317C399.591 151.861 399.494 151.989 396.09 151.993C393.285 151.997 390.48 151.994 387.477 151.994C387.477 153.545 387.477 154.941 387.477 156.643C390.868 156.643 394.35 156.643 398 156.643C398 158.008 398 159.079 398 160.506C394.512 160.507 391.034 160.507 387.367 160.507Z" fill="white"/>
<path fill-rule="evenodd" clip-rule="evenodd" d="M457.387 166.364C457.387 167.896 457.387 168.985 457.387 170.222C451.839 170.222 446.43 170.222 440.807 170.222C440.807 162.926 440.807 155.697 440.807 148.323C446.124 148.323 451.379 148.323 456.622 148.323C457.491 151.734 457.31 151.988 454.006 151.993C451.14 151.998 448.273 151.994 445.256 151.994C445.256 153.644 445.256 155.039 445.256 156.727C448.777 156.727 452.258 156.727 455.863 156.727C455.863 158.089 455.863 159.163 455.863 160.567C452.267 160.567 448.787 160.567 445.215 160.567C445.215 162.63 445.215 164.361 445.215 166.364C449.289 166.364 453.257 166.364 457.387 166.364Z" fill="white"/>
<path fill-rule="evenodd" clip-rule="evenodd" d="M278.133 166.387C278.133 167.764 278.133 168.853 278.133 170.159C272.639 170.159 267.168 170.159 261.531 170.159C261.531 162.936 261.531 155.755 261.531 148.372C266.839 148.372 272.145 148.372 277.432 148.372C278.103 151.93 278.042 152.002 274.613 151.995C271.813 151.989 269.012 151.994 266.03 151.994C266.03 153.567 266.03 154.964 266.03 156.677C269.476 156.677 272.96 156.677 276.584 156.677C276.584 158.058 276.584 159.132 276.584 160.555C273.019 160.555 269.541 160.555 265.961 160.555C265.961 162.635 265.961 164.367 265.961 166.387C270.05 166.387 274.026 166.387 278.133 166.387Z" fill="white"/>
<path fill-rule="evenodd" clip-rule="evenodd" d="M430.665 213.862C429.506 213.862 428.612 213.751 427.757 213.885C426.031 214.156 425.181 213.389 424.998 211.771C424.769 209.738 423.612 209.095 421.706 209.367C421.077 209.457 420.417 209.45 419.783 209.379C417.252 209.093 415.234 209.419 414.791 212.565C414.718 213.085 413.488 213.61 412.709 213.814C411.889 214.029 410.969 213.862 409.938 213.862C409.983 213.341 409.939 212.948 410.059 212.613C412.376 206.123 414.677 199.627 417.105 193.178C417.35 192.527 418.397 191.758 419.059 191.77C420.423 191.793 422.705 191.944 422.994 192.678C425.72 199.588 428.103 206.632 430.665 213.862ZM420.121 196.649C419.043 200.006 418.191 202.658 417.301 205.434C419.346 205.434 421.031 205.434 422.912 205.434C422.009 202.593 421.181 199.989 420.121 196.649Z" fill="white"/>
<path fill-rule="evenodd" clip-rule="evenodd" d="M425.759 170.37C424.867 170.37 424.07 170.276 423.303 170.39C421.523 170.653 420.586 169.923 420.366 168.168C420.124 166.241 419.114 165.37 417.112 165.725C416.412 165.849 415.656 165.842 414.953 165.727C412.344 165.301 410.695 166.061 410.213 168.922C410.115 169.498 408.984 170.106 408.225 170.31C407.33 170.55 406.323 170.366 405.036 170.366C405.954 167.709 406.787 165.24 407.66 162.786C409.214 158.413 410.883 154.078 412.317 149.667C412.897 147.879 414.136 148.115 415.359 148.211C416.57 148.306 418.043 147.526 418.721 149.53C420.953 156.127 423.349 162.668 425.667 169.234C425.765 169.512 425.72 169.843 425.759 170.37ZM418.285 161.843C417.34 158.909 416.514 156.346 415.473 153.12C414.41 156.437 413.577 159.041 412.68 161.843C414.647 161.843 416.287 161.843 418.285 161.843Z" fill="white"/>
<path fill-rule="evenodd" clip-rule="evenodd" d="M133.393 9.51805C133.399 4.34705 137.806 -0.0779582 142.872 0.00104179C148.152 0.0830418 152.473 4.31205 152.477 9.40105C152.482 14.5311 148.104 18.921 142.982 18.922C137.76 18.923 133.387 14.6341 133.393 9.51805ZM147.454 9.40705C147.423 6.79905 145.376 4.69205 142.924 4.74605C140.446 4.80105 138.296 6.94904 138.279 9.38704C138.261 11.984 140.491 14.218 143.025 14.142C145.571 14.067 147.485 12.021 147.454 9.40705Z" fill="white"/>
<path fill-rule="evenodd" clip-rule="evenodd" d="M80.6637 18.929C75.6897 19.008 71.3107 14.741 71.1647 9.67201C71.0137 4.44701 75.3467 0.0780037 80.7297 0.0270037C85.8337 -0.0209963 90.2287 4.341 90.2707 9.497C90.3117 14.545 85.9317 18.844 80.6637 18.929ZM85.2477 9.611C85.3377 6.935 83.3167 4.75801 80.7287 4.74601C78.2907 4.73401 76.1817 6.80502 76.0797 9.31102C75.9757 11.869 78.1217 14.15 80.6597 14.181C83.1247 14.209 85.1607 12.181 85.2477 9.611Z" fill="white"/>
<path fill-rule="evenodd" clip-rule="evenodd" d="M241.463 191.701C245.1 191.701 248.549 191.591 251.989 191.73C255.836 191.887 258.079 194.273 258.18 198.001C258.317 203.068 256.728 205.209 252.326 205.686C250.274 205.909 248.199 205.931 245.89 206.057C245.89 208.657 245.89 211.119 245.89 213.719C244.311 213.719 242.982 213.719 241.462 213.719C241.463 206.489 241.463 199.239 241.463 191.701ZM246.13 195.671C245.345 200.733 245.654 202.07 247.585 202.186C251.81 202.438 253.76 201.329 253.744 198.682C253.726 195.843 251.912 195.106 246.13 195.671Z" fill="white"/>
<path fill-rule="evenodd" clip-rule="evenodd" d="M259.953 155.295C257.381 155.687 255.58 155.771 254.095 153.189C252.497 150.412 247.715 151.185 246.084 154.29C244.429 157.442 244.525 160.812 245.848 164.052C246.637 165.987 248.393 166.999 250.445 167.023C252.395 167.045 254.062 166.191 254.819 164.235C255.832 161.618 257.948 163.272 259.545 162.777C259.552 168.187 254.063 172.111 248.274 170.722C246.491 170.294 244.617 169.342 243.29 168.094C238.682 163.761 239.253 153.565 244.23 149.649C247.437 147.126 251.153 147.211 254.745 148.498C257.71 149.558 259.491 151.88 259.953 155.295Z" fill="white"/>
<path fill-rule="evenodd" clip-rule="evenodd" d="M497.618 155.273C494.799 155.663 492.964 155.818 491.643 153.238C490.459 150.924 486.366 151.05 484.425 153.044C481.87 155.67 481.668 162.375 484.061 165.193C486.144 167.647 489.986 167.612 491.796 165.122C493.574 162.675 493.574 162.675 496.953 162.925C497.208 166.828 493.599 170.503 489.1 170.92C482.976 171.488 478.441 167.797 477.86 161.673C477.446 157.315 477.789 153.138 481.359 149.946C485.394 146.338 492.871 147.061 495.963 151.461C496.702 152.511 497.019 153.857 497.618 155.273Z" fill="white"/>
<path fill-rule="evenodd" clip-rule="evenodd" d="M409.839 198.889C407.483 199.02 405.582 199.427 404.054 196.778C402.411 193.93 397.666 194.674 396.033 197.834C394.405 200.981 394.406 204.346 395.831 207.595C396.67 209.509 398.259 210.494 400.421 210.517C402.497 210.538 404.006 209.669 404.805 207.77C405.89 205.187 407.936 206.861 409.556 206.425C409.334 210.18 406.875 213.177 403.341 214.176C399.297 215.319 394.729 213.922 392.474 210.856C389.504 206.816 389.368 199.496 392.184 195.351C394.504 191.938 398.648 190.477 403.038 191.524C406.988 192.466 409.227 194.828 409.839 198.889Z" fill="white"/>
<path fill-rule="evenodd" clip-rule="evenodd" d="M559.237 206.547C558.569 211.372 555.134 214.386 550.371 214.47C544.894 214.568 540.833 211.476 540.134 206.36C539.823 204.092 539.777 201.693 540.162 199.449C540.848 195.456 543.082 192.482 547.252 191.561C551.246 190.678 554.976 191.27 557.698 194.651C558.591 195.76 559.022 197.24 559.785 198.796C557.056 199.038 555.131 199.52 553.672 196.774C552.308 194.206 547.91 194.671 545.997 197.17C543.991 199.792 543.906 205.683 545.835 208.383C547.794 211.126 552.071 211.285 553.902 208.683C555.643 206.209 555.643 206.209 559.237 206.547Z" fill="white"/>
<path fill-rule="evenodd" clip-rule="evenodd" d="M302.969 198.834C300.375 198.946 298.49 199.659 297.054 196.909C295.488 193.908 290.308 194.701 288.735 198.053C287.281 201.153 287.259 204.449 288.662 207.613C289.509 209.524 291.095 210.511 293.255 210.516C295.313 210.521 296.818 209.679 297.638 207.772C298.73 205.234 300.742 206.796 302.388 206.463C302.159 210.28 299.444 213.427 295.82 214.262C291.091 215.352 286.387 213.538 284.485 209.543C282.331 205.022 282.309 200.304 284.728 195.887C287.93 190.04 297.119 189.487 301.126 194.816C301.933 195.888 302.285 197.303 302.969 198.834Z" fill="white"/>
<path fill-rule="evenodd" clip-rule="evenodd" d="M188.081 22.1851C192.463 22.3351 196.08 26.0821 195.941 30.3251C195.8 34.6121 191.962 38.201 187.677 38.054C183.35 37.905 179.715 34.114 179.844 29.886C179.977 25.543 183.729 22.0351 188.081 22.1851ZM187.576 33.2121C189.648 33.1961 190.932 31.9251 190.962 30.1891C190.996 28.3181 189.658 26.9181 187.865 26.9481C186.068 26.9781 184.764 28.3801 184.844 30.2501C184.928 32.1891 186.054 33.0891 187.576 33.2121Z" fill="white"/>
<path fill-rule="evenodd" clip-rule="evenodd" d="M43.7127 30.184C43.6477 34.522 39.9737 38.11 35.6457 38.059C31.2857 38.008 27.7327 34.388 27.7657 30.031C27.7987 25.599 31.5347 22.064 36.0717 22.172C40.2807 22.271 43.7757 25.937 43.7127 30.184ZM36.1147 33.211C37.6667 33.113 38.7067 32.075 38.8287 30.207C38.9437 28.445 37.4727 26.909 35.7057 26.948C33.7717 26.99 32.7937 28.179 32.6417 29.99C32.4917 31.774 33.9727 33.222 36.1147 33.211Z" fill="white"/>
<path fill-rule="evenodd" clip-rule="evenodd" d="M433.452 170.247C431.713 170.247 430.387 170.247 428.754 170.247C428.754 164.199 428.754 158.232 428.754 152.013C426.407 152.013 424.357 152.013 422.16 152.013C422.16 150.678 422.16 149.603 422.16 148.353C427.994 148.353 433.811 148.353 439.64 148.353C440.807 151.391 440.411 152.006 437.253 152.009C436.071 152.01 434.889 152.009 433.451 152.009C433.452 158.143 433.452 164.044 433.452 170.247Z" fill="white"/>
<path fill-rule="evenodd" clip-rule="evenodd" d="M325.325 191.774C326.836 191.774 328.18 191.774 329.837 191.774C329.837 197.813 329.837 203.772 329.837 209.978C333.629 209.978 337.114 209.978 340.743 209.978C340.743 211.318 340.743 212.404 340.743 213.677C335.662 213.677 330.58 213.677 325.325 213.677C325.325 206.48 325.325 199.237 325.325 191.774Z" fill="white"/>
<path fill-rule="evenodd" clip-rule="evenodd" d="M581.068 191.764C582.499 191.764 583.758 191.764 585.317 191.764C585.317 197.762 585.317 203.713 585.317 209.885C589.096 209.885 592.584 209.885 596.248 209.885C596.248 211.253 596.248 212.403 596.248 213.71C591.265 213.71 586.262 213.71 581.068 213.71C581.068 206.473 581.068 199.242 581.068 191.764Z" fill="white"/>
<path fill-rule="evenodd" clip-rule="evenodd" d="M479.319 209.983C483.212 209.983 486.64 209.983 490.239 209.983C490.239 211.268 490.239 212.415 490.239 213.716C485.227 213.716 480.222 213.716 475.036 213.716C475.036 206.462 475.036 199.23 475.036 191.839C476.377 191.839 477.697 191.839 479.319 191.839C479.319 197.764 479.319 203.719 479.319 209.983Z" fill="white"/>
<path fill-rule="evenodd" clip-rule="evenodd" d="M277.609 191.779C279.023 191.779 280.359 191.779 281.865 191.779C281.865 199.086 281.865 206.331 281.865 213.721C280.467 213.721 279.136 213.721 277.609 213.721C277.609 206.537 277.609 199.299 277.609 191.779Z" fill="white"/>
<path fill-rule="evenodd" clip-rule="evenodd" d="M384.759 191.804C386.268 191.804 387.598 191.804 389.058 191.804C389.058 199.158 389.058 206.388 389.058 213.741C387.596 213.741 386.265 213.741 384.759 213.741C384.759 206.483 384.759 199.251 384.759 191.804Z" fill="white"/>
<path fill-rule="evenodd" clip-rule="evenodd" d="M502.792 170.278C501.286 170.278 500.021 170.278 498.525 170.278C498.525 163.002 498.525 155.753 498.525 148.342C499.893 148.342 501.28 148.342 502.792 148.342C502.792 155.639 502.792 162.828 502.792 170.278Z" fill="white"/>
<path fill-rule="evenodd" clip-rule="evenodd" d="M356.126 184.923C354.11 186.509 353.238 189.9 349.601 188.993C351.121 184.71 351.565 184.413 356.126 184.923Z" fill="white"/>
<path fill-rule="evenodd" clip-rule="evenodd" d="M512.152 145.325C514.469 140.754 514.623 140.663 519.104 141.353C516.887 143.088 515.865 146.232 512.152 145.325Z" fill="white"/>
<path fill-rule="evenodd" clip-rule="evenodd" d="M514.749 189.132C516.609 184.764 516.692 184.71 521.165 185.017C519.694 188.088 517.529 189.476 514.749 189.132Z" fill="white"/>
<path fill-rule="evenodd" clip-rule="evenodd" d="M147.454 9.40703C147.485 12.02 145.571 14.067 143.025 14.142C140.491 14.217 138.261 11.983 138.279 9.38703C138.296 6.94903 140.446 4.80203 142.924 4.74603C145.376 4.69303 147.423 6.80003 147.454 9.40703Z" fill="white"/>
<path fill-rule="evenodd" clip-rule="evenodd" d="M85.2477 9.61104C85.1617 12.182 83.1247 14.21 80.6607 14.18C78.1217 14.15 75.9767 11.868 76.0807 9.31005C76.1827 6.80405 78.2917 4.73305 80.7297 4.74505C83.3167 4.75805 85.3377 6.93404 85.2477 9.61104Z" fill="white"/>
<path fill-rule="evenodd" clip-rule="evenodd" d="M187.576 33.212C186.054 33.088 184.927 32.189 184.844 30.249C184.764 28.379 186.068 26.978 187.865 26.947C189.658 26.917 190.996 28.317 190.962 30.188C190.932 31.925 189.649 33.196 187.576 33.212Z" fill="white"/>
<path fill-rule="evenodd" clip-rule="evenodd" d="M36.1147 33.2111C33.9727 33.2221 32.4917 31.774 32.6417 29.99C32.7937 28.178 33.7727 26.9901 35.7057 26.9481C37.4717 26.9091 38.9437 28.4451 38.8287 30.2071C38.7067 32.0751 37.6667 33.1131 36.1147 33.2111Z" fill="white"/>
</svg>
